<?xml version="1.0" encoding="UTF-8"?>
<svg width="23px" height="23px" viewBox="0 0 23 23" version="1.1" xmlns="http://www.w3.org/2000/svg" xmlns:xlink="http://www.w3.org/1999/xlink">
    <title>Aptos Logo</title>
    <g id="页面-1" stroke="none" stroke-width="1" fill="none" fill-rule="evenodd">
        <g id="Aptos-Logo" fill-rule="nonzero">
            <circle id="椭圆形" fill="#FFFFFF" cx="11.5" cy="11.5" r="11.5"></circle>
            <g id="编组-2" transform="translate(2.379310, 1.642575)" fill="#000000">
                <path d="M14.1946822,6.83850665 L12.5858395,6.83850665 C12.3987283,6.83850665 12.220229,6.75786879 12.0957492,6.61773116 L11.4436003,5.88102996 C11.3465217,5.77142511 11.2063841,5.70801087 11.0599833,5.70801087 C10.9135826,5.70801087 10.7734449,5.77064221 10.6763663,5.88102996 L10.1165987,6.51360655 C9.933402,6.72028999 9.67035035,6.83928954 9.39398954,6.83928954 L0.589588176,6.83928954 C0.339062795,7.55406977 0.175438405,8.30877748 0.110458385,9.09245219 L8.42242079,9.09245219 C8.56882156,9.09245219 8.70817631,9.03295241 8.80916935,8.92726202 L9.58344936,8.12010055 C9.67974505,8.01910751 9.81361955,7.96195641 9.95297429,7.96195641 L9.98507286,7.96195641 C10.1314736,7.96195641 10.2716113,8.02458775 10.3686898,8.1349755 L11.0208387,8.8716767 C11.1453185,9.01181433 11.323035,9.09245219 11.510929,9.09245219 L18.2954695,9.09245219 C18.2304895,8.30877748 18.0668651,7.55406977 17.8163397,6.83928954 L14.1946822,6.83928954 L14.1946822,6.83850665 Z" id="路径"></path>
                <path d="M5.14132119,13.8281648 C5.28772196,13.8281648 5.42707671,13.768665 5.52806975,13.6629746 L6.30234976,12.8558131 C6.39864545,12.7548201 6.53251995,12.697669 6.67187469,12.697669 L6.70397326,12.697669 C6.85037403,12.697669 6.99051166,12.7603003 7.08759025,12.8706881 L7.73973913,13.6073893 C7.86421893,13.7475269 8.04193537,13.8281648 8.22982941,13.8281648 L17.4241109,13.8281648 C17.7685833,13.1165161 18.0206745,12.3524137 18.1709897,11.5530812 L9.34623314,11.5530812 C9.15912199,11.5530812 8.98062266,11.4724433 8.85614286,11.3323057 L8.20399398,10.5956045 C8.10691539,10.4859996 7.96677776,10.4225854 7.82037699,10.4225854 C7.67397622,10.4225854 7.53383858,10.4852167 7.43676,10.5956045 L6.87699235,11.2281811 C6.69379566,11.4348645 6.43074401,11.5538641 6.1543832,11.5538641 L0.236503967,11.5538641 C0.386819196,12.3539795 0.63891036,13.117299 0.983382759,13.8289477 L5.14132119,13.8289477 L5.14132119,13.8281648 Z" id="路径"></path>
                <path d="M11.6635929,4.37709478 C11.8099937,4.37709478 11.9493484,4.317595 12.0503415,4.21190461 L12.8246215,3.40474315 C12.9209172,3.3037501 13.0547917,3.246599 13.1941464,3.246599 L13.226245,3.246599 C13.3726457,3.246599 13.5127834,3.30923034 13.609862,3.41961809 L14.2620108,4.15631929 C14.3864906,4.29645692 14.5642071,4.37709478 14.7521011,4.37709478 L16.5002986,4.37709478 C14.8350877,2.16385962 12.1865646,0.731950486 9.20374683,0.731950486 C6.22092901,0.731950486 3.57240599,2.16385962 1.9071951,4.37709478 L11.6643758,4.37709478 L11.6635929,4.37709478 Z" id="路径"></path>
                <path d="M8.15154023,16.0836761 L5.76058862,16.0836761 C5.57347748,16.0836761 5.39497814,16.0030382 5.27049834,15.8629006 L4.61834946,15.1261994 C4.52127088,15.0165946 4.38113324,14.9531803 4.23473247,14.9531803 C4.0883317,14.9531803 3.94819407,15.0158117 3.85111548,15.1261994 L3.29134783,15.758776 C3.10815115,15.9654594 2.8450995,16.084459 2.56873869,16.084459 L2.53115988,16.084459 C4.19715366,17.8694523 6.56853297,18.986639 9.20296393,18.986639 C11.8373949,18.986639 14.2087742,17.8694523 15.874768,16.084459 L8.15154023,16.084459 L8.15154023,16.0836761 Z" id="路径"></path>
            </g>
        </g>
    </g>
</svg>