<?xml version="1.0" encoding="UTF-8"?>
<svg width="23px" height="23px" viewBox="0 0 23 23" version="1.1" xmlns="http://www.w3.org/2000/svg" xmlns:xlink="http://www.w3.org/1999/xlink">
    <title>Avalanche (AVAX) LOGO</title>
    <g id="页面-1" stroke="none" stroke-width="1" fill="none" fill-rule="evenodd">
        <g id="Avalanche-(AVAX)-LOGO" fill-rule="nonzero">
            <circle id="椭圆形" fill="#E84142" cx="11.5270588" cy="11.4819608" r="11.454902"></circle>
            <path d="M15.5678431,11.7796078 C15.9647059,11.0941176 16.605098,11.0941176 17.0019608,11.7796078 L19.4733333,16.1180392 C19.8701961,16.8035294 19.5454902,17.3627451 18.7517647,17.3627451 L13.7729412,17.3627451 C12.9882353,17.3627451 12.6635294,16.8035294 13.0513725,16.1180392 L15.5678431,11.7796078 Z M10.787451,3.42745098 C11.1843137,2.74196078 11.8156863,2.74196078 12.212549,3.42745098 L12.7627451,4.41960784 L14.0615686,6.70156863 C14.3772549,7.35098039 14.3772549,8.11764706 14.0615686,8.76705882 L9.70509804,16.3164706 C9.30823529,16.9298039 8.64980392,17.3176471 7.91921569,17.3627451 L4.30235294,17.3627451 C3.50862745,17.3627451 3.18392157,16.812549 3.58078431,16.1180392 L10.787451,3.42745098 Z" id="形状" fill="#FFFFFF"></path>
        </g>
    </g>
</svg>