<?xml version="1.0" encoding="UTF-8"?>
<svg width="200px" height="200px" viewBox="0 0 200 200" version="1.1" xmlns="http://www.w3.org/2000/svg" xmlns:xlink="http://www.w3.org/1999/xlink">
    <title>Build</title>
    <g id="iCON" stroke="none" stroke-width="1" fill="none" fill-rule="evenodd">
        <path d="M54.4743332,113.725981 L94.9900826,148.031475 C96.5404959,149.351545 98.4380165,150 100.358678,150 C102.172635,150 104.007234,149.400937 105.51158,148.20281 L105.773554,147.985157 L145.576133,113.760041 C146.503816,115.020987 147.013915,116.53439 147,118.108965 L146.932851,160.867724 C146.932851,163.081565 145.912083,165.168901 144.159025,166.623711 L105.547364,198.165675 C104.060593,199.388558 102.196582,200 100.354761,200 C98.5129407,200 96.6933107,199.409642 95.2065398,198.207843 L55.8403981,166.581542 C54.0429587,165.126732 53,163.018312 53,160.783387 L53.0665718,118.024629 C53.0665718,116.470926 53.5680627,114.976783 54.4743332,113.725981 Z M104.498701,25.758798 L141.34026,56.8407709 C143.023377,58.2705417 144,60.3426732 144,62.5391327 L143.937662,104.56196 C143.937662,106.737698 142.981818,108.789108 141.34026,110.218879 L105.184416,141.197246 C103.792208,142.399082 102.046753,143 100.322078,143 C98.5974026,143 96.8935065,142.419803 95.5012987,141.238688 L58.6597403,110.156715 C56.9766234,108.726944 56,106.654813 56,104.458354 L56.0623377,62.4355261 C56.0623377,60.259788 57.0181818,58.2083778 58.6597403,56.778607 L94.7948052,25.8002406 C97.5792208,23.4172894 101.693506,23.396568 104.498701,25.758798 Z M55.1121606,1.67011909 L87.676,24.627 L53.9619835,53.6349137 C52.2100551,55.1663103 51.1594525,57.3357889 51.0749438,59.6541532 L51.0694215,59.9573527 L51,106.924042 C51,109.036591 51.805431,111.046236 53.2245795,112.584001 C52.3005756,112.861822 51.3304277,113 50.3659976,113 C48.4061393,113 46.4698937,112.449057 44.8878394,111.327494 L3.02243211,81.8126792 C1.10979929,80.4549977 0,78.4873434 0,76.4016298 L0.0708382527,36.4976004 C0.0708382527,34.4315634 1.15702479,32.4835856 3.02243211,31.1259041 L44.0850059,1.70947218 C47.2491145,-0.553330277 51.9244392,-0.573006821 55.1121606,1.67011909 Z M156.009917,1.65533928 L197.038017,30.9089609 C198.912397,32.2546275 200,34.2048689 200,36.2721249 L199.930579,75.8230213 C199.930579,77.8707748 198.866116,79.8015138 197.038017,81.1471804 L156.796694,110.30329 C155.22314,111.43443 153.302479,112 151.358678,112 C150.117275,112 148.885539,111.771876 147.750946,111.310363 C148.454397,110.129755 148.8643,108.787662 148.923199,107.390275 L148.930579,107.039838 L149,60.0731483 C149,57.720568 148.001142,55.495604 146.268194,53.9078358 L146.038017,53.7043911 L112.551,25.351 L145.203306,1.69434411 C148.304132,-0.548433549 152.88595,-0.567935964 156.009917,1.65533928 Z" id="Build" fill="currentColor" fill-rule="nonzero"></path>
    </g>
</svg>