<svg width="42" height="42" viewBox="0 0 42 42" fill="none" xmlns="http://www.w3.org/2000/svg">
<circle cx="21" cy="21" r="18.5" stroke="white" stroke-width="3"/>
<path fill-rule="evenodd" clip-rule="evenodd" d="M13.7453 28.2922C13.0748 27.6217 13.0748 26.5346 13.7453 25.8641L25.8858 13.7236C26.5563 13.0531 27.6434 13.0531 28.3139 13.7236C28.9844 14.3941 28.9844 15.4812 28.3139 16.1517L16.1734 28.2922C15.5029 28.9627 14.4158 28.9627 13.7453 28.2922Z" fill="white"/>
<path fill-rule="evenodd" clip-rule="evenodd" d="M28.3078 28.2781C27.6373 28.9486 26.5502 28.9486 25.8797 28.2781L13.7392 16.1376C13.0687 15.4671 13.0687 14.38 13.7392 13.7095C14.4097 13.039 15.4968 13.039 16.1673 13.7095L28.3078 25.85C28.9783 26.5205 28.9783 27.6076 28.3078 28.2781Z" fill="white"/>
</svg>
