<?xml version="1.0" encoding="UTF-8"?>
<svg width="24px" height="24px" viewBox="0 0 24 24" version="1.1" xmlns="http://www.w3.org/2000/svg" xmlns:xlink="http://www.w3.org/1999/xlink">
    <title>Coby</title>
    <defs>
        <path d="M12.33,3 C13.8,3 15,4.2 15,5.67 L15,5.67 L15,9 L18,9 C19.5910714,9 20.9031888,10.2552934 20.994882,11.8244101 L21,12 L21,18 C21,19.5910714 19.7447066,20.9031888 18.1755899,20.994882 L18,21 L12,21 C10.4089286,21 9.09681122,19.7447066 9.00511798,18.1755899 L9,18 L9,15 L5.67,15 C4.25653846,15 3.0927071,13.8905325 3.00527253,12.4983642 L3,12.33 L3,5.67 C3,4.2 4.2,3 5.67,3 L5.67,3 Z M18,11 L12,11 C11.45,11 11,11.45 11,12 L11,18 C11,18.55 11.45,19 12,19 L18,19 C18.55,19 19,18.55 19,18 L19,12 C19,11.45 18.55,11 18,11 Z M12.4290008,5.00726521 L12.33,5 L5.67,5 C5.3,5 5,5.3 5,5.67 L5,5.67 L5,12.33 C5,12.7 5.3,13 5.67,13 L5.67,13 L9,13 L9,12 C9,10.4089286 10.2552934,9.09681122 11.8244101,9.00511798 L12,9 L13,9 L13,5.67 C13,5.33363636 12.7520661,5.05512397 12.4290008,5.00726521 Z" id="path-1"></path>
    </defs>
    <g id="页面-1" stroke="none" stroke-width="1" fill="none" fill-rule="evenodd">
        <g id="(B)Payment" transform="translate(-718.000000, -822.000000)">
            <g id="icon/general/24x24/outline/copy" transform="translate(718.000000, 822.000000)">
                <rect id="路径" x="0" y="0" width="24" height="24"></rect>
                <path d="M12.33,3 C13.8,3 15,4.2 15,5.67 L15,5.67 L15,9 L18,9 C19.5910714,9 20.9031888,10.2552934 20.994882,11.8244101 L21,12 L21,18 C21,19.5910714 19.7447066,20.9031888 18.1755899,20.994882 L18,21 L12,21 C10.4089286,21 9.09681122,19.7447066 9.00511798,18.1755899 L9,18 L9,15 L5.67,15 C4.25653846,15 3.0927071,13.8905325 3.00527253,12.4983642 L3,12.33 L3,5.67 C3,4.2 4.2,3 5.67,3 L5.67,3 Z M18,11 L12,11 C11.45,11 11,11.45 11,12 L11,18 C11,18.55 11.45,19 12,19 L18,19 C18.55,19 19,18.55 19,18 L19,12 C19,11.45 18.55,11 18,11 Z M12.4290008,5.00726521 L12.33,5 L5.67,5 C5.3,5 5,5.3 5,5.67 L5,5.67 L5,12.33 C5,12.7 5.3,13 5.67,13 L5.67,13 L9,13 L9,12 C9,10.4089286 10.2552934,9.09681122 11.8244101,9.00511798 L12,9 L13,9 L13,5.67 C13,5.33363636 12.7520661,5.05512397 12.4290008,5.00726521 Z" id="-Icon-Сolor" fill="#E2B578"></path>
                <mask id="mask-2" fill="white">
                    <use xlink:href="#path-1"></use>
                </mask>
                <use id="-Icon-Сolor" fill="#0D1C2E" xlink:href="#path-1"></use>
            </g>
        </g>
    </g>
</svg>