<?xml version="1.0" encoding="UTF-8"?>
<svg width="18px" height="18px" viewBox="0 0 18 18" version="1.1" xmlns="http://www.w3.org/2000/svg" xmlns:xlink="http://www.w3.org/1999/xlink">
    <title>cpu iCON</title>
    <g id="页面-1" stroke="none" stroke-width="1" fill="none" fill-rule="evenodd">
        <g id="(B)Miwaspace-Node" transform="translate(-428.000000, -928.000000)" fill="#E2B578" fill-rule="nonzero">
            <g id="Recommended-Resource" transform="translate(328.000000, 906.000000)">
                <g id="cpu-iCON" transform="translate(100.000000, 22.000000)">
                    <path d="M13.5,15.75 L4.5,15.75 C3.22500001,15.75 2.25,14.775 2.25,13.5 L2.25,4.5 C2.25,3.22500001 3.22500001,2.25 4.5,2.25 L13.5,2.25 C14.775,2.25 15.75,3.22500001 15.75,4.5 L15.75,13.5 C15.75,14.775 14.775,15.75 13.5,15.75 Z M4.5,3.74999999 C4.05,3.74999999 3.74999999,4.05 3.74999999,4.5 L3.74999999,13.5 C3.74999999,13.95 4.05,14.25 4.5,14.25 L13.5,14.25 C13.95,14.25 14.25,13.95 14.25,13.5 L14.25,4.5 C14.25,4.05 13.95,3.74999999 13.5,3.74999999 L4.5,3.74999999 Z" id="形状"></path>
                    <path d="M11.25,12 L6.75,12 C6.3,12 5.99999999,11.7 5.99999999,11.25 L5.99999999,6.75 C5.99999999,6.3 6.3,5.99999999 6.75,5.99999999 L11.25,5.99999999 C11.7,5.99999999 12,6.3 12,6.75 L12,11.25 C12,11.7 11.7,12 11.25,12 Z M7.50000001,10.5 L10.5,10.5 L10.5,7.50000001 L7.50000001,7.50000001 L7.50000001,10.5 Z M6.75,3.74999999 C6.3,3.74999999 5.99999999,3.44999999 5.99999999,3 L5.99999999,0.750000006 C5.99999999,0.300000006 6.3,0 6.75,0 C7.2,0 7.49999999,0.300000006 7.49999999,0.750000006 L7.49999999,3 C7.49999999,3.45000001 7.2,3.74999999 6.75,3.74999999 Z M11.25,3.74999999 C10.8,3.74999999 10.5,3.44999999 10.5,3 L10.5,0.750000006 C10.5,0.300000006 10.8,0 11.25,0 C11.7,0 12,0.300000006 12,0.750000006 L12,3 C12,3.45000001 11.7,3.74999999 11.25,3.74999999 Z M6.75,18 C6.3,18 5.99999999,17.7 5.99999999,17.25 L5.99999999,15 C5.99999999,14.55 6.3,14.25 6.75,14.25 C7.2,14.25 7.49999999,14.55 7.49999999,15 L7.49999999,17.25 C7.49999999,17.7 7.2,18 6.75,18 Z M11.25,18 C10.8,18 10.5,17.7 10.5,17.25 L10.5,15 C10.5,14.55 10.8,14.25 11.25,14.25 C11.7,14.25 12,14.55 12,15 L12,17.25 C12,17.7 11.7,18 11.25,18 Z M17.25,7.49999999 L15,7.49999999 C14.55,7.49999999 14.25,7.2 14.25,6.75 C14.25,6.3 14.55,5.99999999 15,5.99999999 L17.25,5.99999999 C17.7,5.99999999 18,6.3 18,6.75 C18,7.2 17.7,7.49999999 17.25,7.49999999 Z M17.25,11.25 L15,11.25 C14.55,11.25 14.25,10.95 14.25,10.5 C14.25,10.05 14.55,9.75000001 15,9.75000001 L17.25,9.75000001 C17.7,9.75000001 18,10.05 18,10.5 C18,10.95 17.7,11.25 17.25,11.25 Z M3,7.49999999 L0.750000006,7.49999999 C0.300000006,7.49999999 0,7.2 0,6.75 C0,6.3 0.300000006,5.99999999 0.750000006,5.99999999 L3,5.99999999 C3.45000001,5.99999999 3.74999999,6.3 3.74999999,6.75 C3.74999999,7.2 3.44999999,7.49999999 3,7.49999999 Z M3,11.25 L0.750000006,11.25 C0.300000006,11.25 0,10.95 0,10.5 C0,10.05 0.300000006,9.75000001 0.750000006,9.75000001 L3,9.75000001 C3.45000001,9.75000001 3.74999999,10.05 3.74999999,10.5 C3.74999999,10.95 3.44999999,11.25 3,11.25 Z" id="形状"></path>
                </g>
            </g>
        </g>
    </g>
</svg>