<?xml version="1.0" encoding="UTF-8"?>
<svg width="28px" height="28px" viewBox="0 0 28 28" version="1.1" xmlns="http://www.w3.org/2000/svg" xmlns:xlink="http://www.w3.org/1999/xlink">
    <title>Dashboard iCON</title>
    <g id="Dashboard-iCON" stroke="none" stroke-width="1" fill="none" fill-rule="evenodd">
        <g id="Dashboard" transform="translate(0.316958, 0.033901)" fill-rule="nonzero">
            <path d="M26.7189162,20.4193816 L14.3385971,27.6567487 C14.0127992,27.8487367 13.6171875,27.8487367 13.2913896,27.6625665 L0.62599734,20.4019282 C-0.0837765957,19.9946809 -0.0721409574,18.9707447 0.643450798,18.575133 L13.0237699,11.785738 C13.3321144,11.6170213 13.7102726,11.6112035 14.0244348,11.7799202 L26.6898271,18.5867686 C27.4054189,18.9765625 27.4228723,20.0063165 26.7189162,20.4193816 L26.7189162,20.4193816 Z" id="路径" fill="#65533D"></path>
            <path d="M26.7189162,14.6597407 L14.3385971,21.8971077 C14.0127992,22.0890957 13.6171875,22.0890957 13.2913896,21.9029255 L0.62599734,14.6422872 C-0.0837765957,14.2350399 -0.0721409574,13.2111037 0.643450798,12.815492 L13.0237699,6.02609707 C13.3321144,5.85738032 13.7102726,5.8515625 14.0244348,6.02027926 L26.6898271,12.8271277 C27.4054189,13.2169215 27.4228723,14.2466755 26.7189162,14.6597407 L26.7189162,14.6597407 Z" id="路径" fill="#E2B578"></path>
            <path d="M26.7189162,8.90009973 L14.3385971,16.1374668 C14.0127992,16.3294548 13.6171875,16.3294548 13.2913896,16.1432846 L0.62599734,8.88264628 C-0.0837765957,8.47539894 -0.0721409574,7.45146277 0.643450798,7.05585106 L13.0237699,0.266456117 C13.3321144,0.0977393617 13.7102726,0.0919215426 14.0244348,0.260638298 L26.6898271,7.0674867 C27.4054189,7.45728059 27.4228723,8.48703457 26.7189162,8.90009973 L26.7189162,8.90009973 Z" id="路径" fill="#FBE5C3"></path>
        </g>
    </g>
</svg>