<?xml version="1.0" encoding="UTF-8"?>
<svg width="200px" height="200px" viewBox="0 0 200 200" version="1.1" xmlns="http://www.w3.org/2000/svg" xmlns:xlink="http://www.w3.org/1999/xlink">
    <title>Deploy</title>
    <g id="iCON" stroke="none" stroke-width="1" fill="none" fill-rule="evenodd">
        <path d="M185.75,85.75 C193.620058,85.75 200,92.1159818 200,99.9688184 L200,185.531182 C200,193.384018 193.620058,199.75 185.75,199.75 L14.25,199.75 C6.37994231,199.75 0,193.384018 0,185.531182 L0,99.9688184 C0,92.1159818 6.37994231,85.75 14.25,85.75 L185.75,85.75 Z M71.375,107.125 C67.549372,107.19041 64.4484283,110.213015 64.2581701,114.006816 L64.25,114.25 L64.25,171.375 C63.8807175,174.169156 65.1642505,176.924104 67.5410562,178.438855 C69.917862,179.953605 72.957138,179.953605 75.3339438,178.438855 C77.6340784,176.972967 78.9103363,174.345604 78.6555961,171.645239 L78.625,171.375 L78.625,114.25 C78.5567974,110.294835 75.3307525,107.125 71.375,107.125 Z M128.625,107.125 C124.749977,107.125 121.575182,110.166775 121.383101,114.008849 L121.375,114.25 L121.375,171.375 C121.005717,174.169156 122.28925,176.924104 124.666056,178.438855 C127.042862,179.953605 130.082138,179.953605 132.458944,178.438855 C134.759078,176.972967 136.035336,174.345604 135.780596,171.645239 L135.75,171.375 L135.75,114.25 C135.683199,110.342976 132.532024,107.191801 128.625,107.125 Z M42.875,107.125 C39.0202779,107.125 35.8805132,110.186097 35.753965,114.010032 L35.75,114.25 L35.75,171.375 C35.7164644,173.286232 36.4523011,175.130782 37.7921499,176.494137 C39.1319986,177.857492 40.9634741,178.625 42.875,178.625 C46.7494469,178.558189 49.8708561,175.461113 49.9960942,171.616257 L50,171.375 L50,114.25 C49.9331987,110.342976 46.7820243,107.191801 42.875,107.125 Z M157.125,107.125 C153.299372,107.19041 150.198428,110.213015 150.00817,114.006816 L150,114.25 L150,171.375 C149.999412,175.330753 153.169835,178.556797 157.125,178.625 C159.036526,178.625 160.868001,177.857492 162.20785,176.494137 C163.477181,175.202538 164.204406,173.479062 164.248926,171.676159 L164.25,171.375 L164.25,114.25 C164.25,110.314971 161.060029,107.125 157.125,107.125 Z M100,107.125 C96.1452779,107.125 93.0055132,110.186097 92.878965,114.010032 L92.875,114.25 L92.875,171.375 C92.875,173.920517 94.2330172,176.272673 96.4374999,177.545431 C98.6419826,178.81819 101.358017,178.81819 103.5625,177.545431 C105.688251,176.318128 107.026919,174.087152 107.119827,171.646954 L107.125,171.375 L107.125,114.25 C107.125,110.314971 103.935029,107.125 100,107.125 Z M185.75,0.375 C193.620058,0.375 200,6.72142248 200,14.5501313 L200,57.1998687 C200,65.0285775 193.620058,71.375 185.75,71.375 L14.25,71.375 C6.37994231,71.375 0,65.0285775 0,57.1998687 L0,14.5501313 C0,6.72142248 6.37994231,0.375 14.25,0.375 L185.75,0.375 Z M164.25,21.3749999 L150,21.3749999 C148.088474,21.3747058 146.256999,22.1425079 144.91715,23.5058628 C143.647819,24.7974621 142.920594,26.520938 142.876074,28.3238411 L142.875,28.625 L142.875,42.8749999 C142.875,46.7297221 145.936097,49.8694868 149.760032,49.996035 L150,50 L164.25,50 C166.139667,50 167.951939,49.2493325 169.288136,47.9131358 C170.554006,46.6472653 171.29436,44.9541142 171.368786,43.1726672 L171.375,42.8749999 L171.375,28.625 C171.408536,26.7137683 170.672699,24.8692177 169.33285,23.5058628 C167.993001,22.1425079 166.161526,21.3747058 164.25,21.3749999 Z" id="Deploy" fill="currentColor" fill-rule="nonzero"></path>
    </g>
</svg>