<?xml version="1.0" encoding="UTF-8"?>
<svg width="200px" height="200px" viewBox="0 0 200 200" version="1.1" xmlns="http://www.w3.org/2000/svg" xmlns:xlink="http://www.w3.org/1999/xlink">
    <title>Running-1</title>
    <g id="Running-1" stroke="none" stroke-width="1" fill="none" fill-rule="evenodd">
        <g id="编组-6" fill-rule="nonzero">
            <circle id="椭圆形备份-3" fill="#1890FF" cx="100" cy="100" r="100"></circle>
            <g id="形状-2" transform="translate(26.000000, 59.000000)" fill="#FFFFFF">
                <path d="M34.4007668,30.6032011 C37.496041,30.6509124 40.4205983,32.0353448 42.4258586,34.4021341 C46.2815973,38.7283689 46.2815973,45.2716311 42.4258586,49.5978659 C40.3387074,51.795792 37.4253521,53.0094261 34.4007668,52.9409269 C31.3761815,53.0094261 28.4628262,51.795792 26.375675,49.5978659 C22.5199363,45.2716311 22.5199363,38.7283689 26.375675,34.4021341 C28.3809353,32.0353448 31.3054926,30.6509124 34.4007668,30.6032011 L34.4007668,30.6032011 Z M8.12903226,33.4193548 C10.4338618,33.4540763 12.6115706,34.4615835 14.1047447,36.1839914 C16.9758378,39.3323668 16.9758378,44.0941623 14.1047447,47.2425376 C12.5505923,48.842057 10.3812248,49.7252673 8.12903226,49.6754178 C5.87683973,49.7252673 3.7074722,48.842057 2.15331982,47.2425376 C-0.717773274,44.0941623 -0.717773274,39.3323668 2.15331982,36.1839914 C3.64649391,34.4615835 5.82420275,33.4540763 8.12903226,33.4193548 L8.12903226,33.4193548 Z M67.9113616,26.8040138 C75.1325214,26.8461668 81.3193124,31.999784 82.6901659,39.1150606 C84.0610194,46.2303373 80.2344033,53.3269692 73.5492703,56.0672634 C66.8641372,58.8075576 59.181075,56.4288429 55.196222,50.3850674 C51.211369,44.3412919 52.0337785,36.3145425 57.160767,31.2110304 C60.0182876,28.3665943 63.8866572,26.780916 67.9113616,26.8040138 L67.9113616,26.8040138 Z M144.575752,34.4021341 C146.826806,36.2786746 148.129032,39.0631839 148.129032,42 C148.129032,44.9368161 146.826806,47.7213254 144.575752,49.5978659 L106.267295,81.6608602 C103.333908,84.153338 99.223122,84.7040635 95.7409688,83.0710808 C92.2588156,81.4380981 90.042483,77.9202213 90.0655139,74.0629943 L90.0655139,9.93700574 C90.042483,6.07977874 92.2588156,2.56190193 95.7409688,0.928919233 C99.223122,-0.704063469 103.333908,-0.153338046 106.267295,2.33913981 L144.575752,34.4021341 Z" id="形状"></path>
            </g>
        </g>
    </g>
</svg>