<?xml version="1.0" encoding="UTF-8"?>
<svg width="24px" height="24px" viewBox="0 0 24 24" version="1.1" xmlns="http://www.w3.org/2000/svg" xmlns:xlink="http://www.w3.org/1999/xlink">
    <title>Developer iCON</title>
    <g id="页面-1" stroke="none" stroke-width="1" fill="none" fill-rule="evenodd">
        <g id="(B)Miwaspace-Node" transform="translate(-1201.000000, -920.000000)">
            <g id="编组-3备份" transform="translate(1171.000000, 524.000000)">
                <g id="Developer-iCON" transform="translate(30.000000, 396.000000)">
                    <polygon id="路径" points="0 0 24 0 24 24 0 24"></polygon>
                    <path d="M7,7 C7,9.209139 8.790861,11 11,11 C13.209139,11 15,9.209139 15,7 C15,4.790861 13.209139,3 11,3 C8.790861,3 7,4.790861 7,7" id="路径" stroke="#E2B578" stroke-width="2" stroke-linecap="round" stroke-linejoin="round"></path>
                    <path d="M5,21 L5,19 C5,16.790861 6.790861,15 9,15 L9.5,15" id="路径" stroke="#E2B578" stroke-width="2" stroke-linecap="round" stroke-linejoin="round"></path>
                    <path d="M17,22 L20.35,18.716 C20.7650327,18.3132597 20.9996721,17.7598726 21.0006165,17.1815552 C21.0015553,16.6032379 20.768719,16.0490896 20.355,15.645 C19.4860476,14.7951905 18.0982051,14.7925293 17.226,15.639 L17.002,15.859 L16.779,15.639 C15.9101714,14.7898395 14.5230798,14.7871788 13.651,15.633 C13.2358356,16.0356052 13.0010157,16.5889163 12.9998817,17.1672337 C12.9987559,17.7455512 13.231412,18.2997757 13.645,18.704 L17,22 L17,22 Z" id="路径" stroke="#E2B578" stroke-width="2" stroke-linecap="round" stroke-linejoin="round"></path>
                </g>
            </g>
        </g>
    </g>
</svg>