<?xml version="1.0" encoding="UTF-8"?>
<svg width="15px" height="15px" viewBox="0 0 15 15" version="1.1" xmlns="http://www.w3.org/2000/svg" xmlns:xlink="http://www.w3.org/1999/xlink">
    <title>Disk iCON</title>
    <g id="页面-1" stroke="none" stroke-width="1" fill="none" fill-rule="evenodd">
        <g id="(B)Miwaspace-Node" transform="translate(-954.000000, -930.000000)" fill="#E2B578" fill-rule="nonzero">
            <g id="Recommended-Resource" transform="translate(328.000000, 906.000000)">
                <g id="Disk-iCON" transform="translate(626.000000, 24.000000)">
                    <path d="M8.96610014,10.5994152 C8.66331245,10.5994152 8.41785453,10.8448731 8.41785453,11.1476608 C8.41785453,11.4504485 8.66331245,11.6959064 8.96610014,11.6959064 L11.8900768,11.6959064 C12.1928644,11.6959064 12.4383224,11.4504485 12.4383224,11.1476608 C12.4383224,10.8448731 12.1928644,10.5994152 11.8900768,10.5994152 L8.96610014,10.5994152 Z M8.96610014,2.55847953 C8.66331245,2.55847953 8.41785453,2.80393745 8.41785453,3.10672514 C8.41785453,3.40951283 8.66331245,3.65497075 8.96610014,3.65497075 L11.8900768,3.65497075 C12.1928644,3.65497075 12.4383224,3.40951283 12.4383224,3.10672514 C12.4383224,2.80393745 12.1928644,2.55847953 11.8900768,2.55847953 L8.96610014,2.55847953 Z M6.40762061,11.1476608 C6.40762061,11.5513777 6.08034338,11.878655 5.67662646,11.878655 C5.27290954,11.878655 4.94563232,11.5513777 4.94563232,11.1476608 C4.94563232,10.7439439 5.27290954,10.4166667 5.67662646,10.4166667 C6.08034338,10.4166667 6.40762061,10.7439439 6.40762061,11.1476608 L6.40762061,11.1476608 Z M6.40762061,3.10672514 C6.40762061,3.30059685 6.33060538,3.48652807 6.19351738,3.62361607 C6.05642939,3.76070406 5.87049816,3.8377193 5.67662646,3.8377193 C5.27290954,3.8377193 4.94563232,3.51044206 4.94563232,3.10672514 C4.94563232,2.70300823 5.27290954,2.375731 5.67662646,2.375731 C6.08034338,2.375731 6.40762061,2.70300822 6.40762061,3.10672514 Z M3.483644,11.1476608 C3.483644,11.5513777 3.15636677,11.878655 2.75264986,11.878655 C2.34893294,11.878655 2.0216557,11.5513777 2.0216557,11.1476608 C2.0216557,10.7439439 2.34893293,10.4166667 2.75264986,10.4166667 C3.15636678,10.4166667 3.483644,10.7439439 3.483644,11.1476608 L3.483644,11.1476608 Z M3.483644,3.10672514 C3.483644,3.51044206 3.15636678,3.8377193 2.75264986,3.8377193 C2.34893293,3.8377193 2.0216557,3.51044207 2.0216557,3.10672514 C2.0216557,2.70300822 2.34893294,2.375731 2.75264986,2.375731 C3.15636677,2.375731 3.483644,2.70300823 3.483644,3.10672514 L3.483644,3.10672514 Z M1.65615863,0 C0.754477333,0 0.0114217893,0.743055561 0.0114217893,1.64473684 L0.0114217893,4.56871346 C0.0114217893,5.47039474 0.754477351,6.2134503 1.65615863,6.2134503 L13.3520651,6.2134503 C14.2537463,6.2134503 14.9968019,5.47039474 14.9968019,4.56871346 L14.9968019,1.64473684 C14.9968019,0.743055561 14.2537463,0 13.3520651,0 L1.65615863,0 Z M1.65615863,1.09649123 L13.3520651,1.09649123 C13.6652961,1.09649123 13.9003107,1.33150584 13.9003107,1.64473684 L13.9003107,4.56871346 C13.9003107,4.88194446 13.6652961,5.11695907 13.3520651,5.11695907 L1.65615863,5.11695907 C1.34292763,5.11695907 1.10791302,4.88194446 1.10791302,4.56871346 L1.10791302,1.64473684 C1.10791302,1.33150584 1.34292763,1.09649123 1.65615863,1.09649123 Z M1.65615863,8.04093567 C0.754477351,8.04093567 0.0114217893,8.78399123 0.0114217893,9.68567251 L0.0114217893,12.6096491 C0.0114217893,13.5113304 0.754477351,14.254386 1.65615863,14.254386 L13.3520651,14.254386 C14.2537463,14.254386 14.9968019,13.5113304 14.9968019,12.6096491 L14.9968019,9.68567251 C14.9968019,8.78399123 14.2537463,8.04093567 13.3520651,8.04093567 L1.65615863,8.04093567 Z M1.65615863,9.13742689 L13.3520651,9.13742689 C13.6652961,9.13742689 13.9003107,9.37244151 13.9003107,9.68567251 L13.9003107,12.6096491 C13.9003107,12.9228801 13.6652961,13.1578947 13.3520651,13.1578947 L1.65615863,13.1578947 C1.34292763,13.1578947 1.10791302,12.9228801 1.10791302,12.6096491 L1.10791302,9.68567251 C1.10791302,9.37244151 1.34292763,9.13742689 1.65615863,9.13742689 Z" id="形状"></path>
                </g>
            </g>
        </g>
    </g>
</svg>