<svg width="32" height="33" viewBox="0 0 32 33" fill="none" xmlns="http://www.w3.org/2000/svg">
<path d="M5 5H22.1096V27.0602H5V5Z" fill="#E2B578"/>
<path d="M26 23C26 24.1867 25.6481 25.3467 24.9888 26.3334C24.3295 27.3201 23.3925 28.0892 22.2961 28.5433C21.1997 28.9974 19.9933 29.1162 18.8295 28.8847C17.6656 28.6532 16.5965 28.0818 15.7574 27.2426C14.9182 26.4035 14.3468 25.3344 14.1153 24.1705C13.8838 23.0067 14.0026 21.8003 14.4567 20.7039C14.9108 19.6075 15.6799 18.6705 16.6666 18.0112C17.6533 17.3519 18.8133 17 20 17V23H26Z" fill="#FBE5C3"/>
<path d="M21 16C21.7879 16 22.5681 16.1552 23.2961 16.4567C24.0241 16.7583 24.6855 17.2002 25.2426 17.7574C25.7998 18.3145 26.2417 18.9759 26.5433 19.7039C26.8448 20.4319 27 21.2121 27 22L21 22V16Z" fill="#65533D"/>
<rect x="6.62451" y="9.14844" width="4" height="2" fill="#65533D"/>
<rect x="6.62451" y="13.3438" width="8" height="2" fill="#65533D"/>
</svg>
