<?xml version="1.0" encoding="UTF-8"?>
<svg width="19px" height="18px" viewBox="0 0 19 18" version="1.1" xmlns="http://www.w3.org/2000/svg" xmlns:xlink="http://www.w3.org/1999/xlink">
    <title>icon/general/24x24/outline/external-link@1x</title>
    <g id="页面-1" stroke="none" stroke-width="1" fill="none" fill-rule="evenodd">
        <g id="(B)Check-Detail-2-MetaTrust-(SA)(EVM)-展开备份" transform="translate(-1824.000000, -808.000000)" fill="#E2B578">
            <g id="icon/general/24x24/outline/external-link" transform="translate(1824.000000, 808.000000)">
                <path d="M9.92875,0 C10.47875,0 10.92875,0.45 10.92875,1 C10.92875,1.55 10.47875,2 9.92875,2 L9.92875,2 L3.92875,2 C3.37875,2 2.92875,2.45 2.92875,3 L2.92875,3 L2.92875,15 C2.92875,15.55 3.37875,16 3.92875,16 L3.92875,16 L15.92875,16 C16.47875,16 16.92875,15.55 16.92875,15 L16.92875,15 L16.92875,9 C16.92875,8.45 17.37875,8 17.92875,8 C18.47875,8 18.92875,8.45 18.92875,9 L18.92875,9 L18.92875,15 C18.92875,16.65 17.57875,18 15.92875,18 L15.92875,18 L3.92875,18 C2.27875,18 0.92875,16.65 0.92875,15 L0.92875,15 L0.92875,3 C0.92875,1.35 2.27875,0 3.92875,0 L3.92875,0 Z M13.74875,0 L17.73875,0.02 C18.28875,0.02 18.73875,0.47 18.73875,1.02 L18.73875,1.02 L18.73875,5 C18.73875,5.55 18.28875,6 17.73875,6 C17.18875,6 16.73875,5.55 16.73875,5 L16.73875,5 L16.73875,3.42 L10.44875,9.71 C10.24875,9.9 9.99875,10 9.73875,10 C9.47875,10 9.22875,9.9 9.02875,9.71 C8.63875,9.32 8.63875,8.68 9.02875,8.29 L9.02875,8.29 L15.31875,2.01 L13.73875,2 C13.17875,2 12.73875,1.55 12.73875,1 C12.73875,0.44 13.18875,0 13.73875,0 L13.73875,0 L13.74875,0 Z" id="-Icon-Сolor"></path>
            </g>
        </g>
    </g>
</svg>