<svg width="26" height="26" viewBox="0 0 26 26" fill="none" xmlns="http://www.w3.org/2000/svg">
<path fill-rule="evenodd" clip-rule="evenodd" d="M10.2295 8.38252C9.71948 7.87249 8.89256 7.87249 8.38252 8.38252C7.87249 8.89256 7.87249 9.71948 8.38252 10.2295L11.153 13L8.38253 15.7705C7.87249 16.2805 7.87249 17.1074 8.38252 17.6175C8.89256 18.1275 9.71948 18.1275 10.2295 17.6175L13 14.847L15.7705 17.6175C16.2805 18.1275 17.1074 18.1275 17.6175 17.6175C18.1275 17.1074 18.1275 16.2805 17.6175 15.7705L14.847 13L17.6175 10.2295C18.1275 9.71948 18.1275 8.89256 17.6175 8.38252C17.1074 7.87249 16.2805 7.87249 15.7705 8.38252L13 11.153L10.2295 8.38252Z" fill="#F52222"/>
</svg>
