<?xml version="1.0" encoding="UTF-8"?>
<svg width="28px" height="28px" viewBox="0 0 28 28" version="1.1" xmlns="http://www.w3.org/2000/svg" xmlns:xlink="http://www.w3.org/1999/xlink">
    <title>Graph iCON</title>
    <defs>
        <linearGradient x1="50%" y1="0%" x2="50%" y2="100%" id="linearGradient-1">
            <stop stop-color="#FBE5C3" offset="0%"></stop>
            <stop stop-color="#FBE5C3" offset="100%"></stop>
        </linearGradient>
    </defs>
    <g id="Graph-iCON" stroke="none" stroke-width="1" fill="none" fill-rule="evenodd">
        <g id="Graph" transform="translate(0.466882, 0.515263)" fill-rule="nonzero">
            <path d="M24.1503906,14.4921875 L13.1445313,14.4921875 C12.7604167,14.4921875 12.4479167,14.1796875 12.4479167,13.7955729 L12.4479167,2.06705729 C5.4296875,2.06705729 -0.231119792,7.890625 0.0358072917,14.9739583 C0.276692708,21.3704427 5.56966146,26.6601562 11.9628906,26.9042969 C18.7988281,27.1614583 24.4661458,21.8945312 24.8502604,15.218099 C24.8730469,14.8209635 24.5442708,14.4921875 24.1503906,14.4921875 Z" id="路径" fill="url(#linearGradient-1)"></path>
            <path d="M24.1503906,14.4921875 L13.1445312,14.4921875 C12.7604167,14.4921875 23.6218405,19.9258989 23.6419659,19.884238 C24.3305429,18.4588454 24.7545143,16.8822967 24.8502604,15.218099 C24.8730469,14.8209635 24.5442708,14.4921875 24.1503906,14.4921875 Z" id="路径" fill="#65533D"></path>
            <path d="M15.2115885,0.0162760417 C14.8372396,-0.00325520833 14.5214844,0.309244792 14.5214844,0.686848958 L14.5214844,11.7578125 C14.5214844,12.125651 14.8209635,12.421875 15.1855469,12.421875 L26.25,12.421875 C26.6276042,12.421875 26.9401042,12.109375 26.9205729,11.7317708 C26.578776,5.41666667 21.5234375,0.361328125 15.2115885,0.0162760417 Z" id="路径" fill="#E2B578"></path>
        </g>
    </g>
</svg>