<?xml version="1.0" encoding="UTF-8"?>
<svg width="20px" height="19px" viewBox="0 0 20 19" version="1.1" xmlns="http://www.w3.org/2000/svg" xmlns:xlink="http://www.w3.org/1999/xlink">
    <title>Bitbucket Logo</title>
    <defs>
        <linearGradient x1="97.5261587%" y1="36.526664%" x2="46.9265964%" y2="65.8174868%" id="linearGradient-1">
            <stop stop-color="#808080" offset="0%"></stop>
            <stop stop-color="#FFFFFF" offset="100%"></stop>
        </linearGradient>
    </defs>
    <g id="页面-1" stroke="none" stroke-width="1" fill="none" fill-rule="evenodd">
        <g id="(W)CreatProject_Contract(existing-repository)备份-3" transform="translate(-854.000000, -786.000000)" fill-rule="nonzero">
            <g id="Bitbucket-Logo" transform="translate(854.000000, 786.033247)">
                <path d="M0.943199281,0.0785475421 C0.757440754,0.0762041118 0.580130157,0.156071986 0.458830967,0.296779047 C0.337531777,0.437486107 0.284660475,0.624629236 0.31439976,0.808007384 L2.98365373,17.012171 C3.05230294,17.4214866 3.40493885,17.7224203 3.81995709,17.7259113 L16.6254593,17.7259113 C16.9369621,17.7298677 17.2044401,17.5051862 17.2542588,17.1976669 L19.9298008,0.814295379 C19.9595401,0.630917231 19.9066688,0.443774102 19.7853696,0.303067042 C19.6640704,0.162359981 19.4867598,0.082492107 19.3010013,0.0848879353 L0.943199281,0.0785475421 Z M12.1829907,11.789991 L8.09579383,11.789991 L6.98910667,6.01132342 L13.17335,6.01132342 L12.1829907,11.789991 Z" id="形状" fill="#FFFFFF"></path>
                <path d="M19.0746335,6.01132342 L13.17335,6.01132342 L12.1829907,11.789991 L8.09579383,11.789991 L3.26975751,17.5214986 C3.42272153,17.6537674 3.61774385,17.7273187 3.81995709,17.7290553 L16.6286033,17.7290553 C16.9401061,17.7330117 17.2075841,17.5083302 17.2574028,17.2008109 L19.0746335,6.01132342 Z" id="路径" fill="url(#linearGradient-1)"></path>
            </g>
        </g>
    </g>
</svg>