<?xml version="1.0" encoding="UTF-8"?>
<svg width="29px" height="29px" viewBox="0 0 29 29" version="1.1" xmlns="http://www.w3.org/2000/svg" xmlns:xlink="http://www.w3.org/1999/xlink">
    <title>Marketplace</title>
    <g id="Page-1" stroke="none" stroke-width="1" fill="none" fill-rule="evenodd">
        <g id="(B)Marketplace" transform="translate(-147.000000, -213.000000)" fill="#7C7C7C" fill-rule="nonzero">
            <g id="Group-4" transform="translate(91.000000, 82.000000)">
                <g id="编组-2" transform="translate(0.000000, 52.000000)">
                    <path d="M66.1400086,92.8455642 L58.0251292,92.8455642 C56.904845,92.8455642 56,91.9407192 56,90.820435 L56,82.7055556 C56,81.5852713 56.904845,80.6804264 58.0251292,80.6804264 L66.1400086,80.6804264 C67.2602929,80.6804264 68.1651378,81.5852713 68.1651378,82.7055556 L68.1651378,90.820435 C68.1651378,91.9407192 67.2602929,92.8455642 66.1400086,92.8455642 Z M58.0251292,82.0305125 C57.6517011,82.0305125 57.3500861,82.3321275 57.3500861,82.7055556 L57.3500861,90.820435 C57.3500861,91.193863 57.6517011,91.495478 58.0251292,91.495478 L66.1400086,91.495478 C66.5134367,91.495478 66.8150517,91.193863 66.8150517,90.820435 L66.8150517,82.7055556 C66.8150517,82.3321275 66.5134367,82.0305125 66.1400086,82.0305125 L58.0251292,82.0305125 Z M84.1363695,88.2064384 L78.3913221,93.9371232 C77.6013781,94.7270672 76.3231051,94.7270672 75.5187984,93.9371232 L69.7881137,88.2064384 C68.9981697,87.4164944 68.9981697,86.1382214 69.7881137,85.3339147 L75.5187984,79.60323 C76.3087425,78.813286 77.5870155,78.813286 78.3913221,79.60323 L84.1220069,85.3339147 C84.9263135,86.1238587 84.9263135,87.4021318 84.1363695,88.2064384 L84.1363695,88.2064384 Z M70.7504091,86.2818475 C70.4775194,86.5547373 70.4775194,86.9712532 70.7504091,87.244143 L76.4810939,92.9748277 C76.7539836,93.2477175 77.1704996,93.2477175 77.4433893,92.9748277 L83.1740741,87.244143 C83.4469638,86.9712532 83.4469638,86.5547373 83.1740741,86.2818475 L77.4433893,80.5511628 C77.1704996,80.278273 76.7539836,80.278273 76.4810939,80.5511628 L70.7504091,86.2818475 Z M66.1400086,107.725237 L58.0251292,107.725237 C56.904845,107.725237 56,106.820392 56,105.700108 L56,97.5852283 C56,96.464944 56.904845,95.5600991 58.0251292,95.5600991 L66.1400086,95.5600991 C67.2602929,95.5600991 68.1651378,96.464944 68.1651378,97.5852283 L68.1651378,105.700108 C68.1651378,106.820392 67.2602929,107.725237 66.1400086,107.725237 Z M58.0251292,96.9101852 C57.6517011,96.9101852 57.3500861,97.2118002 57.3500861,97.5852283 L57.3500861,105.700108 C57.3500861,106.073536 57.6517011,106.375151 58.0251292,106.375151 L66.1400086,106.375151 C66.5134367,106.375151 66.8150517,106.073536 66.8150517,105.700108 L66.8150517,97.5852283 C66.8150517,97.2118002 66.5134367,96.9101852 66.1400086,96.9101852 L58.0251292,96.9101852 Z M81.0196813,107.725237 L72.9048019,107.725237 C71.7845177,107.725237 70.8796727,106.820392 70.8796727,105.700108 L70.8796727,97.5852283 C70.8796727,96.464944 71.7845177,95.5600991 72.9048019,95.5600991 L81.0196813,95.5600991 C82.1399655,95.5600991 83.0448105,96.464944 83.0448105,97.5852283 L83.0448105,105.700108 C83.0448105,106.820392 82.1399655,107.725237 81.0196813,107.725237 Z M72.9048019,96.9101852 C72.5313738,96.9101852 72.2297588,97.2118002 72.2297588,97.5852283 L72.2297588,105.700108 C72.2297588,106.073536 72.5313738,106.375151 72.9048019,106.375151 L81.0196813,106.375151 C81.3931094,106.375151 81.6947244,106.073536 81.6947244,105.700108 L81.6947244,97.5852283 C81.6947244,97.2118002 81.3931094,96.9101852 81.0196813,96.9101852 L72.9048019,96.9101852 Z" id="Marketplace"></path>
                </g>
            </g>
        </g>
    </g>
</svg>