<?xml version="1.0" encoding="UTF-8"?>
<svg width="29px" height="29px" viewBox="0 0 29 29" version="1.1" xmlns="http://www.w3.org/2000/svg" xmlns:xlink="http://www.w3.org/1999/xlink">
    <title>(Y) Marketplace</title>
    <g id="Page-1" stroke="none" stroke-width="1" fill="none" fill-rule="evenodd">
        <g id="(B)Marketplace" transform="translate(-91.000000, -213.000000)" fill="#E2B578" fill-rule="nonzero">
            <g id="Group-4" transform="translate(91.000000, 82.000000)">
                <g id="编组-2" transform="translate(0.000000, 52.000000)">
                    <path d="M10.1400086,92.8455642 L2.0251292,92.8455642 C0.904844961,92.8455642 5.32907052e-14,91.9407192 5.32907052e-14,90.820435 L5.32907052e-14,82.7055556 C5.32907052e-14,81.5852713 0.904844961,80.6804264 2.0251292,80.6804264 L10.1400086,80.6804264 C11.2602929,80.6804264 12.1651378,81.5852713 12.1651378,82.7055556 L12.1651378,90.820435 C12.1651378,91.9407192 11.2602929,92.8455642 10.1400086,92.8455642 Z M2.0251292,82.0305125 C1.65170112,82.0305125 1.35008613,82.3321275 1.35008613,82.7055556 L1.35008613,90.820435 C1.35008613,91.193863 1.65170112,91.495478 2.0251292,91.495478 L10.1400086,91.495478 C10.5134367,91.495478 10.8150517,91.193863 10.8150517,90.820435 L10.8150517,82.7055556 C10.8150517,82.3321275 10.5134367,82.0305125 10.1400086,82.0305125 L2.0251292,82.0305125 Z M28.1363695,88.2064384 L22.3913221,93.9371232 C21.6013781,94.7270672 20.3231051,94.7270672 19.5187984,93.9371232 L13.7881137,88.2064384 C12.9981697,87.4164944 12.9981697,86.1382214 13.7881137,85.3339147 L19.5187984,79.60323 C20.3087425,78.813286 21.5870155,78.813286 22.3913221,79.60323 L28.1220069,85.3339147 C28.9263135,86.1238587 28.9263135,87.4021318 28.1363695,88.2064384 L28.1363695,88.2064384 Z M14.7504091,86.2818475 C14.4775194,86.5547373 14.4775194,86.9712532 14.7504091,87.244143 L20.4810939,92.9748277 C20.7539836,93.2477175 21.1704996,93.2477175 21.4433893,92.9748277 L27.1740741,87.244143 C27.4469638,86.9712532 27.4469638,86.5547373 27.1740741,86.2818475 L21.4433893,80.5511628 C21.1704996,80.278273 20.7539836,80.278273 20.4810939,80.5511628 L14.7504091,86.2818475 Z M10.1400086,107.725237 L2.0251292,107.725237 C0.904844961,107.725237 5.32907052e-14,106.820392 5.32907052e-14,105.700108 L5.32907052e-14,97.5852283 C5.32907052e-14,96.464944 0.904844961,95.5600991 2.0251292,95.5600991 L10.1400086,95.5600991 C11.2602929,95.5600991 12.1651378,96.464944 12.1651378,97.5852283 L12.1651378,105.700108 C12.1651378,106.820392 11.2602929,107.725237 10.1400086,107.725237 Z M2.0251292,96.9101852 C1.65170112,96.9101852 1.35008613,97.2118002 1.35008613,97.5852283 L1.35008613,105.700108 C1.35008613,106.073536 1.65170112,106.375151 2.0251292,106.375151 L10.1400086,106.375151 C10.5134367,106.375151 10.8150517,106.073536 10.8150517,105.700108 L10.8150517,97.5852283 C10.8150517,97.2118002 10.5134367,96.9101852 10.1400086,96.9101852 L2.0251292,96.9101852 Z M25.0196813,107.725237 L16.9048019,107.725237 C15.7845177,107.725237 14.8796727,106.820392 14.8796727,105.700108 L14.8796727,97.5852283 C14.8796727,96.464944 15.7845177,95.5600991 16.9048019,95.5600991 L25.0196813,95.5600991 C26.1399655,95.5600991 27.0448105,96.464944 27.0448105,97.5852283 L27.0448105,105.700108 C27.0448105,106.820392 26.1399655,107.725237 25.0196813,107.725237 Z M16.9048019,96.9101852 C16.5313738,96.9101852 16.2297588,97.2118002 16.2297588,97.5852283 L16.2297588,105.700108 C16.2297588,106.073536 16.5313738,106.375151 16.9048019,106.375151 L25.0196813,106.375151 C25.3931094,106.375151 25.6947244,106.073536 25.6947244,105.700108 L25.6947244,97.5852283 C25.6947244,97.2118002 25.3931094,96.9101852 25.0196813,96.9101852 L16.9048019,96.9101852 Z" id="(Y)-Marketplace"></path>
                </g>
            </g>
        </g>
    </g>
</svg>