<?xml version="1.0" encoding="UTF-8"?>
<svg width="29px" height="29px" viewBox="0 0 29 29" version="1.1" xmlns="http://www.w3.org/2000/svg" xmlns:xlink="http://www.w3.org/1999/xlink">
    <title>Marketplace</title>
    <defs>
        <filter id="filter-1">
            <feColorMatrix in="SourceGraphic" type="matrix" values="0 0 0 0 0.486275 0 0 0 0 0.486275 0 0 0 0 0.486275 0 0 0 1.000000 0"></feColorMatrix>
        </filter>
    </defs>
    <g id="Page-1" stroke="none" stroke-width="1" fill="none" fill-rule="evenodd">
        <g id="(B)Marketplace" transform="translate(-164.000000, -212.000000)">
            <g id="Group-4" transform="translate(164.000000, 82.000000)">
                <g id="Marketplace" transform="translate(0.000000, 52.000000)" filter="url(#filter-1)">
                    <g transform="translate(0.000000, 78.000000)">
                        <path d="M10.1400086,13.8455642 L2.0251292,13.8455642 C0.904844961,13.8455642 0,12.9407192 0,11.820435 L0,3.70555556 C0,2.58527132 0.904844961,1.68042636 2.0251292,1.68042636 L10.1400086,1.68042636 C11.2602929,1.68042636 12.1651378,2.58527132 12.1651378,3.70555556 L12.1651378,11.820435 C12.1651378,12.9407192 11.2602929,13.8455642 10.1400086,13.8455642 Z M2.0251292,3.03051249 C1.65170112,3.03051249 1.35008613,3.33212748 1.35008613,3.70555556 L1.35008613,11.820435 C1.35008613,12.193863 1.65170112,12.495478 2.0251292,12.495478 L10.1400086,12.495478 C10.5134367,12.495478 10.8150517,12.193863 10.8150517,11.820435 L10.8150517,3.70555556 C10.8150517,3.33212748 10.5134367,3.03051249 10.1400086,3.03051249 L2.0251292,3.03051249 Z M28.1363695,9.20643842 L22.3913221,14.9371232 C21.6013781,15.7270672 20.3231051,15.7270672 19.5187984,14.9371232 L13.7881137,9.20643842 C12.9981697,8.4164944 12.9981697,7.13822136 13.7881137,6.33391473 L19.5187984,0.603229974 C20.3087425,-0.18671404 21.5870155,-0.18671404 22.3913221,0.603229974 L28.1220069,6.33391473 C28.9263135,7.12385874 28.9263135,8.40213178 28.1363695,9.20643842 L28.1363695,9.20643842 Z M14.7504091,7.28184755 C14.4775194,7.5547373 14.4775194,7.97125323 14.7504091,8.24414298 L20.4810939,13.9748277 C20.7539836,14.2477175 21.1704996,14.2477175 21.4433893,13.9748277 L27.1740741,8.24414298 C27.4469638,7.97125323 27.4469638,7.5547373 27.1740741,7.28184755 L21.4433893,1.55116279 C21.1704996,1.27827304 20.7539836,1.27827304 20.4810939,1.55116279 L14.7504091,7.28184755 Z M10.1400086,28.7252369 L2.0251292,28.7252369 C0.904844961,28.7252369 0,27.8203919 0,26.7001077 L0,18.5852283 C0,17.464944 0.904844961,16.5600991 2.0251292,16.5600991 L10.1400086,16.5600991 C11.2602929,16.5600991 12.1651378,17.464944 12.1651378,18.5852283 L12.1651378,26.7001077 C12.1651378,27.8203919 11.2602929,28.7252369 10.1400086,28.7252369 Z M2.0251292,17.9101852 C1.65170112,17.9101852 1.35008613,18.2118002 1.35008613,18.5852283 L1.35008613,26.7001077 C1.35008613,27.0735357 1.65170112,27.3751507 2.0251292,27.3751507 L10.1400086,27.3751507 C10.5134367,27.3751507 10.8150517,27.0735357 10.8150517,26.7001077 L10.8150517,18.5852283 C10.8150517,18.2118002 10.5134367,17.9101852 10.1400086,17.9101852 L2.0251292,17.9101852 Z M25.0196813,28.7252369 L16.9048019,28.7252369 C15.7845177,28.7252369 14.8796727,27.8203919 14.8796727,26.7001077 L14.8796727,18.5852283 C14.8796727,17.464944 15.7845177,16.5600991 16.9048019,16.5600991 L25.0196813,16.5600991 C26.1399655,16.5600991 27.0448105,17.464944 27.0448105,18.5852283 L27.0448105,26.7001077 C27.0448105,27.8203919 26.1399655,28.7252369 25.0196813,28.7252369 Z M16.9048019,17.9101852 C16.5313738,17.9101852 16.2297588,18.2118002 16.2297588,18.5852283 L16.2297588,26.7001077 C16.2297588,27.0735357 16.5313738,27.3751507 16.9048019,27.3751507 L25.0196813,27.3751507 C25.3931094,27.3751507 25.6947244,27.0735357 25.6947244,26.7001077 L25.6947244,18.5852283 C25.6947244,18.2118002 25.3931094,17.9101852 25.0196813,17.9101852 L16.9048019,17.9101852 Z" id="Shape" fill="#000000" fill-rule="nonzero"></path>
                    </g>
                </g>
            </g>
        </g>
    </g>
</svg>