<?xml version="1.0" encoding="UTF-8"?>
<svg width="15px" height="15px" viewBox="0 0 15 15" version="1.1" xmlns="http://www.w3.org/2000/svg" xmlns:xlink="http://www.w3.org/1999/xlink">
    <title>memory iCON</title>
    <g id="页面-1" stroke="none" stroke-width="1" fill="none" fill-rule="evenodd">
        <g id="(B)Miwaspace-Node" transform="translate(-676.000000, -930.000000)" fill="#E2B578" fill-rule="nonzero">
            <g id="Recommended-Resource" transform="translate(328.000000, 906.000000)">
                <g id="memory-iCON" transform="translate(348.000000, 24.000000)">
                    <path d="M14.8421027,3.68181818 L12.1184189,0.545454545 C11.820233,0.202077651 11.3522482,0 10.8552612,0 L1.57894709,0 C0.706825534,0 0,0.610440341 0,1.36363636 L0,13.6363636 C0,14.3895597 0.706825534,15 1.57894709,15 L13.4210503,15 C14.2931718,15 15,14.3895597 15,13.6363636 L15,4.09133523 C15.0002441,3.94857955 14.9489283,3.80475852 14.8421027,3.68181818 Z M9.47368255,1.36363636 L9.47368255,3.40909091 L5.52631482,3.40909091 L5.52631482,1.36363636 L9.47368255,1.36363636 Z M4.73684127,13.6363636 L4.73684127,10.2272727 L10.2631561,10.2272727 L10.2631561,13.6363636 L4.73684127,13.6363636 Z M11.8421032,13.6363636 L11.8421032,9.54545455 C11.8421032,9.16896307 11.4885671,8.86363636 11.0526296,8.86363636 L3.94736773,8.86363636 C3.5114303,8.86363636 3.15789418,9.16896307 3.15789418,9.54545455 L3.15789418,13.6363636 L1.57894709,13.6363636 L1.57894709,1.36363636 L3.94736773,1.36363636 L3.94736773,4.09090909 C3.94736773,4.46740057 4.30090385,4.77272727 4.73684127,4.77272727 L10.2631561,4.77272727 C10.6990935,4.77272727 11.0526296,4.46740057 11.0526296,4.09090909 L11.0526296,1.59098011 L13.4210503,4.31825284 L13.4210503,13.6363636 L11.8421032,13.6363636 Z" id="形状"></path>
                </g>
            </g>
        </g>
    </g>
</svg>