<?xml version="1.0" encoding="UTF-8"?>
<svg width="120px" height="43px" viewBox="0 0 120 43" version="1.1" xmlns="http://www.w3.org/2000/svg" xmlns:xlink="http://www.w3.org/1999/xlink">
    <title>Metatrust LOGO@1x</title>
    <defs>
        <linearGradient x1="1.24999902%" y1="-6.07154514e-06%" x2="102.317465%" y2="2.39983967%" id="linearGradient-1">
            <stop stop-color="#F19500" offset="0%"></stop>
            <stop stop-color="#E53820" offset="100%"></stop>
        </linearGradient>
        <linearGradient x1="1.25000686%" y1="48.9687901%" x2="99.6833441%" y2="51.3060769%" id="linearGradient-2">
            <stop stop-color="#F19500" offset="0%"></stop>
            <stop stop-color="#E53820" offset="100%"></stop>
        </linearGradient>
    </defs>
    <g id="页面-1" stroke="none" stroke-width="1" fill="none" fill-rule="evenodd">
        <g id="Metatrust-LOGO" fill-rule="nonzero">
            <path d="M42.2397715,20.3945957 L42.2397715,21.8494774 L39.703476,21.8494774 C39.6773906,22.5617248 39.607903,23.2653138 39.4993149,23.9558326 L38.0748202,23.6778824 C38.2007801,22.8440318 38.2659109,21.9928093 38.2659109,21.1242149 C38.2659109,20.2556206 38.2007801,19.4043981 38.0748202,18.5705475 L39.4993149,18.2925973 C39.6035463,18.983116 39.6730338,19.6867051 39.703476,20.3989524 L42.2397715,20.3989524 L42.2397715,20.3945957 Z M21.1155566,3.97381646 C21.9841509,3.97381646 22.8353183,4.03896379 23.669224,4.16490722 L23.9471742,2.74041246 C23.2566003,2.63618114 22.5530665,2.56669359 21.8408191,2.53629554 L21.8408191,0 L20.3859373,0 L20.3859373,2.53629554 C19.6736899,2.56235337 18.9701009,2.63184092 18.2795822,2.74041246 L18.5575324,4.16490722 C19.3957397,4.03896379 20.2512638,3.97381646 21.1155566,3.97381646 Z M37.79687,17.1373392 L39.2257215,16.859389 C37.6188495,10.0192222 32.2204942,4.62092202 25.3803273,3.01402244 L25.1023771,4.44285742 C31.3606133,5.93682869 36.2985861,10.8748014 37.79687,17.1373392 Z M17.1373944,4.44285742 L16.8594442,3.01402244 C10.0192222,4.62092202 4.62092202,10.0192222 3.01402244,16.859389 L4.44286293,17.1373392 C5.93682869,10.8748014 10.8748014,5.93682869 17.1373944,4.44285742 Z M21.1155566,38.2659109 C20.2469622,38.2659109 19.3957397,38.2007801 18.5618891,38.0748202 L18.2839389,39.4993149 C18.9744577,39.6035463 19.6779915,39.6730338 20.3902389,39.7034208 L20.3902389,42.2397164 L21.8451758,42.2397164 L21.8451758,39.7034208 C22.5574232,39.6773906 23.2609571,39.607903 23.9514758,39.4993149 L23.6735256,38.0748202 C22.839675,38.2007801 21.9841509,38.2659109 21.1155566,38.2659109 Z M4.4385172,25.1023771 L3.00968223,25.3803273 C4.6165818,32.2204942 10.0149206,37.6187943 16.8550874,39.2257215 L17.1330376,37.79687 C10.8748014,36.3028877 5.93682869,31.3649149 4.4385172,25.1023771 Z M25.0980204,37.79687 L25.3759706,39.2257215 C32.2161925,37.6187943 37.6144927,32.2204942 39.2213647,25.3803273 L37.7925684,25.1023771 C36.2985861,31.3649149 31.3606133,36.3028877 25.0980204,37.79687 Z M3.97382197,21.1198582 C3.97382197,20.2512638 4.03896931,19.4000413 4.16491273,18.5661908 L2.74042349,18.2882406 C2.63619217,18.9787593 2.5666991,19.6823483 2.53630106,20.3945957 L0,20.3945957 L0,21.8494774 L2.53630106,21.8494774 C2.56235889,22.5617248 2.63184644,23.2653138 2.74042349,23.9558326 L4.16491273,23.6778824 C4.03896931,22.839675 3.97382197,21.9884525 3.97382197,21.1198582 Z M29.1282982,28.3552768 C29.3150874,28.8590615 29.4974646,29.3628463 29.6841986,29.8709326 C30.0794504,29.4844495 30.44426,29.0761826 30.7829843,28.6418854 C32.0988909,26.9524556 32.9848572,24.9112864 33.2715209,22.6876848 C33.3366517,22.1751865 33.3713955,21.6497283 33.3713955,21.1198582 C33.3713955,20.9201091 33.3670387,20.7246615 33.3583804,20.529214 C33.3279933,19.9125396 33.254149,19.3045235 33.1325458,18.7138794 C33.0065858,18.092793 32.8372237,17.4891337 32.6244043,16.9072031 C32.2986952,17.4152894 31.9469007,17.8974007 31.5603624,18.3577281 C30.5832351,19.5216446 29.4149619,20.5205556 28.0990553,21.3065922 C27.68213,21.5585121 27.2478328,21.7843467 26.8004653,21.9928093 C26.9655258,22.4488351 27.1348879,22.9091626 27.2999484,23.3608316 C27.7472608,23.1610825 28.1815579,22.935248 28.60284,22.6963432 C29.8058018,22.0058244 30.9089442,21.154602 31.8730564,20.1687611 C31.8991418,20.4814551 31.9165137,20.7985058 31.9165137,21.1198582 C31.9165137,21.4108235 31.9034986,21.6974872 31.8817699,21.9840958 C31.0175323,22.7354437 30.0750937,23.3999322 29.0631674,23.9601893 C28.6375838,24.1946822 28.2032866,24.4118584 27.7559191,24.6116075 C27.9253364,25.0676334 28.0903417,25.5236592 28.2554022,25.9796299 C28.7027146,25.7842375 29.1413685,25.5714181 29.5669522,25.3412268 C30.2314406,24.9851307 30.8698437,24.5855773 31.4822165,24.1512801 C31.1868944,25.1675079 30.7395821,26.1273185 30.1749682,26.9959128 C29.8622742,27.4736122 29.5104797,27.929638 29.1282982,28.3552768 Z M25.5844332,34.0054418 L25.8407099,35.456022 C26.3097509,35.299675 26.7744351,35.1215993 27.2217474,34.9218502 L26.9611691,33.440883 L26.7093043,32.020745 L26.4443692,30.5093908 L25.7972526,26.8439226 C25.3325684,26.9698274 24.8591707,27.0784155 24.3771146,27.165275 L25.0806485,31.160809 L25.3369252,32.6200476 L25.5844332,34.0054418 Z M25.3108398,24.0904509 L25.058975,22.6485843 C24.5985924,22.7875594 24.1251947,22.9048058 23.6431386,22.9916652 C23.0612079,23.1002533 22.4705638,23.1740976 21.8668493,23.2044847 C21.6193413,23.2174998 21.3717781,23.2262133 21.1198582,23.2262133 C20.8810085,23.2262133 20.6465156,23.2218565 20.4119676,23.2088414 C19.7822229,23.1740976 19.1699052,23.1002533 18.5661908,22.9873636 C18.0841347,22.8961474 17.6150937,22.778901 17.1504095,22.6399259 C17.0635501,23.121982 16.9810474,23.5996813 16.894188,24.0817925 C17.3588722,24.2164109 17.8279131,24.3293006 18.3099692,24.4205168 C18.9961863,24.5508335 19.6997202,24.6333362 20.4163243,24.6637232 C20.4163243,25.1067339 20.4163243,25.5496894 20.4163243,25.9970018 C20.4163243,26.4834146 20.4163243,26.9655258 20.4163243,27.4519387 C20.4163243,28.9328507 20.4163243,30.4138179 20.4163243,31.8947851 C20.4163243,32.3811979 20.4163243,32.8676107 20.4163243,33.3540236 C20.4163243,33.814351 20.4163243,34.2790904 20.4163243,34.7394178 C20.4163243,35.2258307 20.4119676,35.7078867 20.4119676,36.1942996 C20.6465156,36.2030131 20.8810085,36.2116715 21.1198582,36.2116715 C21.3717781,36.2116715 21.6193413,36.2073699 21.8668493,36.1942996 C21.8668493,35.7078867 21.8712061,35.2258307 21.8712061,34.7394178 C21.8712061,34.2790904 21.8712061,33.814351 21.8712061,33.3540236 C21.8712061,32.8676107 21.8712061,32.3811979 21.8712061,31.8947851 C21.8712061,30.4138179 21.8755629,28.9328507 21.8712061,27.4519387 C21.8712061,26.9655258 21.8712061,26.4834146 21.8712061,25.9970018 C21.8712061,25.5540462 21.8712061,25.1110355 21.8712061,24.6680799 C22.5574232,24.6333362 23.2349268,24.5551351 23.8950585,24.4292303 C24.3727579,24.3380141 24.8461556,24.2250692 25.3108398,24.0904509 Z M16.3816897,7.45253965 L17.3111133,7.5697861 C17.3197716,7.5697861 17.875672,7.63927365 18.6009345,7.71747471 C19.4000413,7.80433415 20.4076108,7.8954952 21.1068431,7.91722384 C23.1958263,7.98235463 24.7115372,8.75543119 25.7103932,9.7586439 C26.3271228,10.3753735 26.7483497,11.0832641 26.9871993,11.7651245 L27.1218728,12.147306 L27.5040543,13.2286646 L26.0448158,12.6814777 C25.6235337,12.5294875 24.6029492,12.2992962 24.138265,12.5859048 C24.0774358,12.6250053 23.9124304,12.7248799 23.8646164,13.1157749 C23.7647418,13.9930276 24.5725621,14.7834761 25.2196236,15.4132208 C25.3629554,15.5521959 25.4975738,15.6824575 25.6148754,15.8084174 C26.1012882,16.329574 26.4182838,16.8377155 26.6528319,17.32843 C26.6614902,17.3458019 26.6702037,17.3631738 26.6745605,17.3805457 C26.8612945,17.7800991 26.9959128,18.1709941 27.1218728,18.5531756 C27.1175161,18.5575324 27.1088577,18.561834 27.1045009,18.5661908 C27.2043755,18.8354826 27.2999484,19.109076 27.399823,19.3826695 C27.3173203,19.1568349 27.2478328,18.9310004 27.1739885,18.7138794 C27.1566166,18.6617637 27.1392447,18.6052913 27.1218728,18.5531756 C28.3726487,17.7149683 29.4366906,16.6205394 30.240099,15.3480348 C30.5311195,14.8877074 30.7916978,14.4012946 31.0088188,13.8975098 C31.225995,13.3980819 31.4083722,12.8812268 31.5517041,12.3470551 C31.7080511,11.7607677 31.8166391,11.1571084 31.8687548,10.5360221 C32.3204239,10.9920479 32.7373492,11.4784607 33.1281891,11.990959 C33.5060138,12.4860302 33.84915,13.0028301 34.1661455,13.5413586 C34.5049249,14.1189876 34.8046038,14.7226469 35.0608253,15.3480348 C35.3040317,15.9343774 35.5124944,16.5380367 35.6818565,17.1590679 C35.8729472,17.8583001 36.0119223,18.5792059 36.0987818,19.3175387 C36.1682693,19.9038261 36.2030131,20.5031838 36.2030131,21.1111998 C36.2030131,25.2152668 34.5570406,28.9415642 31.8861267,31.6645938 C31.6993375,31.1521507 31.5126035,30.6440092 31.3258695,30.1358677 C33.4495965,27.7341905 34.7437746,24.5768638 34.7481313,21.1285717 C34.7481313,21.1242149 34.7481313,21.1198582 34.7481313,21.1111998 C34.7481313,20.3815805 34.6916589,19.6649764 34.5787692,18.9657442 C34.4788395,18.344713 34.3398644,17.7410537 34.1618439,17.1547111 C33.9707532,16.5336799 33.7405619,15.9300206 33.4669684,15.3480348 C33.2150485,14.8138631 32.9284399,14.2927065 32.615746,13.7976353 C32.4202984,14.331807 32.1857504,14.8486069 31.9208705,15.3480348 C31.6515786,15.8518196 31.3432414,16.3382324 31.0088188,16.798615 C30.0881088,18.0580493 28.9329059,19.1351063 27.6082857,19.9689569 C27.1957171,20.2295352 26.7657216,20.4640832 26.3184092,20.6725459 C25.8319964,20.9027372 25.3282117,21.1024863 24.807055,21.2675468 C24.3467276,21.4151803 23.8776867,21.5324819 23.3955754,21.6236429 C22.8917907,21.7192159 22.3793476,21.7843467 21.858191,21.8147337 C21.6106278,21.8277488 21.3630646,21.8364623 21.1155566,21.8364623 C20.8766518,21.8364623 20.6421589,21.8277488 20.4076108,21.8147337 C19.8647807,21.7843467 19.3305538,21.7148591 18.8093972,21.6149845 C18.3273411,21.5237683 17.8583001,21.4021651 17.3979727,21.2544765 C16.8854744,21.0894712 16.3860465,20.8940236 15.9039904,20.6681891 C15.4566229,20.4597265 15.0266825,20.2208768 14.614114,19.9602985 C13.2894938,19.1308047 12.1385925,18.0493909 11.2178824,16.7942582 C10.883515,16.3339308 10.5751226,15.8518196 10.3058859,15.3437332 C10.0409509,14.8486069 9.80645795,14.3274503 9.61101043,13.7932785 C9.2939597,14.2883497 9.00735113,14.8052047 8.75978795,15.3437332 C8.48619451,15.9256639 8.25600322,16.5293232 8.06491246,17.1504095 C7.88683683,17.7410537 7.74786173,18.344713 7.64798717,18.9613874 C7.53504232,19.6606196 7.47862505,20.3772238 7.47862505,21.1068431 C7.47862505,21.1111998 7.47862505,21.1155014 7.47862505,21.1242149 C7.48292666,24.5682054 8.77280308,27.7211754 10.8878166,30.1228526 C11.2439678,30.5267627 11.6217926,30.9045875 12.021346,31.2606836 C11.8432704,31.7470964 11.6652499,32.2335093 11.4871743,32.7199221 C11.0832641,32.3855547 10.6967258,32.0294034 10.3319162,31.6515786 C7.66971581,28.9285491 6.02368813,25.2066085 6.02368813,21.1068431 C6.02368813,20.5031838 6.0584319,19.9038261 6.13227621,19.3131819 C6.21913565,18.5749043 6.35811075,17.8539434 6.54920151,17.1547111 C6.71856362,16.5336799 6.92702627,15.9300206 7.17023269,15.3437332 C7.42650939,14.7183453 7.72613308,14.1146308 8.06491246,13.537057 C8.37760643,12.9985284 8.72504418,12.4816734 9.10286894,11.9866022 C9.48940722,11.474104 9.91068927,10.9876911 10.3623583,10.5317205 C10.414474,11.1527516 10.5230069,11.7564109 10.6793539,12.3426983 C10.818329,12.8769252 11.0007614,13.3937251 11.2178824,13.8931531 C11.4350586,14.3969378 11.6956369,14.8833506 11.9866022,15.3437332 C12.7596788,16.5684237 13.7759066,17.6281088 14.9659085,18.4533011 C15.3046327,16.7421426 16.1514984,13.3980819 17.9234309,10.9182036 C17.8886871,10.8878166 17.8496418,10.8574296 17.8105412,10.8270425 C17.4804754,10.5490923 17.1243241,10.1538405 16.8594442,9.61531204 C16.6857253,9.26357268 16.5554086,8.850949 16.4902778,8.36889291 L16.485921,8.29504861 L16.3816897,7.45253965 Z M24.8765426,10.9964047 C24.1165363,10.132167 22.8701172,9.42857804 21.0590842,9.37210562 C20.3077362,9.35043212 19.265423,9.25055755 18.4402859,9.16364297 C18.3881703,9.17671325 18.3403562,9.18537162 18.2882406,9.19838674 C18.6747788,9.81511632 19.2306792,10.0453076 19.265423,10.0583227 L20.0906152,10.3710167 L20.2295903,10.4231324 L19.5563883,11.2048673 C17.9799033,13.0593025 17.0852787,15.8344477 16.6292529,17.7149683 C16.4729059,18.3577281 16.3686746,18.8962566 16.3035438,19.2567095 C16.3382876,19.2740814 16.3686746,19.2914533 16.4034184,19.3045235 C16.8073285,19.5042727 17.2285554,19.6736348 17.658551,19.8213234 C18.1145217,19.9776704 18.5879194,20.1036304 19.0699755,20.1947914 C19.5042727,20.2773492 19.9516401,20.3381233 20.4033092,20.3642087 C20.6378021,20.3815805 20.8766518,20.3902389 21.1198582,20.3902389 C21.3674214,20.3902389 21.6149845,20.3815805 21.858191,20.3642087 C22.2968449,20.3337665 22.7267853,20.2816508 23.152369,20.1991482 C23.6344802,20.107932 24.1035212,19.9820271 24.5638486,19.8299818 C24.9981458,19.6823483 25.4237846,19.5086294 25.8319964,19.3088251 C25.8971272,19.4912575 25.9666147,19.6779915 26.0318007,19.8604239 C25.9623131,19.6693332 25.9014839,19.482544 25.8407099,19.3001668 C25.8276396,19.2567095 25.8102677,19.2089506 25.7972526,19.1655484 C25.6539208,18.718181 25.5236592,18.314326 25.3325684,17.9277877 C25.150136,17.5499629 24.9112864,17.1894549 24.5551903,16.8072734 C24.4596173,16.7073988 24.3380141,16.5857956 24.2077525,16.4598908 C23.4260176,15.6955277 22.2447292,14.5402697 22.4227497,12.9550712 C22.5269811,12.0473763 23.0003788,11.5826921 23.3825603,11.3481992 C23.8342294,11.070249 24.3727579,10.9876911 24.8808994,11.0007614 L24.8765426,10.9964047 Z M15.7780304,30.5050341 C15.7432866,30.7178535 15.7041861,30.9263161 15.6694423,31.1390804 C15.6173267,31.4301009 15.5695678,31.7254229 15.5174521,32.0163883 C15.4349494,32.489786 15.3567484,32.9631286 15.2742457,33.4365263 C15.1873862,33.9316526 15.1048836,34.4223671 15.0180241,34.9174934 C15.4696932,35.1172426 15.9300206,35.2953182 16.3990616,35.4516652 C16.4815643,34.9652523 16.5684237,34.4831963 16.6509815,34.0011402 C16.7334842,33.5407576 16.8116301,33.0760734 16.8898312,32.6156908 C16.9593188,32.2031223 17.0331631,31.7905537 17.1026506,31.3822868 C17.1156657,31.3084977 17.1286809,31.2346533 17.141696,31.1564523 C17.3675305,29.8361888 17.6020786,28.4985535 17.8322699,27.1609182 C17.3545154,27.0697572 16.8811177,26.9611691 16.4164335,26.8352091 C16.1993125,28.0686131 15.9864931,29.289002 15.7780304,30.5050341 Z M13.6239164,22.6876848 C14.0451984,22.9308912 14.4794956,23.152369 14.9268079,23.3564749 C15.0918133,22.9005042 15.2612306,22.4444784 15.4262359,21.9884525 C14.9789236,21.7843467 14.5489832,21.5541554 14.1277011,21.3022906 C12.8204528,20.5161989 11.6521796,19.5216446 10.6750523,18.3577281 C10.288514,17.8974007 9.93236277,17.4152894 9.61101043,16.9072031 C9.39383426,17.4891337 9.22447215,18.092793 9.10286894,18.7138794 C8.98562249,19.3045235 8.90742142,19.9125396 8.8770344,20.529214 C8.86837603,20.7246615 8.86401928,20.9244107 8.86401928,21.1198582 C8.86401928,21.6497283 8.89876305,22.1751865 8.96389384,22.6876848 C9.25055755,24.9069296 10.132167,26.9437972 11.443717,28.6288702 C11.7824963,29.0631674 12.147306,29.475736 12.5425026,29.8622742 C12.7292366,29.3541328 12.911669,28.850348 13.098403,28.3422065 C12.7118647,27.9166229 12.364427,27.460597 12.051733,26.9741842 C11.4914759,26.1099466 11.0485203,25.1544928 10.7531982,24.1425666 C11.3612143,24.5768638 11.9952606,24.9720604 12.6554475,25.3282117 C13.0810311,25.558403 13.5196851,25.775524 13.9713541,25.9709715 C14.1363595,25.5193024 14.3057768,25.0632766 14.4707821,24.6029492 C14.0234698,24.4031449 13.5891726,24.1860239 13.1635338,23.9471191 C12.1603211,23.386917 11.2178824,22.7267853 10.3580016,21.9797942 C10.3362729,21.6931305 10.3232578,21.4065219 10.3232578,21.1155014 C10.3232578,20.7941491 10.3362729,20.4770984 10.36666,20.1644044 C11.3264705,21.1459436 12.4208994,21.9971661 13.6239164,22.6876848 Z M21.732231,10.5186502 C21.3240192,10.4231324 20.9201091,10.5230069 20.6117718,10.757555 C20.781134,11.1049927 21.1024863,11.3785862 21.5063965,11.474104 C21.9103066,11.5696769 22.3185184,11.4698024 22.6269108,11.2352543 C22.4574935,10.8878166 22.1404979,10.6142231 21.732231,10.5186502 Z" id="形状" fill="url(#linearGradient-1)"></path>
            <path d="M49.6404161,17.0203685 C49.6404161,16.8857502 49.6795166,16.7597902 49.7576625,16.638187 C49.814135,16.4601114 49.9140095,16.3211363 50.0573414,16.2212617 C50.2136884,16.1213871 50.3830505,16.0910001 50.5654829,16.1300455 C50.7478601,16.169146 50.8955487,16.264719 51.0041368,16.421066 L53.6446637,20.525133 L56.1679993,16.4036941 C56.2678187,16.2386336 56.4112057,16.1344023 56.5937484,16.0866434 C56.7757396,16.0431861 56.9450465,16.0692715 57.1016693,16.169146 C57.2229967,16.2473471 57.3145438,16.3515784 57.3752075,16.4861968 C57.4358713,16.6208151 57.449107,16.7511318 57.4187751,16.8857502 C57.4314594,16.920494 57.4358713,16.9638961 57.4358713,17.0203685 L57.4358713,25.146055 C57.4358713,25.3328442 57.3707956,25.4934928 57.2362324,25.6281663 C57.1016693,25.7627846 56.9411861,25.8279154 56.7542315,25.8279154 C56.5672769,25.8279154 56.4067938,25.7627846 56.2722306,25.6281663 C56.1376674,25.4934928 56.0725917,25.3328442 56.0725917,25.146055 L56.0725917,19.1788393 L54.2613381,22.1537888 C54.1614635,22.3187941 54.0181317,22.4273822 53.8313977,22.4707844 C53.6446637,22.5142417 53.4709448,22.4881563 53.3145978,22.3882817 C53.2581254,22.3535379 53.2146681,22.3187941 53.1799243,22.2796936 C53.1451806,22.2406482 53.1147935,22.2015477 53.0800498,22.1537888 L51.0041368,18.948648 L51.0041368,25.146055 C51.0041368,25.3328442 50.9389509,25.4934928 50.8043325,25.6281663 C50.6697142,25.7627846 50.5090105,25.8279154 50.3222765,25.8279154 C50.1355425,25.8279154 49.9748387,25.7627846 49.8402204,25.6281663 C49.7055469,25.4934928 49.6404161,25.3328442 49.6404161,25.146055 L49.6404161,17.0203685 Z M64.9581742,16.3385082 C65.1445773,16.3385082 65.3100239,16.4079957 65.448999,16.5426692 C65.5879741,16.6772875 65.6574616,16.8422929 65.6574616,17.0247253 C65.6574616,17.2114593 65.5879741,17.3678063 65.448999,17.5024246 C65.3100239,17.6327413 65.1445773,17.6978721 64.9581742,17.6978721 L61.61836,17.6978721 C61.183787,17.6892138 60.828077,17.8542191 60.536891,18.1973001 C60.250117,18.5447378 60.033382,18.9660199 59.889995,19.4698046 C59.8331917,19.6261516 59.794036,19.7781418 59.772528,19.9301872 C59.7510199,20.0821774 59.7289604,20.2385244 59.7074523,20.4078865 L63.5292676,20.4078865 C63.7162221,20.4078865 63.8767053,20.4730173 64.0112685,20.6076908 C64.1458317,20.7423092 64.2109073,20.9030129 64.2109073,21.0897469 C64.2109073,21.2764809 64.1458317,21.4371847 64.0112685,21.571803 C63.8767053,21.7064213 63.7162221,21.7716073 63.5292676,21.7716073 L59.7245485,21.7716073 C59.7377842,22.0061002 59.7813518,22.2493066 59.8596632,22.5012265 C60.0024987,23.0440567 60.2241971,23.5000825 60.515383,23.8736056 C60.8060174,24.2470736 61.1755147,24.4425212 61.61836,24.4642498 L64.9581742,24.4642498 C65.1445773,24.4642498 65.3100239,24.5293806 65.448999,24.6639989 C65.5879741,24.7986173 65.6574616,24.959321 65.6574616,25.146055 C65.6574616,25.3328442 65.5879741,25.4934928 65.448999,25.6281663 C65.3100239,25.7627846 65.1445773,25.8279154 64.9581742,25.8279154 L61.61836,25.8279154 C61.2102585,25.8279154 60.8363493,25.7497695 60.5065592,25.5890657 C60.1723571,25.428362 59.8811712,25.2155426 59.6247291,24.9506626 C59.3688384,24.6857276 59.151552,24.3730336 58.9690093,24.0125807 C58.7864666,23.6520727 58.6436311,23.2698912 58.5432602,22.8573227 C58.4566765,22.5576438 58.3960127,22.2493066 58.361269,21.9366126 C58.3265252,21.6195619 58.3132895,21.3025663 58.3132895,20.9811588 C58.3132895,20.3297406 58.3960127,19.7086543 58.5609078,19.1223669 C58.6739629,18.7228135 58.8173499,18.3536471 58.9993411,18.0192796 C59.1818838,17.6805002 59.3991703,17.3895349 59.6550609,17.1463285 C59.9115031,16.9031221 60.202689,16.7120313 60.5280672,16.5730562 C60.8539969,16.4340811 61.2185308,16.3645936 61.61836,16.3645936 L61.61836,16.3472217 L64.9581742,16.3472217 L64.9581742,16.3385082 Z M70.0743329,17.5502387 L70.0743329,25.1417534 C70.0743329,25.3284874 70.0087058,25.4934928 69.8741426,25.6238095 C69.7395794,25.7584278 69.5790962,25.8235586 69.3921416,25.8235586 C69.2057385,25.8235586 69.0447039,25.7584278 68.9101407,25.6238095 C68.7755775,25.4891912 68.7105019,25.3284874 68.7105019,25.1417534 L68.727598,17.5502387 L66.7041868,17.5502387 C66.5128203,17.5502387 66.3523371,17.4807511 66.2177739,17.3460776 C66.0826592,17.2114593 66.0175836,17.0464539 66.0175836,16.8640215 C66.0175836,16.6816443 66.0826592,16.5209406 66.2177739,16.3863222 C66.3523371,16.2560055 66.5128203,16.1908747 66.6997749,16.1908747 L72.0977441,16.1908747 C72.2846987,16.1908747 72.4451819,16.2560055 72.5797451,16.3863222 C72.7148598,16.5165838 72.7799354,16.6772875 72.7799354,16.8640215 C72.7799354,17.0507555 72.7148598,17.2114593 72.5797451,17.3460776 C72.4451819,17.4807511 72.2846987,17.5502387 72.0933322,17.5502387 L70.0743329,17.5502387 Z M74.4950646,25.3762463 C74.4388128,25.5543219 74.3257576,25.6759252 74.1564507,25.7497695 C73.9827318,25.8235586 73.8090129,25.8279154 73.6308821,25.7757997 C73.4527514,25.7193273 73.327012,25.6064376 73.2487006,25.4370755 C73.1703893,25.2676582 73.1665288,25.0896377 73.2316045,24.9159189 L76.3061528,16.7076746 C76.3712284,16.5295989 76.4931074,16.4036941 76.6624143,16.325493 C76.8361332,16.2473471 77.0098521,16.2429904 77.1879829,16.3081211 C77.3876217,16.3732519 77.5221849,16.5079254 77.5872605,16.7076746 L80.8272554,24.833361 C80.892331,25.0114367 80.892331,25.1851556 80.8184316,25.3545177 C80.7445321,25.5282365 80.6232046,25.6455381 80.4450739,25.7106689 C80.2669431,25.7671413 80.0932242,25.7584278 79.9195053,25.693297 C79.7457865,25.6281663 79.6288709,25.506563 79.5632438,25.3284874 L76.9706964,18.8314016 L74.4950646,25.3762463 Z M85.3092023,17.5502387 L85.3092023,25.1417534 C85.3092023,25.3284874 85.2441267,25.4934928 85.1095635,25.6238095 C84.9750003,25.7584278 84.8139656,25.8235586 84.6275625,25.8235586 C84.4406079,25.8235586 84.2801248,25.7584278 84.1455616,25.6238095 C84.0104469,25.4891912 83.9453713,25.3284874 83.9453713,25.1417534 L83.9630189,17.5502387 L81.9390562,17.5502387 C81.7482412,17.5502387 81.5872065,17.4807511 81.4526433,17.3460776 C81.3180801,17.2114593 81.2530045,17.0464539 81.2530045,16.8640215 C81.2530045,16.6816443 81.3180801,16.5209406 81.4526433,16.3863222 C81.5872065,16.2560055 81.7482412,16.1908747 81.9346443,16.1908747 L87.333165,16.1908747 C87.5195682,16.1908747 87.6806028,16.2560055 87.815166,16.3863222 C87.9497292,16.5165838 88.0148048,16.6772875 88.0148048,16.8640215 C88.0148048,17.0507555 87.9497292,17.2114593 87.815166,17.3460776 C87.6806028,17.4807511 87.5195682,17.5502387 87.3287531,17.5502387 L85.3092023,17.5502387 Z M94.1821005,21.5891749 L96.0930081,24.7943157 C96.1928276,24.9506626 96.2187475,25.1200248 96.1751799,25.302402 C96.1321638,25.4848344 96.0279325,25.6281663 95.858074,25.7280408 C95.7020028,25.8149003 95.5326958,25.8366289 95.3413293,25.7931716 C95.1549262,25.7497695 95.0159511,25.6498397 94.924404,25.4934928 L92.5965711,21.6065468 L90.1865665,21.6065468 L90.1865665,25.146055 C90.1865665,25.3328442 90.1214908,25.4934928 89.9863761,25.6281663 C89.851813,25.7627846 89.6913298,25.8279154 89.5043752,25.8279154 C89.3179721,25.8279154 89.1569375,25.7627846 89.0223743,25.6281663 C88.8878111,25.4934928 88.8227354,25.3328442 88.8227354,25.146055 L88.8227354,21.0246161 L88.8227354,20.9768021 L88.8227354,20.9290432 C88.8227354,20.7423092 88.8878111,20.5816054 89.0223743,20.4469871 C89.1569375,20.3123687 89.3179721,20.2471828 89.5043752,20.2471828 L93.9559903,20.2471828 C94.2427643,20.2341677 94.4815588,20.1603234 94.6641015,20.0213483 C94.8466442,19.8823732 94.9812074,19.7086543 95.072203,19.5001916 C95.1372786,19.3351863 95.1720224,19.1527539 95.1720224,18.9530048 C95.1720224,18.7445421 95.1328667,18.5621097 95.0551068,18.4057628 C94.9767955,18.2190287 94.8466442,18.0540234 94.6641015,17.9150483 C94.4815588,17.7760732 94.2471762,17.7065856 93.9559903,17.7065856 L93.9559903,17.7239575 L89.5043752,17.7239575 C89.3179721,17.7239575 89.1569375,17.65447 89.0223743,17.5197965 C88.8878111,17.3851782 88.8227354,17.2201728 88.8227354,17.0333837 C88.8227354,16.8466497 88.8878111,16.6903027 89.0223743,16.5556843 C89.1569375,16.4253676 89.3179721,16.3602368 89.5043752,16.3602368 L93.9559903,16.3602368 C94.5642821,16.3602368 95.0677911,16.5079254 95.4587964,16.8075491 C95.8542136,17.107228 96.1360242,17.4720376 96.314155,17.901978 C96.457542,18.2233855 96.5314415,18.57518 96.5314415,18.9616631 C96.5314415,19.3264728 96.4663658,19.6739105 96.3318027,20.0039764 C96.1751799,20.4252584 95.9192893,20.7814097 95.5586158,21.0810334 C95.2111781,21.3720539 94.7462733,21.541416 94.1821005,21.5891749 Z M102.737341,16.8510064 C102.737341,16.6642724 102.806829,16.4992119 102.941944,16.3602368 C103.076507,16.2212617 103.241402,16.1517742 103.428356,16.1517742 C103.61476,16.1517742 103.771382,16.2212617 103.905946,16.3602368 C104.036097,16.4992119 104.101172,16.6599157 104.101172,16.8510064 L104.101172,22.9137951 C104.101172,23.6998868 103.914769,24.3382898 103.545272,24.833361 C103.176326,25.3284874 102.715833,25.6845835 102.159933,25.9061164 C101.938235,25.9929759 101.717088,26.0624634 101.486566,26.1058656 C101.261007,26.1493229 101.031036,26.1709964 100.800514,26.1709964 C100.336161,26.1709964 99.8883519,26.0884937 99.4587424,25.9234883 C98.8940182,25.7150257 98.4164291,25.3588744 98.0166,24.8594465 C97.6173223,24.3600185 97.4215439,23.7172587 97.4215439,22.931167 L97.4215439,22.9137951 L97.4215439,16.8510064 C97.4215439,16.6642724 97.487171,16.4992119 97.6173223,16.3602368 C97.7474736,16.2212617 97.9079567,16.1517742 98.0949113,16.1517742 C98.2818659,16.1517742 98.4423491,16.2212617 98.5769123,16.3602368 C98.7158874,16.4992119 98.780963,16.6599157 98.780963,16.8510064 L98.780963,22.9137951 C98.7897868,23.3784793 98.9072539,23.756304 99.1328127,24.0429677 C99.354511,24.3295763 99.6280493,24.5337374 99.9495671,24.6596422 C100.218694,24.7812454 100.501056,24.833361 100.800514,24.8073308 C101.100524,24.8073308 101.378474,24.7595719 101.634364,24.6596422 C101.955882,24.5250238 102.220597,24.3209179 102.429059,24.038611 C102.63311,23.756304 102.737341,23.382836 102.737341,22.9181518 L102.737341,16.8510064 Z M108.040455,20.3731428 L110.168649,20.3731428 C110.554691,20.3731428 110.910952,20.4382736 111.241294,20.5729471 C111.566672,20.7075654 111.849034,20.8942994 112.087829,21.1375058 C112.326623,21.3807122 112.513578,21.667376 112.643729,21.993085 C112.778292,22.3187941 112.843919,22.6749454 112.843919,23.0657853 C112.843919,23.4566803 112.778292,23.8127765 112.643729,24.1471991 C112.509166,24.4816217 112.326623,24.7682303 112.096652,25.0201502 C111.86227,25.2676582 111.58432,25.4674625 111.25839,25.6107944 C110.933012,25.7540711 110.567926,25.8279154 110.168649,25.8279154 L106.346834,25.8279154 C106.159879,25.8279154 105.994984,25.7584278 105.856009,25.6194527 C105.717034,25.4804776 105.647546,25.3111155 105.647546,25.1113112 C105.647546,24.9245772 105.717034,24.7595719 105.856009,24.6205968 C105.994984,24.4816217 106.155467,24.4121341 106.346834,24.4121341 L110.168649,24.4121341 C110.554691,24.3990639 110.863524,24.2688023 111.089083,24.0125807 C111.315193,23.756304 111.427697,23.4436101 111.427697,23.0657853 C111.427697,22.7227043 111.319054,22.4230255 111.102319,22.1668039 C110.885032,21.9105824 110.60267,21.7846224 110.246409,21.7846224 C109.816799,21.7846224 109.377814,21.7889792 108.934969,21.8019943 C108.492124,21.8150094 108.049279,21.806351 107.605882,21.7846224 C107.206604,21.7716073 106.845931,21.697763 106.516141,21.5500743 C106.190211,21.4067976 105.907849,21.2157069 105.677878,20.9768021 C105.443495,20.7379524 105.265365,20.4513438 105.139074,20.1125645 C105.013334,19.7738402 104.948259,19.4046738 104.948259,19.0094772 C104.948259,18.6315973 105.013334,18.2798579 105.147898,17.9454353 C105.282461,17.6153695 105.465003,17.3287057 105.694974,17.0898561 C105.929908,16.8510064 106.207858,16.6642724 106.533237,16.5339557 C106.859166,16.3993373 107.215428,16.3342066 107.605882,16.3342066 L107.605882,16.3168347 L111.063163,16.3168347 C111.262802,16.3168347 111.432109,16.3906238 111.571084,16.5339557 C111.710059,16.6772875 111.779547,16.8422929 111.779547,17.0333837 C111.779547,17.2201728 111.710059,17.3895349 111.571084,17.5328668 C111.432109,17.6761435 111.262802,17.7499878 111.063163,17.7499878 L107.605882,17.7499878 C107.228112,17.7369727 106.928654,17.8542191 106.702544,18.0974255 C106.476985,18.340632 106.36393,18.6533259 106.36393,19.0268491 C106.36393,19.4046738 106.476985,19.7173678 106.694271,19.9735894 C106.915418,20.2298109 107.219288,20.3601276 107.605882,20.3731428 L108.040455,20.3731428 Z M117.294983,17.5502387 L117.294983,25.1417534 C117.294983,25.3284874 117.229907,25.4934928 117.095344,25.6238095 C116.960781,25.7584278 116.800298,25.8235586 116.613343,25.8235586 C116.426389,25.8235586 116.265905,25.7584278 116.131342,25.6238095 C115.996779,25.4891912 115.931703,25.3284874 115.931703,25.1417534 L115.9488,17.5502387 L113.924837,17.5502387 C113.734022,17.5502387 113.573539,17.4807511 113.438424,17.3460776 C113.303861,17.2114593 113.238785,17.0464539 113.238785,16.8640215 C113.238785,16.6816443 113.303861,16.5209406 113.438424,16.3863222 C113.573539,16.2560055 113.734022,16.1908747 113.920976,16.1908747 L119.318946,16.1908747 C119.5059,16.1908747 119.670795,16.2560055 119.800947,16.3863222 C119.93551,16.5165838 120.001137,16.6772875 120.001137,16.8640215 C120.001137,17.0507555 119.93551,17.2114593 119.800947,17.3460776 C119.666383,17.4807511 119.5059,17.5502387 119.314534,17.5502387 L117.294983,17.5502387 Z" id="形状" fill="url(#linearGradient-2)"></path>
        </g>
    </g>
</svg>