<?xml version="1.0" encoding="UTF-8"?>
<svg width="22px" height="21px" viewBox="0 0 22 21" version="1.1" xmlns="http://www.w3.org/2000/svg" xmlns:xlink="http://www.w3.org/1999/xlink">
    <title>MetaMask@1x</title>
    <g id="V1" stroke="none" stroke-width="1" fill="none" fill-rule="evenodd">
        <g id="MetaMask" fill-rule="nonzero">
            <polygon id="路径" fill="#E17726" points="20.7778949 0.130329755 12.2933857 6.40809049 13.8708397 2.70824387 20.7787385 0.130329755"></polygon>
            <path d="M20.8715299,0.0797162577 C20.8967505,0.12604186 20.8841824,0.183855208 20.8420054,0.215529141 L12.3566526,6.49413344 C12.3180323,6.52209627 12.2655163,6.52091862 12.2281883,6.49125267 C12.1908603,6.46158673 12.1778557,6.41069276 12.1963765,6.36675613 L13.7738305,2.66690951 C13.7852097,2.6399806 13.8071782,2.6189275 13.8345667,2.60870399 L20.7416219,0.0307898773 C20.7910658,0.0126648478 20.846327,0.0334775105 20.8715299,0.0797162577 L20.8715299,0.0797162577 Z M13.9509778,2.79175613 L12.5447661,6.09006902 L20.1081097,0.493903374 L13.9509778,2.79175613 Z" id="形状" fill="#E17726"></path>
            <polygon id="路径" fill="#E27625" points="1.20734279 0.130329755 9.61593175 6.46713957 8.11439801 2.70824387"></polygon>
            <path d="M1.11370782,0.0788726994 C1.13924867,0.0325351087 1.19498286,0.012039312 1.24445936,0.0307898773 L8.15151457,2.60870399 C8.17935199,2.61967025 8.20212807,2.64160276 8.21225077,2.66859663 L9.71462807,6.42749233 C9.73160535,6.47151098 9.71753414,6.52145277 9.68007366,6.55013345 C9.64261317,6.57881414 9.5907299,6.57936875 9.55266488,6.5514954 L1.1423888,0.214685583 C1.10095614,0.182859283 1.08879716,0.125640515 1.11370782,0.0797162577 L1.11370782,0.0788726994 Z M1.85603911,0.485467791 L9.3763612,6.15333589 L8.03257285,2.79175613 L1.85519555,0.485467791 L1.85603911,0.485467791 Z" id="形状" fill="#E27625"></path>
            <polygon id="路径" fill="#E27625" points="17.7233704 14.687615 15.4660084 18.1360813 20.2995974 19.4672163 21.6847201 14.7626917 17.7233704 14.6867715"></polygon>
            <path d="M17.6339532,14.6294095 C17.6540063,14.5987532 17.6884326,14.5805838 17.7250575,14.5813048 L21.6864072,14.6572469 C21.7193184,14.657853 21.7500917,14.6736734 21.769736,14.7000859 C21.7893803,14.7264984 21.7956785,14.7605221 21.7867906,14.7922163 L20.4016679,19.4975844 C20.3853331,19.5530974 20.327591,19.585343 20.27176,19.5701304 L15.438171,18.2389954 C15.4054047,18.2301479 15.3788339,18.2061842 15.3666614,18.1745023 C15.3544889,18.1428205 15.3581785,18.1072304 15.3765913,18.0787193 L17.6347968,14.628566 L17.6339532,14.6294095 Z M17.7798888,14.7947469 L15.6347201,18.0728144 L20.2270514,19.3373083 L21.5430023,14.8664494 L17.7807324,14.7947469 L17.7798888,14.7947469 Z" id="形状" fill="#E27625"></path>
            <polygon id="路径" fill="#E27625" points="0.308953221 14.7626917 1.68479678 19.4672163 6.51079371 18.1360813 4.26186733 14.687615"></polygon>
            <path d="M4.25933666,14.5812979 C4.29645322,14.5804831 4.33103911,14.5981979 4.35044095,14.6294095 L6.60021089,18.0778758 C6.61863744,18.106271 6.6224369,18.1417452 6.61044187,18.1733987 C6.59844684,18.2050523 6.57209191,18.2290995 6.53947469,18.2381518 L1.71347776,19.5701304 C1.65764673,19.585343 1.59990466,19.5530974 1.58356979,19.4975844 L0.206882669,14.7930598 C0.198027835,14.7615058 0.204224614,14.7276312 0.223676749,14.7012555 C0.243128883,14.6748797 0.27366092,14.6589524 0.306422546,14.6580905 L4.25933666,14.5821702 L4.25933666,14.5812979 Z M0.449827454,14.8664494 L1.75734279,19.3373083 L6.34208206,18.0719709 L4.20450537,14.7947469 L0.450671012,14.8664494 L0.449827454,14.8664494 Z" id="形状" fill="#E27625"></path>
            <polygon id="路径" fill="#E27625" points="6.25097776 8.86115798 4.90803298 10.8865414 9.69100844 11.1041794 9.53326304 5.95763037 6.25182132 8.86200153"></polygon>
            <path d="M9.57459739,5.85893405 C9.61255752,5.87580521 9.63702071,5.91207822 9.63870782,5.95341258 L9.79814034,11.1016488 C9.79911719,11.1313185 9.78764155,11.1600448 9.76649087,11.1808751 C9.74534019,11.2017053 9.71644204,11.212741 9.68679064,11.2113113 L4.90381518,10.9928298 C4.86560114,10.9912048 4.83120712,10.9691728 4.81375366,10.9351385 C4.79630019,10.9011043 4.79847917,10.8603169 4.81945936,10.8283359 L6.16240414,8.8021089 C6.16742776,8.79463739 6.17338033,8.78783445 6.18011887,8.7818635 L9.46156058,5.87664877 C9.49257582,5.84923736 9.53668342,5.84232498 9.57459739,5.85893405 L9.57459739,5.85893405 Z M6.33195936,8.93117331 L5.10036426,10.7895322 L9.58218942,10.9928298 L9.4328796,6.18623466 L6.33195936,8.93117331 L6.33195936,8.93117331 Z" id="形状" fill="#E27625"></path>
            <polygon id="路径" fill="#E27625" points="15.73426 8.86115798 12.4022048 5.89773773 12.2933857 11.105023 17.0763612 10.887385 15.73426 8.86115798"></polygon>
            <path d="M12.3591833,5.80072853 C12.397328,5.78375436 12.4418774,5.79068427 12.4730637,5.81844325 L15.8051189,8.7818635 C15.8118446,8.78784711 15.8177957,8.79464835 15.8228336,8.8021089 L17.1657784,10.8283359 C17.1867586,10.8603169 17.1889375,10.9011043 17.1714841,10.9351385 C17.1540306,10.9691728 17.1196366,10.9912048 17.0814225,10.9928298 L12.2984471,11.2104678 C12.269096,11.2118713 12.2404734,11.2010612 12.2193782,11.1806052 C12.1982829,11.1601492 12.1865974,11.1318727 12.187082,11.1024923 L12.29676,5.89605061 C12.2974911,5.85466868 12.3221775,5.81747451 12.3600268,5.80072853 L12.3591833,5.80072853 Z M12.5034317,6.12971626 L12.4022048,10.9936733 L16.8848735,10.7895322 L15.6532784,8.93117331 L12.5042753,6.13055982 L12.5034317,6.12971626 Z" id="形状" fill="#E27625"></path>
            <polygon id="路径" fill="#E27625" points="6.51079371 18.1360813 9.40672929 16.7383052 6.91401457 14.7955905"></polygon>
            <path d="M6.87268021,14.6977377 C6.90810086,14.6829818 6.948725,14.6884628 6.97896856,14.7120782 L9.47168328,16.6539494 C9.50077209,16.6764432 9.51616811,16.7123745 9.51239023,16.7489512 C9.50861234,16.785528 9.48619728,16.8175538 9.453125,16.8336273 L6.55718942,18.2314034 C6.52227341,18.2482844 6.48093455,18.2448079 6.44932839,18.2223324 C6.41772223,18.1998569 6.40086664,18.1619507 6.40534893,18.1234279 L6.80856979,14.7829371 C6.8134029,14.7454121 6.83781936,14.7132852 6.87268021,14.6985813 L6.87268021,14.6977377 Z M6.99668328,14.9955138 L6.63985813,17.9564034 L9.20596242,16.7163727 L6.99668328,14.9955138 L6.99668328,14.9955138 Z" id="形状" fill="#E27625"></path>
            <polygon id="路径" fill="#E27625" points="12.5785084 16.7383052 15.4660084 18.1360813 15.0712232 14.7955905 12.5785084 16.7383052"></polygon>
            <path d="M15.1125575,14.6977377 C15.1478989,14.7127353 15.1724057,14.745626 15.1766679,14.7837807 L15.5714532,18.1242715 C15.5755907,18.1626512 15.5585945,18.2002571 15.5270529,18.2225114 C15.4955114,18.2447657 15.4543837,18.2481695 15.4196127,18.2314034 L12.5329563,16.8336273 C12.4997702,16.8177209 12.4771736,16.7857795 12.4732227,16.7491909 C12.4692719,16.7126024 12.4845289,16.6765735 12.5135544,16.6539494 L15.0062692,14.7120782 C15.0365127,14.6884628 15.0771369,14.6829818 15.1125575,14.6977377 L15.1125575,14.6977377 Z M12.7792753,16.7172163 L15.3377876,17.9555598 L14.9877109,14.9955138 L12.7792753,16.7163727 L12.7792753,16.7172163 Z" id="形状" fill="#E27625"></path>
            <polygon id="路径" fill="#D5BFB2" points="15.4660084 18.1360813 12.5785084 16.7383052 12.8138612 18.6135353 12.7885544 19.4090107 15.4660084 18.1360813"></polygon>
            <path d="M12.5169287,16.6522623 C12.5485221,16.6296745 12.5899201,16.6261169 12.6249041,16.6429831 L15.5124041,18.0407592 C15.5490906,18.0586434 15.5722964,18.0959549 15.5721177,18.136768 C15.5719368,18.1775811 15.5484032,18.2146867 15.5115606,18.2322469 L12.8341066,19.5043328 C12.8007469,19.5201711 12.7615573,19.5175589 12.7305947,19.4974333 C12.6996322,19.4773076 12.681335,19.4425533 12.6822661,19.4056365 L12.7075729,18.6185966 L12.4730637,16.7518021 C12.4683132,16.7130869 12.4851501,16.6748799 12.5169287,16.6522623 L12.5169287,16.6522623 Z M12.7084164,16.9196702 L12.919306,18.6000383 C12.9197392,18.6056537 12.9197392,18.6112941 12.919306,18.6169095 L12.9007477,19.2377684 L15.220533,18.1352377 L12.7084164,16.9196702 Z" id="形状" fill="#D5BFB2"></path>
            <polygon id="路径" fill="#D5BFB2" points="6.51079371 18.1360813 9.19668328 19.4090107 9.17981212 18.6135353 9.40672929 16.7383052"></polygon>
            <path d="M9.46830905,16.6522623 C9.49980178,16.6747273 9.5166024,16.7125287 9.51217408,16.7509586 L9.28610046,18.6185966 L9.30297163,19.4064801 C9.30360402,19.443248 9.28518614,19.4777307 9.25427554,19.4976508 C9.22336493,19.517571 9.18435356,19.5200983 9.15113113,19.5043328 L6.46524156,18.2322469 C6.42847774,18.2145241 6.40510866,18.1773158 6.40510866,18.1365031 C6.40510866,18.0956904 6.42847774,18.058482 6.46524156,18.0407592 L9.36033359,16.6429831 C9.39516636,16.6258717 9.43655634,16.6291053 9.46830905,16.6514187 L9.46830905,16.6522623 Z M6.75711273,18.1352377 L9.08702071,19.238612 L9.07352377,18.616066 L9.07436733,18.6008819 L9.27682132,16.9188267 L6.75711273,18.1352377 Z" id="形状" fill="#D5BFB2"></path>
            <polygon id="路径" fill="#233447" points="9.24645322 13.5580905 6.84652991 12.8545629 8.54208206 12.0759586 9.24645322 13.5572469"></polygon>
            <path d="M8.49737347,11.9789494 C8.55026357,11.954286 8.61314708,11.9768789 8.6382477,12.0295629 L9.34261887,13.5116948 C9.36055141,13.5494954 9.35463987,13.5942999 9.32751678,13.6261559 C9.30039368,13.6580119 9.25710526,13.6709926 9.21692868,13.6593175 L6.81700537,12.9557899 C6.77460289,12.943352 6.74431918,12.9059762 6.74094438,12.8619162 C6.73756957,12.8178562 6.76180775,12.7763043 6.80182132,12.7575537 L8.49737347,11.9789494 L8.49737347,11.9789494 Z M7.14936733,12.8317868 L9.04906058,13.3885353 L8.490625,12.2159893 L7.14936733,12.8317868 L7.14936733,12.8317868 Z" id="形状" fill="#233447"></path>
            <polygon id="路径" fill="#233447" points="12.7387845 13.5580905 13.4431557 12.0759586 15.1471434 12.8545629 12.737941 13.5572469"></polygon>
            <path d="M13.34699,12.0295629 C13.3720778,11.977354 13.4343501,11.954846 13.4870207,11.9789494 L15.1910084,12.7575537 C15.2310562,12.7761545 15.2554323,12.8175788 15.2522463,12.8616204 C15.2490603,12.9056621 15.2189759,12.9431467 15.1766679,12.9557899 L12.768309,13.6593175 C12.7280132,13.6714494 12.6843541,13.6586648 12.6569671,13.6267133 C12.6295802,13.5947619 12.6236232,13.5496611 12.6417753,13.5116948 L13.34699,12.0295629 L13.34699,12.0295629 Z M13.4946127,12.2151457 L12.9361771,13.3885353 L14.8426189,12.8317868 L13.4946127,12.2159893 L13.4946127,12.2151457 Z" id="形状" fill="#233447"></path>
            <polygon id="路径" fill="#CC6228" points="6.51079371 18.1360813 6.93088574 14.687615 4.26186733 14.7626917 6.51079371 18.1369248"></polygon>
            <path d="M7.00933666,14.6159126 C7.03017961,14.6387643 7.04003474,14.6695616 7.03633052,14.7002684 L6.6162385,18.1487347 C6.61099433,18.1929654 6.57872846,18.2292352 6.53540926,18.2395942 C6.49209005,18.2499531 6.44690656,18.2322038 6.42222009,18.1951304 L4.17329371,14.8217408 C4.15179661,14.7896036 4.1494467,14.7483276 4.16715746,14.7139582 C4.18486823,14.6795888 4.21984575,14.6575478 4.2584931,14.6564034 L6.9275115,14.5804604 C6.95863895,14.5798421 6.98850551,14.592774 7.00933666,14.6159126 L7.00933666,14.6159126 Z M4.45672929,14.8639187 L6.43993482,17.8383052 L6.8102569,14.7972776 L4.45672929,14.8639187 L4.45672929,14.8639187 Z" id="形状" fill="#CC6228"></path>
            <polygon id="路径" fill="#CC6228" points="15.054352 14.687615 15.4660084 18.1360813 17.7233704 14.7626917 15.054352 14.6867715"></polygon>
            <path d="M14.9759011,14.6159126 C14.9968197,14.5929922 15.0267102,14.580358 15.0577262,14.5813267 L17.7267446,14.6572469 C17.7649587,14.6588719 17.7993527,14.6809039 17.8168062,14.7149382 C17.8342596,14.7489724 17.8320806,14.7897598 17.8111005,14.8217408 L15.5545821,18.1959739 C15.5297851,18.2331002 15.4844298,18.2507729 15.4410512,18.2402111 C15.3976726,18.2296494 15.365518,18.1931048 15.3605637,18.1487347 L14.9489072,14.7002684 C14.945203,14.6695616 14.9550581,14.6387643 14.9759011,14.6159126 L14.9759011,14.6159126 Z M15.1749808,14.7972776 L15.5377109,17.8383052 L17.5285084,14.8639187 L15.1749808,14.796434 L15.1749808,14.7972776 Z" id="形状" fill="#CC6228"></path>
            <polygon id="路径" fill="#CC6228" points="17.0772048 10.8865414 12.2933857 11.1041794 12.737941 13.5572469 13.4431557 12.075115 15.1471434 12.8537193 17.0772048 10.8865414"></polygon>
            <path d="M17.174214,10.8435199 C17.1921952,10.8834702 17.1838219,10.9303604 17.153125,10.9616181 L15.2230637,12.928796 C15.1915475,12.9608986 15.1432341,12.9696828 15.1024348,12.9507285 L13.4937692,12.2159893 L12.8341066,13.6027991 C12.8143215,13.6446461 12.769729,13.6688768 12.7238534,13.6627087 C12.6779778,13.6565405 12.641369,13.6213919 12.6333397,13.5758052 L12.1887845,11.1235813 C12.1831395,11.0933612 12.1908558,11.0621772 12.2099421,11.0380767 C12.2290283,11.0139762 12.2576148,10.9993203 12.2883244,10.9978911 L17.0721434,10.7802531 C17.1160084,10.778566 17.1564992,10.8038727 17.1733704,10.8435199 L17.174214,10.8435199 Z M12.4199195,11.2054064 L12.7834931,13.2130752 L13.34699,12.0295629 C13.3720778,11.977354 13.4343501,11.954846 13.4870207,11.9789494 L15.1235238,12.726342 L16.8114839,11.0054831 L12.4199195,11.2054064 L12.4199195,11.2054064 Z" id="形状" fill="#CC6228"></path>
            <polygon id="路径" fill="#CC6228" points="6.84652991 12.8537193 8.54208206 12.075115 9.24645322 13.5572469 9.69185199 11.1041794 4.90803298 10.8865414 6.84652991 12.8537193"></polygon>
            <path d="M4.81102377,10.8435199 C4.82861938,10.8036853 4.86873388,10.7786137 4.91225077,10.7802531 L9.69691334,10.9978911 C9.7276229,10.9993203 9.75620939,11.0139762 9.77529567,11.0380767 C9.79438196,11.0621772 9.80209824,11.0933612 9.79645322,11.1235813 L9.35189801,13.5758052 C9.34386872,13.6213919 9.30725998,13.6565405 9.26138436,13.6627087 C9.21550873,13.6688768 9.17091621,13.6446461 9.15113113,13.6027991 L8.490625,12.2159893 L6.8912385,12.949885 C6.8506124,12.9690523 6.80232293,12.9606101 6.77060966,12.928796 L4.83211273,10.9616181 C4.80141579,10.9303604 4.79304254,10.8834702 4.81102377,10.8435199 L4.81102377,10.8435199 Z M5.17375383,11.0054831 L6.86930598,12.726342 L8.49737347,11.9789494 C8.55026357,11.954286 8.61314708,11.9768789 8.6382477,12.0295629 L9.20090107,13.2139187 L9.56531825,11.2054064 L5.17375383,11.0054831 L5.17375383,11.0054831 Z" id="形状" fill="#CC6228"></path>
            <polygon id="路径" fill="#E27525" points="4.90803298 10.8865414 6.91401457 14.7955905 6.84652991 12.8537193"></polygon>
            <path d="M4.84560966,10.8004985 C4.88778758,10.7701304 4.94683666,10.7751917 4.98395322,10.8123083 L6.92245015,12.7794862 C6.94108379,12.7984731 6.95191989,12.8237573 6.95281825,12.8503451 L7.02030291,14.7922163 C7.02205211,14.841962 6.98904342,14.8862588 6.94087454,14.8988069 C6.89270566,14.9113551 6.84228004,14.8887934 6.81953604,14.8445169 L4.81355445,10.9354678 C4.78936032,10.8887453 4.80299102,10.8313529 4.84560966,10.8004985 L4.84560966,10.8004985 Z M5.31968942,11.4559433 L6.79085506,14.3240414 L6.74192868,12.8984279 L5.31968942,11.4559433 L5.31968942,11.4559433 Z" id="形状" fill="#E27525"></path>
            <polygon id="路径" fill="#E27525" points="15.1471434 12.8537193 15.0712232 14.7955905 17.0772048 10.8865414"></polygon>
            <path d="M17.1396281,10.8004985 C17.181806,10.8317101 17.1961465,10.8882285 17.1716833,10.9354678 L15.1657017,14.8445169 C15.1429577,14.8887934 15.0925321,14.9113551 15.0443632,14.8988069 C14.9961943,14.8862588 14.9631856,14.841962 14.9649348,14.7922163 L15.0408551,12.8495015 C15.041961,12.8232084 15.0527818,12.7982604 15.0712232,12.7794862 L17.0012845,10.8123083 C17.0381013,10.7746339 17.0969583,10.7696095 17.1396281,10.8004985 Z M15.2517446,12.8992715 L15.1960698,14.3198236 L16.6638612,11.460161 L15.2517446,12.8992715 Z" id="形状" fill="#E27525"></path>
            <polygon id="路径" fill="#E27525" points="9.69185199 11.1041794 9.24729678 13.5572469 9.8091066 16.4531825 9.93564034 12.6360813 9.69185199 11.1041794"></polygon>
            <path d="M9.69353911,10.9978784 C9.74499617,10.9987347 9.7888612,11.0366948 9.79729678,11.0881518 L10.0402416,12.6200537 C10.0414814,12.6267285 10.0420466,12.6335111 10.0419287,12.6402991 L9.91539494,16.4574003 C9.91441879,16.5120783 9.87211205,16.5570919 9.81759952,16.5614529 C9.76308698,16.5658139 9.71416194,16.5280988 9.70450537,16.4742715 L9.14269555,13.5774923 C9.14018864,13.5643955 9.14018864,13.550942 9.14269555,13.5378451 L9.58725077,11.0856212 C9.59635249,11.0342581 9.64138202,10.9970909 9.69353911,10.9978784 L9.69353911,10.9978784 Z M9.35527224,13.5564034 L9.73487347,15.5083972 L9.82850844,12.6428298 L9.68510353,11.7385353 L9.35527224,13.5564034 L9.35527224,13.5564034 Z" id="形状" fill="#E27525"></path>
            <polygon id="路径" fill="#E27525" points="12.2933857 11.1041794 12.058033 12.6276457 12.1761311 16.4531825 12.737941 13.5572469"></polygon>
            <path d="M12.2916986,10.9978911 C12.3439992,10.9978911 12.3887078,11.0341641 12.397987,11.0856212 L12.8425422,13.5378451 C12.8450491,13.550942 12.8450491,13.5643955 12.8425422,13.5774923 L12.2807324,16.4734279 C12.2710758,16.5272553 12.2221507,16.5649704 12.1676382,16.5606094 C12.1131257,16.5562484 12.0708189,16.5112347 12.0698428,16.4565567 L11.9517446,12.6310199 C11.9517446,12.625115 11.9517446,12.6183666 11.9534317,12.6116181 L12.1887845,11.0881518 C12.1966243,11.0367291 12.2405292,10.9985354 12.2925422,10.9978911 L12.2916986,10.9978911 Z M12.3018213,11.7469709 L12.1651649,12.6343942 L12.2528949,15.4991181 L12.6299655,13.5564034 L12.3018213,11.7469709 Z" id="形状" fill="#E27525"></path>
            <polygon id="路径" fill="#F5841F" points="12.7387845 13.5580905 12.1761311 16.4540261 12.5785084 16.7383052 15.0712232 14.796434 15.1471434 12.8537193 12.737941 13.5572469"></polygon>
            <path d="M15.2120974,12.7702071 C15.2390913,12.791296 15.2542753,12.8241948 15.2534317,12.8579371 L15.1775115,14.8006518 C15.1762687,14.8317351 15.1614711,14.8607137 15.1370207,14.8799463 L12.644306,16.8218175 C12.6074691,16.8506725 12.5560946,16.8520425 12.5177722,16.8251917 L12.1145514,16.5409126 C12.0806931,16.5165682 12.0641991,16.4746733 12.0723735,16.4337807 L12.6341833,13.5370015 C12.641695,13.4979987 12.6703269,13.4664385 12.7084164,13.4551764 L15.1176189,12.7524923 C15.1501353,12.7430057 15.1852263,12.7495852 15.2120974,12.7702071 L15.2120974,12.7702071 Z M12.8315759,13.6424463 L12.2942293,16.4076304 L12.5768213,16.6067101 L14.968309,14.7432899 L15.0357937,12.9988113 L12.8307324,13.6424463 L12.8315759,13.6424463 Z" id="形状" fill="#F5841F"></path>
            <polygon id="路径" fill="#F5841F" points="6.84652991 12.8537193 6.91401457 14.796434 9.40672929 16.7383052 9.8091066 16.4540261 9.24729678 13.5572469"></polygon>
            <path d="M6.78157592,12.7702071 C6.80864947,12.7493102 6.84412443,12.7427175 6.87689801,12.7524923 L9.27682132,13.4551764 C9.31478144,13.4661426 9.34430598,13.4973543 9.35105445,13.5370015 L9.91370782,16.4337807 C9.92170113,16.4748461 9.90486117,16.5167809 9.87068635,16.5409126 L9.46746549,16.8251917 C9.42932712,16.8522876 9.37795622,16.8512601 9.34093175,16.822661 L6.84821702,14.8799463 C6.82354609,14.8605254 6.80872415,14.8311903 6.80772623,14.7998083 L6.74024156,12.8579371 C6.73909822,12.8237458 6.75448212,12.7910943 6.78157592,12.7702071 Z M6.95872316,12.9979678 L7.01777224,14.7432899 L9.40925997,16.6058666 L9.69185199,16.4067868 L9.15534893,13.6407592 L6.9578796,12.9979678 L6.95872316,12.9979678 Z" id="形状" fill="#F5841F"></path>
            <polygon id="路径" fill="#C0AC9D" points="12.789398 19.4081672 12.8138612 18.6135353 12.5953796 18.428796 9.38985813 18.428796 9.17981212 18.6135353 9.19668328 19.4081672 6.51079371 18.1360813 7.4513612 18.90625 9.3561158 20.2205138 12.6206863 20.2205138 14.5338765 18.90625 15.4660084 18.1360813 12.7885544 19.4081672"></polygon>
            <path d="M6.42053298,18.0795629 C6.44915509,18.03376 6.50757699,18.0167052 6.55634586,18.0399156 L9.08702071,19.238612 L9.07352377,18.6152224 C9.07352377,18.5840107 9.08617715,18.5544862 9.10979678,18.5333972 L9.31984279,18.3495015 C9.33912316,18.3322905 9.364014,18.322694 9.38985813,18.3225077 L12.5953796,18.3225077 C12.6206863,18.3225077 12.6451495,18.3309433 12.6645514,18.3478144 L12.8821894,18.5317101 C12.9074962,18.5527991 12.9209931,18.5840107 12.9201495,18.616066 L12.9007477,19.2377684 L15.4204563,18.0399156 C15.4688774,18.0172208 15.5266201,18.0340345 15.5552884,18.0791763 C15.5839567,18.1243181 15.5746227,18.1837302 15.5334931,18.2179064 L14.5946127,18.9939801 L12.6814225,20.3082439 C12.6635416,20.3204751 12.64235,20.3269504 12.6206863,20.3268068 L9.3561158,20.3268068 C9.3344443,20.3270047 9.31323675,20.3205246 9.2953796,20.3082439 L7.38303298,18.9889187 L6.44330905,18.21875 C6.40187737,18.184562 6.39246587,18.1248352 6.42137653,18.0795629 L6.42053298,18.0795629 Z M7.24890721,18.6034126 L7.51462807,18.8210506 L9.38901457,20.1142255 L12.5877876,20.1142255 L14.4706097,18.8210506 L14.7380176,18.5991948 L12.8341066,19.5043328 C12.8007469,19.5201711 12.7615573,19.5175589 12.7305947,19.4974333 C12.6996322,19.4773076 12.681335,19.4425533 12.6822661,19.4056365 L12.7058857,18.6616181 L12.5565759,18.5350844 L9.42950537,18.5350844 L9.28694402,18.6607745 L9.30297163,19.4064801 C9.30360402,19.443248 9.28518614,19.4777307 9.25427554,19.4976508 C9.22336493,19.517571 9.18435356,19.5200983 9.15113113,19.5043328 L7.24890721,18.6034126 L7.24890721,18.6034126 Z" id="形状" fill="#C0AC9D"></path>
            <polygon id="路径" fill="#161616" points="12.5785084 16.7383052 12.1761311 16.4531825 9.8091066 16.4531825 9.40672929 16.7383052 9.17981212 18.6135353 9.38985813 18.428796 12.5953796 18.428796 12.8138612 18.6135353"></polygon>
            <path d="M9.74752684,16.3671396 C9.76544463,16.3541437 9.78697269,16.347066 9.8091066,16.3468942 L12.1761311,16.3468942 C12.1980637,16.3468942 12.2191526,16.3544862 12.2377109,16.3671396 L12.6400882,16.6514187 C12.6645514,16.6682899 12.680579,16.6952837 12.6839532,16.7248083 L12.919306,18.6000383 C12.9246588,18.6433803 12.9029556,18.6855856 12.8645884,18.7064454 C12.8262212,18.7273053 12.778999,18.7225739 12.745533,18.6945169 L12.5565759,18.5350844 L9.42950537,18.5350844 L9.24982745,18.6928298 C9.21668129,18.7217951 9.16911035,18.7273318 9.13019791,18.7067531 C9.09128547,18.6861744 9.06908432,18.643739 9.07436733,18.6000383 L9.30044095,16.7256518 C9.30412216,16.6956799 9.32037828,16.6686886 9.34514954,16.6514187 L9.74752684,16.3671396 L9.74752684,16.3671396 Z M9.84284893,16.5594709 L9.50626917,16.7973543 L9.31899923,18.3495015 C9.33849683,18.3320979 9.36372305,18.3224879 9.38985813,18.3225077 L12.5953796,18.3225077 C12.6206863,18.3225077 12.6451495,18.3309433 12.6645514,18.3478144 L12.6746741,18.35625 L12.4789686,16.7981979 L12.1415452,16.5594709 L9.84284893,16.5594709 L9.84284893,16.5594709 Z" id="形状" fill="#161616"></path>
            <polygon id="路径" fill="#763E1A" points="21.1389379 6.81805982 21.8525882 3.35272239 20.7787385 0.130329755 12.579352 6.19888804 15.73426 8.86115798 20.1907784 10.1585506 21.1726802 9.01131135 20.7449962 8.70172546 21.4249041 8.08255368 20.9044287 7.68101994 21.5843367 7.1622316 21.1389379 6.81890337"></polygon>
            <path d="M20.8107937,0.0291027607 C20.8430133,0.039439102 20.8683862,0.0644987546 20.8791219,0.0965874233 L21.9538152,3.31898006 C21.9595557,3.33699009 21.9604288,3.35619836 21.9563459,3.37465491 L21.2561925,6.77419479 L21.6492906,7.07787577 C21.6755305,7.09798994 21.690916,7.12916938 21.690916,7.1622316 C21.690916,7.19529381 21.6755305,7.22647325 21.6492906,7.24658742 L21.0790452,7.68101994 L21.4898581,7.99819785 C21.5147783,8.01737723 21.5299265,8.04660701 21.5312289,8.07802624 C21.5325312,8.10944547 21.519854,8.13982864 21.4966066,8.1610046 L20.9128643,8.69244632 L21.2351035,8.9252684 C21.2594404,8.94265756 21.2753239,8.9694963 21.278856,8.99919801 C21.2823881,9.02889972 21.2732418,9.05871497 21.2536618,9.08132669 L20.27176,10.228566 C20.2443927,10.2599889 20.2011881,10.2725215 20.1612538,10.2606212 L15.7047354,8.96322853 C15.6904766,8.95897018 15.6772612,8.95178794 15.6659317,8.94213957 L12.5110238,6.28071319 C12.4859226,6.25992072 12.4717495,6.22876068 12.4725383,6.19617667 C12.4733951,6.16359266 12.4891229,6.1331877 12.5152416,6.11368865 L20.7146281,0.0451303681 C20.7420511,0.0242457007 20.7778992,0.0179565644 20.8107937,0.0282592025 L20.8107937,0.0291027607 Z M12.7505943,6.20394939 L15.785717,8.76499233 L20.1553489,10.0370782 L21.0174655,9.02986963 L20.6825729,8.7877684 C20.6567181,8.76900954 20.640671,8.73961732 20.638872,8.70772493 C20.6370729,8.67583254 20.6497127,8.64482208 20.6732937,8.62327454 L21.2595667,8.08930215 L20.8394747,7.76537577 C20.8132348,7.74526159 20.7978494,7.71408215 20.7978494,7.68101994 C20.7978494,7.64795773 20.8132348,7.61677829 20.8394747,7.59666411 L21.4097201,7.16138804 L21.0739839,6.90241564 C21.0420104,6.87753516 21.0269617,6.83664198 21.0351802,6.79697086 L21.7429256,3.35947086 L20.7239072,0.302415644 L12.7497508,6.20479294 L12.7505943,6.20394939 Z" id="形状" fill="#763E1A"></path>
            <polygon id="路径" fill="#763E1A" points="0.133493098 3.35356595 0.854735429 6.81890337 0.393309049 7.1622316 1.08165261 7.68101994 0.561177147 8.08339724 1.24108512 8.70256902 0.812557515 9.01215491 1.79445936 10.1593942 6.25097776 8.86200153 9.40672929 6.1997316 1.20734279 0.131173313"></polygon>
            <path d="M1.17528758,0.0291027607 C1.20753879,0.0191399998 1.24260492,0.0250887189 1.2697661,0.0451303681 L9.46915261,6.11368865 C9.49548586,6.13292145 9.51153339,6.16317771 9.51275201,6.19576626 C9.51383764,6.22835481 9.49996683,6.25966879 9.47505752,6.28071319 L6.32014954,8.94213957 C6.30858659,8.9519127 6.29506919,8.95910281 6.2805023,8.96322853 L1.8239839,10.2597776 C1.78414199,10.2711181 1.74134138,10.2582779 1.71432132,10.2268788 L0.73157592,9.07963957 C0.712282802,9.05706569 0.703312811,9.02745016 0.706838213,8.99796498 C0.710363615,8.96847979 0.726062913,8.94181385 0.750134202,8.92442485 L1.07237347,8.69160276 L0.489474693,8.16016104 C0.466129701,8.139106 0.453303051,8.10879662 0.454442514,8.07737999 C0.455581978,8.04596335 0.470570646,8.01666282 0.495379601,7.99735429 L0.906192485,7.68101994 L0.32919862,7.24574387 C0.302302019,7.22568257 0.286457711,7.19409865 0.286457711,7.16054448 C0.286457711,7.1269903 0.302302019,7.09540639 0.32919862,7.07534509 L0.73663727,6.77250767 L0.0280483129,3.37381135 C0.0241967558,3.3552836 0.0253616103,3.3360635 0.031422546,3.3181365 L1.1061158,0.095743865 C1.1170226,0.0634615734 1.14274586,0.0383657092 1.17528758,0.0282592025 L1.17528758,0.0291027607 Z M1.26133052,0.302415644 L0.242312117,3.35947086 L0.958493098,6.79697086 C0.967034909,6.83752141 0.951229821,6.87933904 0.918002301,6.90410276 L0.570456288,7.1622316 L1.14491948,7.59582055 C1.17126038,7.61580322 1.18680212,7.64690584 1.18696744,7.67996825 C1.18713275,7.71303066 1.1719028,7.74428714 1.14576304,7.76453221 L0.725671012,8.08930215 L1.31194402,8.62327454 C1.33561836,8.64470079 1.34840584,8.67563512 1.34677052,8.70752374 C1.34513521,8.73941237 1.32925038,8.76887633 1.30350844,8.7877684 L0.968615798,9.02986963 L1.83073236,10.0370782 L6.19952071,8.76499233 L9.2346434,6.20479294 L1.26133052,0.302415644 L1.26133052,0.302415644 Z" id="形状" fill="#763E1A"></path>
            <polygon id="路径" fill="#F5841F" points="20.1907784 10.1585506 15.73426 8.86115798 17.0772048 10.8865414 15.0712232 14.796434 17.7233704 14.7626917 21.6847201 14.7626917 20.1916219 10.1585506"></polygon>
            <path d="M15.6490606,8.7978911 C15.6754726,8.76230414 15.7211932,8.74683982 15.7637845,8.75908742 L20.2203029,10.0564801 C20.2540452,10.0666028 20.2810391,10.0919095 20.2920054,10.1256518 L21.7851035,14.7297929 C21.7956012,14.7620405 21.7900802,14.7973616 21.7702426,14.8248675 C21.750405,14.8523734 21.7186326,14.8687616 21.6847201,14.8689801 L17.724214,14.8689801 L15.0729103,14.902738 C15.0354737,14.903362 15.0004619,14.8842571 14.9807422,14.8524287 C14.9610225,14.8206004 14.9595039,14.7807442 14.9767446,14.7475077 L16.9540452,10.8932899 L15.6465299,8.9193635 C15.6218668,8.88233381 15.6228766,8.83386148 15.6490606,8.7978911 L15.6490606,8.7978911 Z M15.9831097,9.04421012 L17.1657784,10.8283359 C17.1869492,10.8603598 17.1892064,10.9013112 17.1716833,10.9354678 L15.2466833,14.687615 L17.7233704,14.6564034 L21.5387845,14.6564034 L20.1072661,10.2445936 L15.9831097,9.04421012 L15.9831097,9.04421012 Z" id="形状" fill="#F5841F"></path>
            <polygon id="路径" fill="#F5841F" points="6.25097776 8.86115798 1.79445936 10.1585506 0.308953221 14.7626917 4.26102377 14.7626917 6.91317101 14.796434 4.90718942 10.8865414 6.2501342 8.86115798"></polygon>
            <path d="M6.33617715,8.7978911 C6.36317101,8.83416411 6.36401457,8.88224693 6.33955138,8.92020706 L5.03119248,10.8941334 L7.0084931,14.7475077 C7.02573381,14.7807442 7.02421526,14.8206004 7.00449554,14.8524287 C6.98477581,14.8842571 6.94976408,14.903362 6.91232745,14.902738 L4.26102377,14.8689801 L0.308953221,14.8689801 C0.274891909,14.8690308 0.242869595,14.8527543 0.222835673,14.8252076 C0.202801751,14.797661 0.19718339,14.7621816 0.207726227,14.7297929 L1.6923888,10.1256518 C1.70349749,10.0919236 1.7307161,10.065971 1.76493482,10.0564801 L6.22145322,8.75908742 C6.26404455,8.74683982 6.30976516,8.76230414 6.33617715,8.7978911 L6.33617715,8.7978911 Z M1.87797163,10.2445936 L0.454888804,14.6564034 L4.26271089,14.6564034 L6.73855445,14.687615 L4.81355445,10.9354678 C4.79603137,10.9013112 4.79828854,10.8603598 4.81945936,10.8283359 L6.00212807,9.04421012 L1.87797163,10.2445936 Z" id="形状" fill="#F5841F"></path>
            <polygon id="路径" fill="#F5841F" points="12.2933857 11.1041794 12.5785084 6.19888804 13.8708397 2.70824387 8.11355445 2.70824387 9.40672929 6.19888804 9.69185199 11.1041794 9.80151457 12.6445169 9.80995015 16.4531825 12.1761311 16.4531825 12.1845667 12.6445169 12.2933857 11.1041794"></polygon>
            <path d="M8.02666794,2.64750767 C8.04647163,2.61906642 8.07889787,2.6019526 8.11355445,2.6019526 L13.8708397,2.6019526 C13.9058005,2.6016965 13.9386528,2.61864685 13.958702,2.64728859 C13.9787512,2.67593032 13.983433,2.71260008 13.9712232,2.74536043 L12.6839532,6.22082055 L12.3996741,11.1117715 L12.2900115,12.6487347 L12.2815759,16.4531825 C12.2815759,16.5122316 12.2343367,16.5603144 12.1761311,16.5603144 L9.8091066,16.5603144 C9.75040516,16.5603144 9.70281825,16.5127275 9.70281825,16.4540261 L9.69438267,12.6487347 L9.58556365,11.1117715 L9.58556365,11.1109279 L9.30128451,6.22082055 L8.01401457,2.74536043 C8.0019202,2.7126426 8.00664904,2.67607292 8.02666794,2.64750767 Z M8.2662385,2.81453221 L9.50626917,6.16177147 C9.50977752,6.17182413 9.51176769,6.18234362 9.51217408,6.19298313 L9.79814034,11.097431 L9.79814034,11.0982745 L9.90780291,12.6445169 L9.91539494,16.3477377 L12.0698428,16.3477377 L12.0782784,12.6369248 L12.187941,11.0982745 L12.187941,11.0965874 L12.4722201,6.19298313 C12.4730637,6.18286043 12.4755943,6.17189417 12.4789686,6.16177147 L13.7189992,2.81453221 L8.26708206,2.81453221 L8.2662385,2.81453221 Z" id="形状" fill="#F5841F"></path>
        </g>
    </g>
</svg>