<?xml version="1.0" encoding="UTF-8"?>
<svg width="23px" height="23px" viewBox="0 0 23 23" version="1.1" xmlns="http://www.w3.org/2000/svg" xmlns:xlink="http://www.w3.org/1999/xlink">
    <title>Near Logo</title>
    <g id="页面-1" stroke="none" stroke-width="1" fill="none" fill-rule="evenodd">
        <g id="Near-Logo" fill-rule="nonzero">
            <circle id="椭圆形" fill="#FFFFFF" cx="11.5" cy="11.5" r="11.5"></circle>
            <g id="NEAR-Protocol-(NEAR)-Logo" transform="translate(3.838687, 3.723261)" fill="#000000">
                <path d="M12.8213097,0.817777778 L9.48279689,5.77777777 C9.25194228,6.11555555 9.69589346,6.52444444 10.0155383,6.24 L13.300777,3.37777778 C13.3895671,3.30666667 13.5138735,3.36 13.5138735,3.48444444 L13.5138735,12.4266667 C13.5138735,12.5511111 13.3540511,12.6044445 13.2830189,12.5155555 L3.33851277,0.604444444 C3.01886793,0.213333333 2.55715871,0 2.04217536,0 L1.68701443,0 C0.763596004,0 0,0.764444444 0,1.70666667 L0,14.2933333 C0,15.2355556 0.763596004,16 1.70477248,16 C2.29078801,16 2.84128746,15.6977777 3.1609323,15.1822222 L6.49944507,10.2222222 C6.73029967,9.88444444 6.28634851,9.47555554 5.96670366,9.76 L2.68146504,12.6044445 C2.5926748,12.6755555 2.46836847,12.6222222 2.46836847,12.4977778 L2.46836847,3.57333333 C2.46836847,3.44888889 2.62819089,3.39555555 2.69922309,3.48444444 L12.6437292,15.3955555 C12.9633741,15.7866667 13.4428412,16 13.9400666,16 L14.2952275,16 C15.236404,16 16,15.2355556 16,14.2933333 L16,1.70666667 C16,0.764444444 15.236404,0 14.2952275,0 C13.691454,0 13.1409545,0.302222222 12.8213097,0.817777778 Z" id="路径"></path>
            </g>
        </g>
    </g>
</svg>