<?xml version="1.0" encoding="UTF-8"?>
<svg width="24px" height="28px" viewBox="0 0 24 28" version="1.1" xmlns="http://www.w3.org/2000/svg" xmlns:xlink="http://www.w3.org/1999/xlink">
    <title>Node iCON</title>
    <g id="页面-1" stroke="none" stroke-width="1" fill="none" fill-rule="evenodd">
        <g id="(B)Node-Detail" transform="translate(-281.000000, -213.000000)">
            <g id="Node-iCON" transform="translate(281.000000, 213.000000)">
                <path d="M17.6223776,17.6223776 L17.6223776,19.5804196 L18.6013986,19.5804196 C19.7762238,19.5804196 20.5594406,20.3636364 20.5594406,21.5384615 L20.5594406,25.4545455 C20.5594406,26.6293706 19.7762238,27.4125874 18.6013986,27.4125874 L14.6853147,27.4125874 C13.5104895,27.4125874 12.7272727,26.6293706 12.7272727,25.4545455 L12.7272727,21.5384615 C12.7272727,20.3636364 13.5104895,19.5804196 14.6853147,19.5804196 L15.6643357,19.5804196 L15.6643357,17.6223776 L1.95804196,17.6223776 C0.783216783,17.6223776 0,16.8391608 0,15.6643357 L0,1.95804196 C0,0.783216783 0.783216783,0 1.95804196,0 L21.5384615,0 C22.7132867,0 23.4965035,0.783216783 23.4965035,1.95804196 L23.4965035,15.6643357 C23.4965035,16.8391608 22.7132867,17.6223776 21.5384615,17.6223776 L17.6223776,17.6223776 Z M17.6223776,17.6570804 L15.6643357,17.6570804 L17.6223776,17.6570804 Z M2.34965035,2.34965035 L2.34965035,15.4685315 L21.3426573,15.4685315 L21.3426573,2.34965035 L2.34965035,2.34965035 Z" id="形状" fill="#E2B578" fill-rule="nonzero"></path>
                <rect id="矩形" fill="#FBE5C3" x="4.53669851" y="4.02762493" width="14.6200466" height="9.74669775"></rect>
                <path d="M1,23.9189189 C1,23.4324324 1.32727273,23.1081081 1.81818182,23.1081081 L5.90909091,23.1081081 L5.90909091,21 C5.90909091,21 7.21818182,21.972973 10,23.9189189 C7.21818182,26.027027 5.90909091,27 5.90909091,27 L5.90909091,24.7297297 L1.81818182,24.7297297 C1.32727273,24.7297297 1,24.4054054 1,23.9189189 Z" id="路径" fill="#65533D" fill-rule="nonzero"></path>
            </g>
        </g>
    </g>
</svg>