<?xml version="1.0" encoding="UTF-8"?>
<svg width="108px" height="108px" viewBox="0 0 108 108" version="1.1" xmlns="http://www.w3.org/2000/svg" xmlns:xlink="http://www.w3.org/1999/xlink">
    <title>Node Service iCON</title>
    <defs>
        <linearGradient x1="50%" y1="0%" x2="75.1201466%" y2="95.8922774%" id="linearGradient-1">
            <stop stop-color="#E2B679" offset="0%"></stop>
            <stop stop-color="#E1B21C" offset="100%"></stop>
        </linearGradient>
        <linearGradient x1="15.7598914%" y1="32.8794036%" x2="93.5955917%" y2="67.2191941%" id="linearGradient-2">
            <stop stop-color="#E2DACF" offset="0%"></stop>
            <stop stop-color="#BBA48F" offset="100%"></stop>
        </linearGradient>
        <linearGradient x1="91.6601178%" y1="50%" x2="14.4596138%" y2="50%" id="linearGradient-3">
            <stop stop-color="#FFC06A" offset="0%"></stop>
            <stop stop-color="#65533D" offset="100%"></stop>
        </linearGradient>
    </defs>
    <g id="页面-1" stroke="none" stroke-width="1" fill="none" fill-rule="evenodd">
        <g id="(B)Payment-Cancel" transform="translate(-272.000000, -186.000000)">
            <g id="Node-Service-iCON" transform="translate(272.000000, 186.000000)">
                <circle id="椭圆形" fill-opacity="0.0968640734" fill="#E2B578" cx="54" cy="54" r="54"></circle>
                <circle id="椭圆形" fill-opacity="0.0968640734" fill="#E2B578" cx="54" cy="54" r="45"></circle>
                <circle id="椭圆形" fill-opacity="0.0968640734" fill="#E2B578" cx="54" cy="54" r="39"></circle>
                <g id="Node-iCON" transform="translate(34.000000, 32.000000)" fill-rule="nonzero">
                    <path d="M27.9025225,27.9025225 L27.9025225,31.0028029 L29.4526627,31.0028029 C31.3128309,31.0028029 32.5529431,32.242915 32.5529431,34.1030831 L32.5529431,40.3036438 C32.5529431,42.1638119 31.3128309,43.403924 29.4526627,43.403924 L23.2521022,43.403924 C21.391934,43.403924 20.1518218,42.1638119 20.1518218,40.3036438 L20.1518218,34.1030831 C20.1518218,32.242915 21.391934,31.0028029 23.2521022,31.0028029 L24.8022423,31.0028029 L24.8022423,27.9025225 L3.10028029,27.9025225 C1.24011211,27.9025225 0,26.6624104 0,24.8022423 L0,3.10028029 C0,1.24011211 1.24011211,0 3.10028029,0 L34.1030831,0 C35.9632513,0 37.2033634,1.24011211 37.2033634,3.10028029 L37.2033634,24.8022423 C37.2033634,26.6624104 35.9632513,27.9025225 34.1030831,27.9025225 L27.9025225,27.9025225 Z M27.9025225,27.9574695 L24.8022423,27.9574695 L27.9025225,27.9574695 Z M3.72033634,3.72033634 L3.72033634,24.4922143 L33.7930551,24.4922143 L33.7930551,3.72033634 L3.72033634,3.72033634 Z" id="形状" fill="url(#linearGradient-1)"></path>
                    <rect id="矩形" fill="url(#linearGradient-2)" x="7.1832153" y="6.37716987" width="23.1487594" height="15.4325063"></rect>
                    <path d="M1.58335743,37.872198 C1.58335743,37.101916 2.10154714,36.5883947 2.8788317,36.5883947 L9.35620301,36.5883947 L9.35620301,34.6774991 C9.35620301,34.2716704 9.68519215,33.9426813 10.0910208,33.9426813 C10.2440454,33.9426813 10.3932524,33.9904548 10.5178191,34.0793348 L15.2896497,37.4841005 C15.5098877,37.6412432 15.5610365,37.9471708 15.4038937,38.1674088 C15.3748583,38.2081023 15.3397653,38.2441118 15.2998337,38.2741864 L10.5330951,41.8642707 C10.2089235,42.1084215 9.74820704,42.0435519 9.50405615,41.7193803 C9.40809967,41.5919739 9.35620301,41.4368052 9.35620301,41.277306 L9.35620301,39.1560013 L9.35620301,39.1560013 L2.8788317,39.1560013 C2.10154714,39.1560013 1.58335743,38.64248 1.58335743,37.872198 Z" id="路径" fill="url(#linearGradient-3)"></path>
                </g>
            </g>
        </g>
    </g>
</svg>