<?xml version="1.0" encoding="UTF-8"?>
<svg width="201px" height="201px" viewBox="0 0 201 201" version="1.1" xmlns="http://www.w3.org/2000/svg" xmlns:xlink="http://www.w3.org/1999/xlink">
    <title>Ops</title>
    <g id="iCON" stroke="none" stroke-width="1" fill="none" fill-rule="evenodd">
        <path d="M101.590578,0.84289885 C127.54682,0.84289885 151.003139,11.5655552 167.760442,28.8507114 C168.541668,29.6319614 169.674446,29.9835239 170.748633,29.7100864 C172.701698,29.202274 174.752417,28.9483677 176.881259,28.9678989 C189.791023,29.1241489 200.220393,39.846805 200.025087,52.7764926 C199.927433,59.4561802 197.017366,65.4718051 192.427661,69.6710238 C191.607374,70.4327425 191.255822,71.565555 191.50972,72.6593051 C192.99405,79.2022738 193.775276,86.0186801 193.775276,93.0303988 C193.775276,136.585086 163.580882,173.088993 122.976647,182.717899 C121.921991,182.971805 121.062643,183.733524 120.730621,184.749149 C117.644778,194.104618 108.836451,200.842899 98.4656728,200.842899 C87.489444,200.842899 78.2709741,193.303836 75.7319887,183.108524 C75.4585594,182.053836 74.6773331,181.233524 73.6422083,180.901493 C36.3972463,169.065555 9.40587911,134.202274 9.40587911,93.0303988 C9.40587911,87.0928988 9.97226813,81.311649 11.0464543,75.6866489 C11.065985,75.530399 11.0073931,75.3741489 10.8706784,75.2960239 C4.42556174,71.17493 0.128817378,64.0069613 0.0294563746,55.8233676 C-0.125081281,42.8350863 10.4605346,32.1124301 23.4484211,32.0928988 C25.5186708,32.0928988 27.5107977,32.346805 29.4248021,32.8546176 C30.5771108,33.1475863 31.8075421,32.7960239 32.5887684,31.8975863 C49.4632557,12.8546176 74.1304749,0.84289885 101.590578,0.84289885 Z M101.590578,13.3428988 C90.8291862,13.3428988 80.3998155,15.4522738 70.5758953,19.5928988 C61.0839963,23.6163363 52.5686301,29.358524 45.2446339,36.6632115 C44.6001223,37.3272739 43.9556105,37.9913364 43.3110989,38.6749302 C42.3150353,39.7296177 42.1783207,41.311649 42.9790776,42.5225864 C45.459471,46.2335239 46.9047396,50.7061802 46.9047396,55.5108677 C46.9047396,68.4600864 36.416777,78.9483677 23.4679518,78.9483677 C23.2726453,78.9483677 23.1164001,79.0850865 23.0773387,79.2608677 C22.2961124,83.7725864 21.9054993,88.3624301 21.9054993,93.0108677 C21.9054993,103.772586 23.9952795,114.202274 28.1553093,124.026493 C32.1786247,133.51868 37.9206379,142.034305 45.2446339,149.358524 C52.5686299,156.682743 61.0839963,162.444461 70.5758953,166.448368 C71.7086735,166.936649 72.8414515,167.366336 73.9742296,167.796024 C75.4390289,168.342899 77.0600733,167.717899 77.8022382,166.33118 C81.7474308,158.967899 89.5206321,153.967899 98.4656728,153.967899 C108.035695,153.967899 116.258101,159.690555 119.910334,167.89368 C120.535315,169.319461 122.097767,170.08118 123.582097,169.651493 C126.628879,168.792118 129.656131,167.717899 132.60526,166.467899 C142.09716,162.444461 150.612526,156.702274 157.936522,149.378055 C165.260518,142.053836 171.022062,133.538211 175.025846,124.046024 C179.166345,114.221805 181.275656,103.792118 181.275656,93.0303988 C181.275656,88.0694614 180.826451,83.1866489 179.947572,78.4014927 C179.654612,76.8975863 178.326527,75.8233676 176.803136,75.8428988 L176.803136,75.8428988 L176.256278,75.8428988 C163.580882,75.6671176 153.249164,65.2764926 153.151511,52.6007114 C153.11245,47.7178989 154.557718,43.1866489 157.077173,39.4171176 C157.916991,38.1671176 157.741215,36.48743 156.647498,35.4327425 L156.647498,35.4327425 L156.510784,35.2960239 C149.518809,28.6163363 141.491709,23.3428988 132.60526,19.5928988 C122.78134,15.4522738 112.35197,13.3428988 101.590578,13.3428988 Z M99.7490362,50 C123.910962,50 143.498072,69.5871107 143.498072,93.7490362 C143.498072,117.910962 123.910962,137.498072 99.7490362,137.498072 C75.5871107,137.498072 56,117.910962 56,93.7490362 C56,69.5871107 75.5871107,50 99.7490362,50 Z" id="Ops" fill="currentColor" fill-rule="nonzero"></path>
    </g>
</svg>