<?xml version="1.0" encoding="UTF-8"?>
<svg width="23px" height="23px" viewBox="0 0 23 23" version="1.1" xmlns="http://www.w3.org/2000/svg" xmlns:xlink="http://www.w3.org/1999/xlink">
    <title>Optimism (OP )Logo</title>
    <g id="页面-1" stroke="none" stroke-width="1" fill="none" fill-rule="evenodd">
        <g id="Optimism-(OP-)Logo" fill-rule="nonzero">
            <circle id="椭圆形" fill="#FF0420" cx="11.5" cy="11.5" r="11.5"></circle>
            <path d="M8.1466,14.5544 C7.4612,14.5544 6.9,14.3934 6.463,14.0714 C6.0306,13.7448 5.8144,13.2756 5.8144,12.673 C5.8144,12.5442 5.8282,12.3924 5.8558,12.2084 C5.9294,11.7944 6.0352,11.2976 6.1732,10.7134 C6.5642,9.131 7.5762,8.3398 9.2046,8.3398 C9.6462,8.3398 10.0464,8.4134 10.396,8.5652 C10.7456,8.7078 11.0216,8.9286 11.224,9.223 C11.4264,9.5128 11.5276,9.8578 11.5276,10.258 C11.5276,10.3776 11.5138,10.5294 11.4862,10.7134 C11.3988,11.224 11.2976,11.7254 11.1734,12.2084 C10.971,12.995 10.626,13.5884 10.1292,13.9794 C9.637,14.3658 8.9746,14.5544 8.1466,14.5544 Z M8.2708,13.3124 C8.5928,13.3124 8.8642,13.2158 9.0896,13.0272 C9.3196,12.8386 9.4852,12.5488 9.5818,12.1532 C9.7152,11.6104 9.8164,11.1412 9.8854,10.7364 C9.9084,10.6168 9.9222,10.4926 9.9222,10.3638 C9.9222,9.8394 9.6508,9.5772 9.1034,9.5772 C8.7814,9.5772 8.5054,9.6738 8.2754,9.8624 C8.05,10.051 7.889,10.3408 7.7924,10.7364 C7.6866,11.1228 7.5854,11.592 7.4796,12.1532 C7.4566,12.2682 7.4428,12.3878 7.4428,12.5166 C7.4382,13.0502 7.7188,13.3124 8.2708,13.3124 Z" id="形状" fill="#FFFFFF"></path>
            <path d="M11.9278,14.4716 C11.8634,14.4716 11.8174,14.4532 11.7806,14.4118 C11.753,14.3658 11.7438,14.3152 11.753,14.2554 L12.9444,8.6434 C12.9536,8.579 12.9858,8.5284 13.041,8.487 C13.0916,8.4456 13.1468,8.4272 13.2066,8.4272 L15.502,8.4272 C16.1414,8.4272 16.652,8.5606 17.0384,8.8228 C17.4294,9.0896 17.6272,9.4714 17.6272,9.9728 C17.6272,10.1154 17.6088,10.2672 17.5766,10.4236 C17.434,11.086 17.1442,11.5736 16.7026,11.891 C16.2702,12.2084 15.6768,12.3648 14.9224,12.3648 L13.7586,12.3648 L13.363,14.2554 C13.3492,14.3198 13.3216,14.3704 13.2664,14.4118 C13.2158,14.4532 13.1606,14.4716 13.1008,14.4716 L11.9278,14.4716 Z M14.9822,11.1734 C15.226,11.1734 15.433,11.109 15.6124,10.9756 C15.7964,10.8422 15.916,10.6536 15.9758,10.4052 C15.9942,10.3086 16.0034,10.2212 16.0034,10.1476 C16.0034,9.982 15.9528,9.8532 15.8562,9.7658 C15.7596,9.6738 15.5894,9.6278 15.3548,9.6278 L14.3198,9.6278 L13.9932,11.1734 L14.9822,11.1734 L14.9822,11.1734 Z" id="形状" fill="#FFFFFF"></path>
        </g>
    </g>
</svg>