<?xml version="1.0" encoding="UTF-8"?>
<svg width="28px" height="28px" viewBox="0 0 28 28" version="1.1" xmlns="http://www.w3.org/2000/svg" xmlns:xlink="http://www.w3.org/1999/xlink">
    <title>Oracle iCON</title>
    <g id="Oracle-iCON" stroke="none" stroke-width="1" fill="none" fill-rule="evenodd">
        <g id="oracle" transform="translate(0.391853, 0.521671)" fill-rule="nonzero">
            <path d="M24.5522727,25.6011364 L2.04545455,25.6011364 L2.04545455,1.13636365 C2.04545455,0.508767334 2.55422188,1.93784382e-15 3.18181819,1.93784382e-15 L19.0909091,1.93784382e-15 L19.7727273,5.32159091 L24.5522727,5.32159091 L24.5522727,25.6011364 Z" id="路径" fill="#FBE5C3"></path>
            <path d="M6.81818182,7.31704546 L19.7613636,7.31704546 L19.7613636,8.30909092 L6.81818182,8.30909092 L6.81818182,7.31704546 Z M6.81818182,11.3079545 L19.7613636,11.3079545 L19.7613636,12.3005682 L6.81818182,12.3005682 L6.81818182,11.3079545 Z" id="形状" fill="#65533D"></path>
            <path d="M19.6454545,5.41193182 L24.6380682,5.41193182 L19.0909091,0 L19.0909091,4.87045454 C19.0909091,5.16931816 19.3392046,5.41193182 19.6454545,5.41193182 L19.6454545,5.41193182 Z" id="路径" fill="#E2B578"></path>
            <path d="M1.13636365,15.2994318 L26.1363636,15.2994318 C26.7639599,15.2994318 27.2727273,15.8081991 27.2727273,16.4357954 L27.2727273,25.8107954 C27.2727273,26.4383918 26.7639599,26.9471591 26.1363636,26.9471591 L1.13636365,26.9471591 C0.508767334,26.9471591 1.93784382e-15,26.4383918 1.93784382e-15,25.8107954 L1.93784382e-15,16.4357954 C1.93784382e-15,15.8081991 0.508767344,15.2994318 1.13636365,15.2994318 Z" id="路径" fill="#E2B578"></path>
        </g>
    </g>
</svg>