<?xml version="1.0" encoding="UTF-8"?>
<svg width="16px" height="20px" viewBox="0 0 16 20" version="1.1" xmlns="http://www.w3.org/2000/svg" xmlns:xlink="http://www.w3.org/1999/xlink">
    <title>order</title>
    <g id="页面-1" stroke="none" stroke-width="1" fill="none" fill-rule="evenodd">
        <g id="(W)用户下拉框" transform="translate(-1654.000000, -148.000000)" fill="#7B7B7B" fill-rule="nonzero">
            <g id="编组-2" transform="translate(1631.000000, 68.000000)">
                <g id="order" transform="translate(23.000000, 80.000000)">
                    <path d="M4.9608209,0.0155472715 C4.91685253,0.0185521698 4.87341442,0.0269056482 4.83146765,0.0404228778 L4.78669153,0.0404228778 C4.73242057,0.0641545221 4.68208976,0.096030706 4.6374378,0.134950257 L0.159825863,4.6125622 C0.120906321,4.65721416 0.0890301446,4.70754496 0.0652985075,4.76181593 C0.0634254905,4.77668254 0.0634254905,4.79172544 0.0652985075,4.80659205 C0.0517812718,4.8485388 0.0434277856,4.89197691 0.0404228778,4.93594527 L0.0155472715,4.99067164 L0.0155472715,17.1328181 C0.0155472715,18.5066607 1.1292668,19.6203802 2.50310944,19.6203802 L13.4483831,19.6203802 C14.8222257,19.6203802 15.9359453,18.5066607 15.9359453,17.1328181 L15.9359453,2.50310944 C15.9359453,1.1292668 14.8222257,0.0155472715 13.4483831,0.0155472715 L4.9608209,0.0155472715 Z M4.49315921,1.71206467 L4.49315921,4.49315921 L1.71206467,4.49315921 L4.49315921,1.71206467 Z M14.9409204,17.1328181 C14.9409204,17.9571237 14.2726887,18.6253554 13.4483831,18.6253554 L2.50310944,18.6253554 C1.67880385,18.6253554 1.01057213,17.9571237 1.01057213,17.1328181 L1.01057213,5.48818407 L4.99067164,5.48818407 C5.12262014,5.48818407 5.24916438,5.43576773 5.34246605,5.34246605 C5.43576773,5.24916438 5.48818407,5.12262014 5.48818407,4.99067164 L5.48818407,1.01057213 L13.4483831,1.01057213 C14.2726887,1.01057213 14.9409204,1.67880385 14.9409204,2.50310944 L14.9409204,17.1328181 Z" id="形状"></path>
                    <path d="M3.53793532,6.86700426 L12.4533582,6.86700426 C12.7281267,6.86700426 12.9508706,7.08974817 12.9508706,7.36451671 C12.9508706,7.63928524 12.7281267,7.86202915 12.4533582,7.86202915 L3.53793532,7.86202915 C3.26316679,7.86202915 3.04042288,7.63928524 3.04042288,7.36451671 C3.04042288,7.08974817 3.26316679,6.86700426 3.53793532,6.86700426 Z M3.53793531,9.70424663 L12.4533582,9.70424663 C12.7281267,9.70424663 12.9508706,9.92699053 12.9508706,10.2017591 C12.9508706,10.4765276 12.7281267,10.6992715 12.4533582,10.6992715 L3.53793531,10.6992715 C3.26316678,10.6992715 3.04042288,10.4765276 3.04042288,10.2017591 C3.04042288,9.92699053 3.26316678,9.70424663 3.53793531,9.70424663 Z M3.53793532,12.541489 L12.4533582,12.541489 C12.7281267,12.541489 12.9508706,12.7642329 12.9508706,13.0390014 C12.9508706,13.31377 12.7281267,13.5365139 12.4533582,13.5365139 L3.53793532,13.5365139 C3.26316679,13.5365139 3.04042288,13.31377 3.04042288,13.0390014 C3.04042288,12.7642329 3.26316679,12.541489 3.53793532,12.541489 Z" id="形状"></path>
                </g>
            </g>
        </g>
    </g>
</svg>