<?xml version="1.0" encoding="UTF-8"?>
<svg width="28px" height="28px" viewBox="0 0 28 28" version="1.1" xmlns="http://www.w3.org/2000/svg" xmlns:xlink="http://www.w3.org/1999/xlink">
    <title>Others iCON</title>
    <g id="Others-iCON" stroke="none" stroke-width="1" fill="none" fill-rule="evenodd">
        <g id="qitadanju" transform="translate(0.484623, 0.500630)" fill-rule="nonzero">
            <path d="M0,13.5 C0,20.9558441 6.04415588,27 13.5,27 C20.9558441,27 27,20.9558441 27,13.5 C27,6.04415588 20.9558441,0 13.5,0 C6.04415588,0 0,6.04415588 0,13.5 Z" id="路径" fill="#FBE5C3"></path>
            <path d="M8.15625001,12.2727273 C9.04586777,12.2727273 9.76704547,13.0053522 9.76704547,13.9090909 C9.76704547,14.8128296 9.04586777,15.5454545 8.15625001,15.5454545 C7.26663224,15.5454545 6.54545455,14.8128296 6.54545455,13.9090909 C6.54545455,13.0053522 7.26663224,12.2727273 8.15625001,12.2727273 Z M14.1392045,12.2727273 C15.0288223,12.2727273 15.75,13.0053522 15.75,13.9090909 C15.75,14.8128296 15.0288223,15.5454545 14.1392045,15.5454545 C13.2495868,15.5454545 12.5284091,14.8128296 12.5284091,13.9090909 C12.5284091,13.0053522 13.2495868,12.2727273 14.1392045,12.2727273 Z M19.6619318,12.2727273 C20.5515496,12.2727273 21.2727273,13.0053522 21.2727273,13.9090909 C21.2727273,14.8128296 20.5515496,15.5454545 19.6619318,15.5454545 C18.772314,15.5454545 18.0511364,14.8128296 18.0511364,13.9090909 C18.0511364,13.0053522 18.772314,12.2727273 19.6619318,12.2727273 Z" id="形状" fill="#65533D"></path>
        </g>
    </g>
</svg>