<?xml version="1.0" encoding="UTF-8"?>
<svg width="24px" height="27px" viewBox="0 0 24 27" version="1.1" xmlns="http://www.w3.org/2000/svg" xmlns:xlink="http://www.w3.org/1999/xlink">
    <title>daojishi</title>
    <g id="页面-1" stroke="none" stroke-width="1" fill="none" fill-rule="evenodd">
        <g id="(B)Payment" transform="translate(-1521.000000, -408.000000)" fill="#E2B578" fill-rule="nonzero">
            <g id="daojishi" transform="translate(1521.000000, 408.000000)">
                <path d="M1.33650606,21.8579392 C0.597172073,21.8579392 0,22.4878296 0,23.2684868 L0,25.4129817 C0,26.1908641 0.599932498,26.8235294 1.33650606,26.8235294 L3.08201516,26.8235294 L3.08201516,24.8765112 L1.33650606,24.8765112 C1.61484896,24.8765112 1.84028373,25.1137606 1.84028373,25.4129817 L1.84028373,23.2684868 C1.84028373,23.5644706 1.61208854,23.8049574 1.33650606,23.8049574 L3.08201516,23.8049574 L3.08201516,21.8579392 L1.33650606,21.8579392 L1.33650606,21.8579392 Z M22.5871823,26.8235294 C23.3265163,26.8235294 23.9236884,26.1936389 23.9236884,25.4129817 L23.9236884,23.2684868 C23.9236884,22.4906045 23.3237559,21.8579392 22.5871823,21.8579392 L20.8416732,21.8579392 L21.7493932,22.6705071 C20.8780188,17.1749209 17.2844048,13.095432 11.9618442,13.095432 C6.63882353,13.095432 3.04566958,17.1744584 2.17429522,22.6705071 L3.98927504,22.9928519 C4.71250654,18.431002 7.54148269,15.0429128 11.9618442,15.0429128 C16.3822057,15.0429128 19.2111819,18.431002 19.9344134,22.9928519 L20.0632332,23.8054199 L22.5871823,23.8054199 C22.3088394,23.8054199 22.0834047,23.5677079 22.0834047,23.2684868 L22.0834047,25.4129817 C22.0834047,25.116998 22.3115999,24.8765112 22.5871823,24.8765112 L20.8416732,24.8765112 L20.8416732,26.8235294 L22.5871823,26.8235294 L22.5871823,26.8235294 Z M1.33650606,0 C0.597172073,0 0,0.629890471 0,1.41054767 L0,3.55504259 C0,4.33292494 0.599932498,4.96559026 1.33650606,4.96559026 L3.08201516,4.96559026 L2.17429522,4.15302231 C3.04566958,9.64860852 6.63928359,13.7280974 11.9618442,13.7280974 C17.2848649,13.7280974 20.8780188,9.64907099 21.7493932,4.15302231 L20.8412132,4.96559026 L22.5867223,4.96559026 C23.3260563,4.96559026 23.9232286,4.33569979 23.9232286,3.55504259 L23.9232286,1.41054767 C23.9236884,0.632665318 23.3237559,0 22.5871823,0 L20.8416732,0 L20.8416732,1.94701826 L22.5871823,1.94701826 C22.3088394,1.94701826 22.0834047,1.71023125 22.0834047,1.41054767 L22.0834047,3.55504259 C22.0834047,3.25905882 22.3115999,3.018572 22.5871823,3.018572 L20.0636933,3.018572 L19.9348734,3.83067748 C19.2116419,8.39252739 16.3826658,11.7806166 11.9623043,11.7806166 C7.54194275,11.7806166 4.71296661,8.39252739 3.9897351,3.83067748 L3.86091525,3.01810953 L1.33650606,3.01810953 C1.61484896,3.01810953 1.84028373,3.25582151 1.84028373,3.55504259 L1.84028373,1.41054767 C1.84028373,1.70653143 1.61208854,1.94701826 1.33650606,1.94701826 L3.08201516,1.94701826 L3.08201516,0 L1.33650606,0 Z M20.8412132,1.94701826 L20.8412132,0 L3.08247523,0 L3.08247523,1.94701826 L20.8412132,1.94701826 Z M3.08247523,3.018572 L3.08247523,4.96559026 L20.8412132,4.96559026 L20.8412132,3.018572 L3.08247523,3.018572 Z M20.8412132,23.8054199 L20.8412132,21.8584016 L3.08247523,21.8584016 L3.08247523,23.8054199 L20.8412132,23.8054199 Z M3.08247523,24.8760487 L3.08247523,26.8235294 L20.8412132,26.8235294 L20.8412132,24.8765112 L3.08247523,24.8765112 L3.08247523,24.8760487 Z" id="形状"></path>
            </g>
        </g>
    </g>
</svg>