<?xml version="1.0" encoding="UTF-8"?>
<svg width="101px" height="108px" viewBox="0 0 101 108" version="1.1" xmlns="http://www.w3.org/2000/svg" xmlns:xlink="http://www.w3.org/1999/xlink">
    <title>Failed@1x</title>
    <g id="页面-1" stroke="none" stroke-width="1" fill="none" fill-rule="evenodd">
        <g id="(B)Payment-Cancel" transform="translate(-912.000000, -433.000000)">
            <g id="Failed" transform="translate(874.000000, 393.000000)">
                <g transform="translate(38.000000, 40.000000)">
                    <path d="M39.4377594,99 C39.0352697,99 38.6327801,99 38.2302905,98.597254 C37.4253112,97.791762 37.4253112,96.583524 38.2302905,96.180778 L42.2551867,92.1533181 C43.060166,91.3478261 44.2676349,91.3478261 44.6701244,92.1533181 C45.4751037,92.9588101 45.4751037,94.1670481 44.6701244,94.569794 L40.6452282,98.597254 C40.2427385,98.597254 39.4377593,99 39.4377594,99 L39.4377594,99 Z M2.81120333,73.6270023 C2.40871366,73.6270023 2.0062241,73.6270023 1.60373443,73.2242563 C0.798755192,72.4187643 0.798755192,71.2105263 1.60373443,70.8077803 L8.44605807,63.9610984 C9.2510373,63.1556064 10.4585062,63.1556064 11.2634854,63.9610984 C12.0684647,64.7665903 12.0684647,65.9748283 11.2634854,66.3775744 L4.4211618,73.6270023 L2.81120333,73.6270023 Z M90.9564315,19.6590389 C90.5539418,19.6590389 90.1514523,19.6590389 89.7489627,19.256293 C88.9439835,18.450801 88.9439835,17.242563 89.7489627,16.8398169 L94.9813278,11.604119 C95.786307,10.798627 96.9937759,10.798627 97.3962656,11.604119 C98.2012448,12.4096109 98.2012448,13.617849 97.3962656,14.020595 L92.1639004,19.256293 C91.7614107,19.6590389 91.7614107,19.6590389 90.9564315,19.6590389 Z" id="形状" fill="#E2B578" fill-rule="nonzero"></path>
                    <path d="M18,55 C18,74.882251 34.3416066,91 54.5,91 C74.6583934,91 91,74.882251 91,55 C91,35.117749 74.6583934,19 54.5,19 C34.3416066,19 18,35.117749 18,55 Z" id="路径" fill-opacity="0.2" fill="#E2B578"></path>
                    <path d="M8.5,19 C3.69565217,19 0,22.5555556 0,27.1777778 C0,31.8 3.69565217,35 8.5,35 C13.3043478,35 17,31.4444444 17,26.8222222 C17,22.5555556 13.3043478,19 8.5,19 Z" id="路径" fill="#E2B578" fill-rule="nonzero"></path>
                    <path d="M74.5,97 C71.3913043,97 69,99.4444444 69,102.622222 C69,105.8 71.3913043,108 74.5,108 C77.6086957,108 80,105.555556 80,102.377778 C80,99.4444444 77.6086957,97 74.5,97 Z" id="路径备份-3" fill="#E2B578" fill-rule="nonzero"></path>
                    <path d="M97,83 C94.7391304,83 93,84.7777778 93,87.0888889 C93,89.4 94.7391304,91 97,91 C99.2608696,91 101,89.2222222 101,86.9111111 C101,84.7777778 99.2608696,83 97,83 Z" id="路径备份-4" fill-opacity="0.3" fill="#E2B578" fill-rule="nonzero"></path>
                    <path d="M29,4.5 C29,6.98528137 31.0147186,9 33.5,9 C35.9852814,9 38,6.98528137 38,4.5 C38,2.01471863 35.9852814,0 33.5,0 C31.0147186,0 29,2.01471863 29,4.5 Z" id="路径" fill-opacity="0.4" fill="#E2B578" fill-rule="nonzero"></path>
                    <path d="M78.0500001,62.3236994 C70.65,78.3468208 58.4400001,75.433526 54,90 C74.72,90 91,73.6127167 91,53.9479768 C91,43.3872832 86.19,33.5549132 78.79,27 C73.6100001,38.6531792 85.08,45.9364162 78.0500001,62.3236994 Z" id="路径" fill="#E2B578" fill-rule="nonzero"></path>
                    <path d="M69.1114672,35.2913106 L54.220679,50.1820988 L39.3298908,35.2913106 C38.4182099,34.3796296 37.2026353,34.3796296 36.5948481,35.2913106 C35.6831671,36.2029915 35.6831671,37.418566 36.5948481,38.0263533 L51.4856363,52.9171415 L36.5948481,67.8079297 C35.6831671,68.7196107 35.6831671,69.9351852 36.5948481,70.5429724 C37.506529,71.4546534 38.7221035,71.4546534 39.3298908,70.5429724 L54.220679,55.6521842 L69.1114672,70.5429724 C70.0231482,71.4546534 71.2387227,71.4546534 71.8465099,70.5429724 C72.7581909,69.6312915 72.7581909,68.415717 71.8465099,67.8079297 L56.9557217,52.9171415 L71.8465099,38.0263533 C72.7581909,37.1146724 72.7581909,35.8990978 71.8465099,35.2913106 C71.2387227,34.3796296 70.0231481,34.3796296 69.1114672,35.2913106 Z" id="路径" fill="#FF6B5B" fill-rule="nonzero"></path>
                    <path d="M53.9167853,86.041548 C36.2909544,86.041548 22.0079534,71.758547 22.0079534,54.4366097 C22.0079534,53.5249288 22.6157407,52.9171415 23.5274216,52.9171415 C24.4391026,52.9171415 25.0468898,53.5249288 25.0468898,54.4366097 C25.0468898,70.2390788 38.1143162,83.0026116 53.9167853,83.0026116 C58.4751899,83.0026116 62.7297008,82.0909307 66.3764245,80.2675688 C66.9842118,79.9636752 68.1997864,80.2675688 68.50368,80.8753561 C68.8075736,81.4831433 68.50368,82.3948243 67.8958927,83.0026116 C63.3374881,85.1298671 58.7790836,86.041548 53.9167853,86.041548 Z M72.7581909,79.9636752 C72.4542972,79.9636752 71.8465099,79.6597816 71.5426163,79.3558879 C70.9348291,78.7481006 71.2387227,77.8364197 71.8465099,77.2286325 C72.7581909,76.6208452 73.6698718,75.7091643 74.8854463,74.4935897 C75.4932336,73.8858025 76.4049145,73.8858025 77.0127018,74.4935897 C77.6204891,75.101377 77.6204891,76.0130579 77.0127018,76.6208452 C75.7971273,77.8364197 74.5815527,78.7481006 73.6698718,79.6597816 C73.3659781,79.9636752 73.0620845,79.9636752 72.7581909,79.9636752 L72.7581909,79.9636752 Z M80.0516381,71.758547 C79.7477445,71.758547 79.4438509,71.758547 79.1399573,71.4546534 C78.53217,71.1507597 78.2282764,70.2390788 78.8360636,69.3273979 C81.875,64.7689933 83.3944682,59.2989079 83.3944682,53.8288224 C83.3944682,38.0263533 70.3270418,25.2628205 54.5245727,25.2628205 C44.192189,25.5667142 35.3792735,30.1251187 29.9091881,38.0263533 C28.0858262,40.4575024 26.8702517,42.8886514 25.9585708,45.9275878 C25.9585708,46.8392687 25.0468898,47.1431623 24.1352089,46.8392687 C23.5274216,46.5353751 23.223528,45.6236942 23.223528,45.015907 C24.135209,41.9769706 25.6546772,38.9380342 27.4780389,36.5068851 C33.252018,27.6939696 43.2805081,22.8316714 54.220679,22.8316714 C71.8465099,22.8316714 86.1295109,37.1146724 86.1295109,54.4366097 C86.1295109,60.5144825 84.6100427,65.9845679 81.2672127,71.4546534 C80.6594255,71.758547 80.0516382,71.758547 80.0516381,71.758547 L80.0516381,71.758547 Z" id="形状" fill="#FF6B5B" fill-rule="nonzero"></path>
                </g>
            </g>
        </g>
    </g>
</svg>