<?xml version="1.0" encoding="UTF-8"?>
<svg width="200px" height="200px" viewBox="0 0 200 200" version="1.1" xmlns="http://www.w3.org/2000/svg" xmlns:xlink="http://www.w3.org/1999/xlink">
    <title>Running-2</title>
    <g id="Running-2" stroke="none" stroke-width="1" fill="none" fill-rule="evenodd">
        <g id="编组-18" fill-rule="nonzero">
            <circle id="椭圆形备份-5" stroke="#1890FF" stroke-width="10" cx="100" cy="100" r="95"></circle>
            <path d="M60.370801,88.6032011 C63.4633789,88.6509124 66.3853887,90.0353448 68.3889023,92.4021341 C72.2412823,96.7283689 72.2412823,103.271631 68.3889023,107.597866 C66.3035691,109.795792 63.3927516,111.009426 60.370801,110.940927 C57.3488504,111.009426 54.4380328,109.795792 52.3526997,107.597866 C48.5003196,103.271631 48.5003196,96.7283689 52.3526997,92.4021341 C54.3562133,90.0353448 57.278223,88.6509124 60.370801,88.6032011 L60.370801,88.6032011 Z M34.1219512,91.4193548 C36.424773,91.4540763 38.6005849,92.4615835 40.0924583,94.1839914 C42.9610505,97.3323668 42.9610505,102.094162 40.0924583,105.242538 C38.5396597,106.842057 36.3721819,107.725267 34.1219512,107.675418 C31.8717205,107.725267 29.7042427,106.842057 28.1514441,105.242538 C25.282852,102.094162 25.282852,97.3323668 28.1514441,94.1839914 C29.6433175,92.4615835 31.8191294,91.4540763 34.1219512,91.4193548 L34.1219512,91.4193548 Z M93.8522053,84.8040138 C101.067075,84.8461668 107.248477,89.999784 108.618136,97.1150606 C109.987796,104.230337 106.164513,111.326969 99.485203,114.067263 C92.8058932,116.807558 85.1295235,114.428843 81.1481416,108.385067 C77.1667598,102.341292 77.9884529,94.3145425 83.1109753,89.2110304 C85.9660068,86.3665943 89.8310068,84.780916 93.8522053,84.8040138 L93.8522053,84.8040138 Z M170.449815,92.4021341 C172.698908,94.2786746 174,97.0631839 174,100 C174,102.936816 172.698908,105.721325 170.449815,107.597866 L132.174727,139.66086 C129.243896,142.153338 125.136691,142.704063 121.657571,141.071081 C118.178451,139.438098 115.964049,135.920221 115.98706,132.062994 L115.98706,67.9370057 C115.964049,64.0797787 118.178451,60.5619019 121.657571,58.9289192 C125.136691,57.2959365 129.243896,57.846662 132.174727,60.3391398 L170.449815,92.4021341 Z" id="形状备份-2" fill="#1890FF"></path>
        </g>
    </g>
</svg>