<?xml version="1.0" encoding="UTF-8"?>
<svg width="45px" height="29px" viewBox="0 0 45 29" version="1.1" xmlns="http://www.w3.org/2000/svg" xmlns:xlink="http://www.w3.org/1999/xlink">
    <title>—</title>
    <g id="确定页面" stroke="none" stroke-width="1" fill="none" fill-rule="evenodd">
        <g id="(弹窗）Oracle-Chainlink-Functions-Create-Request" transform="translate(-1263.000000, -656.000000)" fill="#E2B578">
            <g id="编组-3" transform="translate(580.000000, 18.000000)">
                <g id="—" transform="translate(683.000000, 638.000000)">
                    <path d="M39.9367107,0.5 C41.1793514,0.5 42.3043514,1.00367966 43.1186912,1.81801948 C43.9330311,2.63235931 44.4367107,3.75735931 44.4367107,5 L44.4367107,5 L44.4367107,24 C44.4367107,25.2426407 43.9330311,26.3676407 43.1186912,27.1819805 C42.3043514,27.9963203 41.1793514,28.5 39.9367107,28.5 L39.9367107,28.5 L5,28.5 C3.75735931,28.5 2.63235931,27.9963203 1.81801948,27.1819805 C1.00367966,26.3676407 0.5,25.2426407 0.5,24 L0.5,24 L0.5,5 C0.5,3.75735931 1.00367966,2.63235931 1.81801948,1.81801948 C2.63235931,1.00367966 3.75735931,0.5 5,0.5 L5,0.5 Z" id="路径" stroke="#E2B578" fill-opacity="0.101753715" transform="translate(22.468355, 14.500000) scale(-1, 1) translate(-22.468355, -14.500000) "></path>
                    <polygon id="-" fill-rule="nonzero" points="28 15.952 28 14.048 16 14.048 16 15.952"></polygon>
                </g>
            </g>
        </g>
    </g>
</svg>