<?xml version="1.0" encoding="UTF-8"?>
<svg width="28px" height="28px" viewBox="0 0 28 28" version="1.1" xmlns="http://www.w3.org/2000/svg" xmlns:xlink="http://www.w3.org/1999/xlink">
    <title>RPC iCON</title>
    <g id="RPC-iCON" stroke="none" stroke-width="1" fill="none" fill-rule="evenodd">
        <g id="RPC" transform="translate(2.000000, 0.000000)" fill-rule="nonzero">
            <path d="M19.6730382,9.37377777 L19.4062604,9.37377777 C19.5283715,8.82933332 19.5952604,8.26388888 19.5952604,7.68288888 C19.5952604,3.43933332 16.1559271,6.96331881e-15 11.9115937,6.96331881e-15 C7.66881598,6.96331881e-15 4.22870487,3.43933332 4.22870487,7.68444444 C4.22870487,8.26466668 4.29481598,8.83011112 4.41770487,9.37455556 L4.15170487,9.37455556 C2.66925113,9.37455553 1.29940737,10.1654352 0.558180496,11.4492778 C-0.183046381,12.7331203 -0.183046381,14.3148797 0.558180496,15.5987222 C1.29940737,16.8825648 2.66925113,17.6734444 4.15170487,17.6734444 L6.67170487,17.6734444 L6.67170487,12.6 L17.1530382,12.6 L17.1530382,17.6718889 L19.6730382,17.6718889 C21.9423461,17.640818 23.7656747,15.792354 23.7656747,13.5228333 C23.7656747,11.2533127 21.9423461,9.40484863 19.6730382,9.37377777" id="路径" fill="#FBE5C3"></path>
            <path d="M6.67170487,19.7633333 L4.14081598,19.7633333 C3.95273744,19.7631075 3.78309865,19.8763604 3.71119646,20.0501524 C3.63929427,20.2239444 3.67933182,20.4239457 3.81259375,20.5566667 L10.6687049,27.4127778 C11.3560385,28.0999545 12.4702601,28.0999545 13.1575938,27.4127778 L20.0137049,20.5566667 C20.1462689,20.4235695 20.1857546,20.223795 20.1137941,20.0502733 C20.0418336,19.8767515 19.872556,19.7635525 19.6847049,19.7633333 L17.1530382,19.7633333 L17.1530382,17.6726667 L6.67170487,17.6726667 L6.67170487,19.7633333 L6.67170487,19.7633333 Z" id="路径" fill="#E2B578"></path>
            <polygon id="路径" fill="#65533D" points="6.67170487 17.6711111 17.1530382 17.6711111 17.1530382 12.6 6.67170487 12.6"></polygon>
        </g>
    </g>
</svg>