<?xml version="1.0" encoding="UTF-8"?>
<svg width="64px" height="64px" viewBox="0 0 64 64" version="1.1" xmlns="http://www.w3.org/2000/svg" xmlns:xlink="http://www.w3.org/1999/xlink">
    <title>暗色版-logorust-icon@1x</title>
    <g id="页面-1" stroke="none" stroke-width="1" fill="none" fill-rule="evenodd">
        <g id="暗色版-logorust-icon" fill="#D6D6D5" fill-rule="nonzero">
            <path d="M30,7.54 C30,6.86048083 30.3625191,6.23257921 30.951,5.89281962 C31.5394808,5.55306002 32.2645192,5.55306002 32.853,5.89281962 C33.4414809,6.23257921 33.804,6.86048083 33.804,7.54 C33.804,8.59044556 32.9524456,9.44199992 31.902,9.44199992 C30.8515544,9.44199992 30,8.59044556 30,7.54 M7.308,24.76 C7.308,23.7095544 8.15955441,22.858 9.21,22.858 C10.2604456,22.858 11.112,23.7095544 11.112,24.76 C11.112,25.8104456 10.2604456,26.662 9.21,26.662 C8.15955441,26.662 7.308,25.8104456 7.308,24.76 M52.692,24.848 C52.692,23.7975544 53.5435544,22.946 54.594,22.946 C55.6444456,22.946 56.496,23.7975544 56.496,24.848 C56.496,25.8984456 55.6444456,26.75 54.594,26.75 C53.5435544,26.75 52.692,25.8984456 52.692,24.848 M12.812,27.46 C13.6869843,27.0692228 14.0813044,26.044527 13.694,25.168 L12.85,23.26 L16.17,23.26 L16.17,38.22 L9.472,38.22 C8.64554929,35.3166975 8.38816037,32.2810023 8.714,29.28 L12.812,27.46 Z M26.696,27.828 L26.696,23.418 L34.6,23.418 C35.008,23.418 37.48,23.89 37.48,25.738 C37.48,27.274 35.58,27.826 34.02,27.826 L26.696,27.828 Z M15.904,51.57 C15.904,50.8904808 16.2665191,50.2625792 16.855,49.9228196 C17.4434808,49.58306 18.1685192,49.58306 18.757,49.9228196 C19.3454809,50.2625792 19.708,50.8904808 19.708,51.57 C19.708,52.6204456 18.8564456,53.472 17.806,53.472 C16.7555544,53.472 15.904,52.6204456 15.904,51.57 M44.09,51.658 C44.09,50.6075544 44.9415544,49.756 45.992,49.756 C47.0424456,49.756 47.894,50.6075544 47.894,51.658 C47.894,52.7084456 47.0424456,53.56 45.992,53.56 C44.9415544,53.56 44.09,52.7084456 44.09,51.658 M44.678,47.344 C43.738,47.144 42.818,47.74 42.618,48.678 L41.664,53.134 C35.4508991,55.9480473 28.319725,55.9137242 22.134,53.04 L21.18,48.584 C20.98,47.644 20.06,47.048 19.12,47.25 L15.186,48.094 C14.4550444,47.341136 13.7755132,46.5399974 13.152,45.696 L32.292,45.696 C32.508,45.696 32.652,45.656 32.652,45.46 L32.652,38.69 C32.652,38.49 32.508,38.454 32.292,38.454 L26.692,38.454 L26.692,34.162 L32.746,34.162 C33.298,34.162 35.7,34.322 36.47,37.39 L37.6,42.39 C37.96,43.49 39.426,45.696 40.986,45.696 L50.866,45.696 C50.2029174,46.5829173 49.4777647,47.4216884 48.696,48.206 L44.678,47.344 Z M55.306,29.468 C55.4405178,30.8193205 55.4572475,32.1797803 55.356,33.534 L52.956,33.534 C52.716,33.534 52.616,33.694 52.616,33.928 L52.616,35.032 C52.616,37.632 51.152,38.192 49.868,38.338 C48.648,38.478 47.288,37.826 47.124,37.078 C46.404,33.022 45.204,32.158 43.324,30.658 C45.678,29.162 48.128,26.958 48.128,24.004 C48.128,20.816 45.942,18.808 44.452,17.824 C42.362,16.444 40.048,16.17 39.424,16.17 L14.554,16.17 C17.9893244,12.3315021 22.5943542,9.73269347 27.656,8.776 L30.586,11.85 C31.246,12.544 32.346,12.57 33.038,11.906 L36.318,8.772 C43.0803015,10.0381936 48.9438326,14.2136831 52.352,20.19 L50.108,25.258 C49.7206956,26.134527 50.1150157,27.1592228 50.99,27.55 L55.306,29.468 Z M60.902,29.548 L60.826,28.764 L63.138,26.608 C63.608,26.168 63.432,25.288 62.832,25.064 L59.878,23.96 L59.646,23.2 L61.486,20.64 C61.862,20.12 61.516,19.29 60.886,19.186 L57.77,18.68 L57.396,17.98 L58.706,15.106 C58.974,14.52 58.476,13.772 57.832,13.796 L54.672,13.906 L54.172,13.3 L54.898,10.22 C55.044,9.594 54.41,8.96 53.784,9.106 L50.704,9.832 L50.096,9.332 L50.206,6.172 C50.23,5.532 49.482,5.032 48.898,5.298 L46.026,6.608 L45.326,6.232 L44.818,3.116 C44.718,2.484 43.884,2.14 43.364,2.516 L40.804,4.356 L40.044,4.126 L38.94,1.172 C38.716,0.572 37.834,0.396 37.396,0.864 L35.24,3.176 L34.456,3.1 L32.792,0.41 C32.456,-0.134 31.552,-0.134 31.218,0.41 L29.554,3.1 L28.77,3.176 L26.61,0.86 C26.17,0.392 25.29,0.566 25.066,1.168 L23.962,4.122 L23.202,4.352 L20.642,2.512 C20.122,2.136 19.29,2.482 19.188,3.112 L18.68,6.228 L17.98,6.604 L15.108,5.294 C14.524,5.028 13.774,5.528 13.8,6.168 L13.91,9.328 L13.302,9.828 L10.222,9.102 C9.596,8.956 8.962,9.59 9.108,10.216 L9.834,13.296 L9.334,13.902 L6.174,13.792 C5.534,13.772 5.034,14.516 5.3,15.102 L6.61,17.976 L6.234,18.676 L3.118,19.182 C2.486,19.282 2.142,20.116 2.518,20.636 L4.358,23.196 L4.126,23.956 L1.172,25.06 C0.572,25.284 0.396,26.166 0.866,26.604 L3.178,28.76 L3.102,29.544 L0.412,31.208 C-0.132,31.544 -0.132,32.448 0.412,32.782 L3.102,34.446 L3.178,35.23 L0.86,37.394 C0.392,37.834 0.566,38.714 1.166,38.938 L4.12,40.042 L4.352,40.802 L2.512,43.362 C2.138,43.882 2.482,44.714 3.112,44.816 L6.226,45.322 L6.602,46.022 L5.292,48.894 C5.026,49.478 5.528,50.228 6.166,50.204 L9.326,50.094 L9.826,50.702 L9.1,53.782 C8.954,54.406 9.588,55.042 10.214,54.894 L13.294,54.168 L13.902,54.668 L13.792,57.828 C13.768,58.468 14.516,58.968 15.1,58.702 L17.972,57.392 L18.672,57.768 L19.18,60.882 C19.28,61.516 20.114,61.858 20.634,61.486 L23.194,59.642 L23.954,59.874 L25.058,62.828 C25.282,63.428 26.164,63.604 26.602,63.134 L28.758,60.822 L29.542,60.902 L31.206,63.592 C31.542,64.132 32.442,64.136 32.78,63.592 L34.444,60.902 L35.228,60.822 L37.384,63.134 C37.824,63.604 38.704,63.428 38.928,62.828 L40.032,59.874 L40.792,59.642 L43.352,61.486 C43.872,61.86 44.704,61.516 44.806,60.882 L45.314,57.768 L46.014,57.392 L48.886,58.702 C49.47,58.968 50.218,58.47 50.194,57.828 L50.084,54.668 L50.69,54.168 L53.77,54.894 C54.396,55.04 55.03,54.406 54.884,53.782 L54.158,50.702 L54.658,50.094 L57.818,50.204 C58.458,50.23 58.958,49.478 58.692,48.894 L57.382,46.022 L57.756,45.322 L60.872,44.816 C61.506,44.716 61.852,43.884 61.472,43.362 L59.632,40.802 L59.864,40.042 L62.818,38.938 C63.418,38.712 63.594,37.832 63.124,37.394 L60.812,35.238 L60.888,34.454 L63.578,32.79 C64.122,32.454 64.124,31.554 63.578,31.216 L60.902,29.548 Z" id="形状"></path>
        </g>
    </g>
</svg>