<?xml version="1.0" encoding="UTF-8"?>
<svg width="26px" height="26px" viewBox="0 0 26 26" version="1.1" xmlns="http://www.w3.org/2000/svg" xmlns:xlink="http://www.w3.org/1999/xlink">
    <title>Send</title>
    <defs>
        <filter id="filter-1">
            <feColorMatrix in="SourceGraphic" type="matrix" values="0 0 0 0 0.619608 0 0 0 0 0.619608 0 0 0 0 0.619608 0 0 0 1.000000 0"></feColorMatrix>
        </filter>
    </defs>
    <g id="Page-1" stroke="none" stroke-width="1" fill="none" fill-rule="evenodd">
        <g id="Send" transform="translate(-1552.000000, -942.000000)" filter="url(#filter-1)">
            <g transform="translate(1552.000000, 942.000000)">
                <path d="M25.1219196,0.183973214 C24.8404851,-0.0329835179 24.4563053,-0.0597548297 24.1475,0.116071429 L23.5154911,0.481696429 L21.7871875,1.47991071 L19.2388393,2.95401786 L16.12,4.75892857 L12.715625,6.7275 L9.27904018,8.71522321 L6.07459821,10.5685938 L3.36607143,12.1352679 L1.41113839,13.2669643 C1.10383929,13.4448438 0.793928571,13.6192411 0.488660714,13.8006027 L0.44890625,13.8235268 C-0.137254464,14.1627455 -0.100401786,14.9912054 0.44890625,15.3385491 L2.43575893,16.5953125 L5.58854911,18.5891295 L6.31399554,19.048192 C6.70254464,19.2939732 7.29828125,19.1425 7.51417411,18.7336384 C7.74283482,18.3009821 7.61428571,17.7954911 7.19962054,17.5334598 L5.21247768,16.2766964 L2.58491071,14.6148438 L3.69426339,13.9732589 L6.24174107,12.4997321 L9.36145089,10.6954018 L12.7658259,8.72625 L16.2024107,6.73794643 L19.4068527,4.88428571 L20.9067857,4.01694196 L19.3874107,5.87408482 C18.4988839,6.96031994 17.6104539,8.04665179 16.7221205,9.13308036 L14.0234598,12.4335714 L11.6141071,15.3794643 L9.815,17.5801786 C9.530625,17.9283929 9.24479911,18.2766071 8.96158482,18.6248214 C8.80372768,18.8189509 8.68243304,19.0159821 8.67488839,19.2832366 C8.67227679,19.3772545 8.67488839,19.4721429 8.67488839,19.5664509 L8.67488839,25.0714286 C8.67921078,25.4241353 8.89329405,25.7403361 9.2191716,25.8753344 C9.54504914,26.0103327 9.92002243,25.9381549 10.1725,25.6918304 L11.6248437,24.2409375 L13.9422098,21.9232813 L14.0902009,21.7752902 L16.0320759,22.4496652 L19.8699777,23.7821652 L20.7500893,24.0880134 C21.1635937,24.2313616 21.7570089,23.9223214 21.8292634,23.4751563 L21.9256027,22.8776786 C22.0130432,22.3360119 22.1000967,21.7943452 22.1867634,21.2526786 C22.316183,20.450625 22.445506,19.6487649 22.5747321,18.8470982 L23.0483036,15.911942 C23.22125,14.8400223 23.3940997,13.7681994 23.5668527,12.6964732 C23.7409598,11.614494 23.9155506,10.5324182 24.090625,9.45024554 L24.578125,6.41962054 L24.9919196,3.859375 C25.0915476,3.24361607 25.1908854,2.62776042 25.289933,2.01180804 C25.3366518,1.72162946 25.3845312,1.43145089 25.4300893,1.14330357 L25.436183,1.105 C25.4942187,0.746919643 25.4248661,0.417857143 25.1219196,0.183973214 Z M22.9978125,5.26877232 L22.5242411,8.20392857 C22.3512946,9.27584821 22.1784449,10.3476711 22.005692,11.4193973 C21.8315848,12.5015699 21.656994,13.5836458 21.4819196,14.665625 L20.9935491,17.6933482 L20.5809152,20.2527232 L20.2872545,22.0721429 L18.8073437,21.5582366 L14.9700223,20.2254464 L14.0896205,19.9198884 C13.799442,19.8189063 13.4462946,19.9352679 13.2362054,20.1453571 L11.7838616,21.59625 L10.4284375,22.953125 L10.4284375,19.5870536 L10.5735268,19.4088839 L11.6634375,18.078125 L13.2808929,16.1002679 L15.2459821,13.6964286 C15.9667857,12.8154464 16.6873958,11.9342708 17.4078125,11.0529018 L19.5902455,8.38325893 L21.6183036,5.90629464 L23.2105134,3.95948661 C23.1391295,4.39572173 23.0682292,4.8321503 22.9978125,5.26877232 Z" id="Shape" fill="#000000" fill-rule="nonzero"></path>
            </g>
        </g>
    </g>
</svg>