<?xml version="1.0" encoding="UTF-8"?>
<svg width="21px" height="20px" viewBox="0 0 21 20" version="1.1" xmlns="http://www.w3.org/2000/svg" xmlns:xlink="http://www.w3.org/1999/xlink">
    <title>Sign Out</title>
    <g id="页面-1" stroke="none" stroke-width="1" fill="none" fill-rule="evenodd">
        <g id="(W)用户下拉框" transform="translate(-1651.000000, -207.000000)" fill="#7B7B7B" fill-rule="nonzero">
            <g id="编组-2" transform="translate(1631.000000, 68.000000)">
                <g id="Sign-Out" transform="translate(20.000000, 139.000000)">
                    <path d="M9.54966281,19.1207069 C5.1866935,19.1131114 1.38285475,16.1514447 0.305858058,11.9234858 C-0.771138634,7.69552678 1.15220912,3.2749621 4.97983409,1.1809597 C8.80745906,-0.913042699 13.5673391,-0.148712686 16.5469391,3.0383774 C16.6891026,3.17304243 16.7446287,3.37556615 16.6910237,3.5639053 C16.6374186,3.75224444 16.483569,3.89517564 16.2918001,3.93479683 C16.1000313,3.97441802 15.902135,3.90416069 15.7782801,3.75248639 C13.3931708,1.19759153 9.68838995,0.360893252 6.43677239,1.64277364 C3.18515482,2.92465402 1.04800489,6.06440802 1.04800489,9.559581 C1.04800489,13.054754 3.18515482,16.194508 6.43677239,17.4763884 C9.68838995,18.7582687 13.3931708,17.9215705 15.7782801,15.3666756 C15.902135,15.2150013 16.1000313,15.1447439 16.2918002,15.1843651 C16.4835691,15.2239862 16.6374186,15.3669175 16.6910237,15.5552566 C16.7446288,15.7435958 16.6891026,15.9461195 16.5469391,16.0807846 C14.7352183,18.0180743 12.2020992,19.1185718 9.54966281,19.1207069 Z M20.8266339,9.93151276 L18.3470888,12.4110579 C18.248489,12.5097806 18.1146852,12.5652528 17.975157,12.5652528 C17.8356289,12.5652528 17.7018251,12.5097806 17.6032253,12.4110579 C17.4009202,12.2062983 17.4009202,11.876913 17.6032253,11.6721534 L19.2050114,10.0703673 L9.59429463,10.0703673 C9.39521716,10.0897721 9.20237763,9.994513 9.09681007,9.82461928 C8.99124251,9.65472556 8.99124251,9.43964098 9.09681007,9.26974726 C9.20237763,9.09985354 9.39521716,9.00459444 9.59429463,9.02399926 L19.1901341,9.02399926 L17.5833889,7.4321313 C17.4505105,7.29925288 17.3986155,7.10557835 17.4472524,6.92406305 C17.4958893,6.74254774 17.6376689,6.60076815 17.8191842,6.55213127 C18.0006995,6.5034944 18.194374,6.55538934 18.3272524,6.68826777 L20.8067975,9.16781286 C20.9055203,9.26641266 20.9609925,9.4002165 20.9609925,9.53974463 C20.9609925,9.67927276 20.9055203,9.81307659 20.8067975,9.91167639 L20.8266339,9.93151276 Z" id="形状"></path>
                </g>
            </g>
        </g>
    </g>
</svg>