<?xml version="1.0" encoding="UTF-8"?>
<svg width="13px" height="7px" viewBox="0 0 13 7" version="1.1" xmlns="http://www.w3.org/2000/svg" xmlns:xlink="http://www.w3.org/1999/xlink">
    <title>收起箭头</title>
    <g id="确定页面" stroke="none" stroke-width="1" fill="none" fill-rule="evenodd">
        <path d="M6.50197748,5.57752963 L11.9821647,0.17778301 C12.0925431,0.0642193274 12.2452048,0 12.4047893,0 C12.5643738,0 12.7170355,0.0642193274 12.8274139,0.17778301 C13.0575287,0.409101091 13.0575287,0.779307204 12.8274139,1.01062529 L6.92924631,6.82221699 C6.81886794,6.93578067 6.66620618,7 6.50662171,7 C6.34703723,7 6.19437547,6.93578067 6.0839971,6.82221699 L0.176541056,1.01062529 C0.0615666635,0.900106048 -0.00224657156,0.747878595 0,0.589628091 C-0.00189970074,0.434118398 0.0620629635,0.284851522 0.176541056,0.17778301 C0.411305107,-0.0489540621 0.787026219,-0.0489540621 1.02179027,0.17778301 L6.50197748,5.57752963 Z" id="收起箭头" fill="#E2B578" fill-rule="nonzero" transform="translate(6.500000, 3.500000) scale(1, -1) translate(-6.500000, -3.500000) "></path>
    </g>
</svg>