<?xml version="1.0" encoding="UTF-8"?>
<svg width="23px" height="23px" viewBox="0 0 23 23" version="1.1" xmlns="http://www.w3.org/2000/svg" xmlns:xlink="http://www.w3.org/1999/xlink">
    <title>StarkNET Logo</title>
    <defs>
        <linearGradient x1="99.4650601%" y1="35.9947573%" x2="-63.9592466%" y2="83.1143589%" id="linearGradient-1">
            <stop stop-color="#EC796B" offset="0%"></stop>
            <stop stop-color="#D672EF" offset="100%"></stop>
        </linearGradient>
    </defs>
    <g id="页面-1" stroke="none" stroke-width="1" fill="none" fill-rule="evenodd">
        <g id="StarkNET-Logo" fill-rule="nonzero">
            <path d="M0.0232313463,11.6755854 C0.0232313463,17.8720098 5.0463122,22.8950976 11.2427366,22.8950976 C17.439161,22.8950976 22.4625854,17.8720098 22.4625854,11.6755854 C22.4625854,5.47914976 17.439161,0.456066439 11.2427366,0.456066439 C5.0463122,0.456066439 0.0232313463,5.47914976 0.0232313463,11.6755854 Z" id="路径" fill="#0C0C4F"></path>
            <path d="M6.29375366,9.03249268 L6.57070732,8.17683659 C6.62697317,8.00282195 6.7643561,7.86740244 6.9389878,7.81399756 L7.79885122,7.54955366 C7.91789024,7.51320244 7.9188439,7.34530244 7.80075854,7.3070439 L6.94482195,7.03009024 C6.7710878,6.97376829 6.63566829,6.83644146 6.58198293,6.66175366 L6.31787561,5.80189024 C6.28152439,5.6831878 6.11362439,5.68189756 6.07530976,5.80031951 L5.7983561,6.65597561 C5.74209024,6.82965366 5.60470732,6.96507317 5.43004195,7.01881463 L4.57020098,7.28292195 C4.45118439,7.31955366 4.44989976,7.48717317 4.56827122,7.52543171 L5.42424707,7.80238537 C5.59795317,7.85870732 5.73339512,7.99637073 5.78708049,8.17105854 L6.0511878,9.03052927 C6.08753902,9.14956829 6.25543902,9.15085854 6.29375366,9.03249268 Z" id="路径" fill="#FAFAFA"></path>
            <path d="M19.8843976,8.53457073 C19.5299171,8.13818537 18.9766829,7.91497317 18.4388756,7.82347805 C17.8966927,7.73557317 17.3283122,7.74370732 16.7930854,7.83879268 C15.710178,8.02200732 14.7263951,8.47039512 13.8683829,9.02351707 C13.4227439,9.29502927 13.0427951,9.60911951 12.6491024,9.9290439 C12.4594366,10.0908293 12.2864878,10.263161 12.1063585,10.4329683 L11.6142146,10.9226439 C11.0794927,11.4816 10.5524,11.9906854 10.0424171,12.4127073 C9.53041463,12.8327659 9.05167805,13.1517366 8.57995366,13.3745561 C8.10845366,13.5984976 7.60396829,13.7301585 6.94644878,13.7512512 C6.29470732,13.7742512 5.5235622,13.6566146 4.69873171,13.462461 C3.8694639,13.2691488 2.99865585,12.9935976 2.02554268,12.7565293 C2.36508439,13.6985195 2.87639683,14.5309512 3.5328561,15.2918585 C4.19701756,16.0395829 5.02635268,16.7211122 6.09174634,17.1693317 C7.14172439,17.6274805 8.46125122,17.7919024 9.69506098,17.5437829 C10.9321244,17.3057049 12.0177244,16.7332293 12.8952024,16.071222 C13.7749244,15.4024268 14.4866902,14.6405659 15.0867098,13.8485805 C15.2523659,13.6297439 15.3399902,13.5072829 15.4598707,13.3362415 L15.7911268,12.8455 C16.0214073,12.5419 16.2309878,12.1962829 16.4588561,11.8955439 C16.9056732,11.2656244 17.3461512,10.6364902 17.8580415,10.0568341 C18.1156976,9.76282683 18.3872659,9.48160976 18.7079756,9.2113878 C18.8679659,9.07944634 19.0408024,8.95036585 19.2322073,8.83407561 C19.4265293,8.70864146 19.6317341,8.61047073 19.8843976,8.53457073 Z" id="路径" fill="url(#linearGradient-1)"></path>
            <path d="M19.8844537,8.53434634 C19.5036073,7.57339512 18.7957122,6.76452439 17.8454756,6.16764634 C16.9010171,5.57734854 15.5892317,5.2760878 14.2893951,5.53289683 C13.6472463,5.65710244 13.0251244,5.89619024 12.4791268,6.2146 C11.9356537,6.53177561 11.4486146,6.91351951 11.0270415,7.3231439 C10.8165634,7.52857317 10.6254951,7.74292195 10.4357171,7.95850488 L9.94374146,8.58567561 L9.1839561,9.59526341 C8.21531951,10.8942585 7.17224146,12.416578 5.46051415,12.8676585 C3.78006683,13.3104927 3.05122488,12.9183146 2.02560439,12.7563049 C2.21313293,13.2404829 2.44543293,13.7106366 2.76035341,14.1243 C3.0694061,14.546322 3.43444415,14.9427073 3.88829024,15.2824341 C4.11764512,15.445622 4.35979024,15.606678 4.62872756,15.7432756 C4.89643634,15.8752732 5.18514805,15.9913951 5.49330317,16.0788512 C6.10627561,16.2468634 6.79633171,16.3057098 7.46450976,16.2153366 C8.13302439,16.1261415 8.77197561,15.9143171 9.33048293,15.6329317 C9.89308537,15.354239 10.3832098,15.0148488 10.8208268,14.6566098 C11.6907878,13.9341854 12.3674927,13.1359171 12.9390707,12.3290098 C13.2265707,11.9256122 13.4875366,11.5145293 13.7289244,11.1033902 L14.0130024,10.613939 C14.0998415,10.4708341 14.1876902,10.3268878 14.2769415,10.1928146 C14.6368634,9.65410976 14.9889317,9.22215854 15.4165634,8.89797073 C15.8383049,8.56536829 16.425478,8.31966098 17.2101707,8.26255366 C17.9916098,8.20482927 18.8937146,8.31152683 19.8844537,8.53434634 Z" id="路径" fill="#FAFAFA"></path>
            <path d="M15.6568293,16.5182073 C15.6568293,17.2239707 16.2292488,17.7963902 16.9350122,17.7963902 C17.6407756,17.7963902 18.212522,17.2239707 18.212522,16.5182073 C18.212522,15.8124439 17.6407756,15.2400244 16.9350122,15.2400244 C16.2292488,15.2400244 15.6568293,15.8124439 15.6568293,16.5182073 Z" id="路径" fill="#EC796B"></path>
        </g>
    </g>
</svg>