<?xml version="1.0" encoding="UTF-8"?>
<svg width="200px" height="200px" viewBox="0 0 200 200" version="1.1" xmlns="http://www.w3.org/2000/svg" xmlns:xlink="http://www.w3.org/1999/xlink">
    <title>Start-2</title>
    <g id="Start-2" stroke="none" stroke-width="1" fill="none" fill-rule="evenodd">
        <g id="Start">
            <circle id="椭圆形备份-2" stroke="#28C57C" stroke-width="10" fill-rule="nonzero" cx="100.244758" cy="100" r="95"></circle>
            <line x1="53.1211331" y1="50.125" x2="52.7447581" y2="162.5" id="路径备份-2" stroke="#28C57C" stroke-width="18.75" stroke-linecap="round"></line>
            <path d="M101.170283,40 C132.440562,40 126.520106,65.7211818 162.488464,50.0181818 C169.245231,47.0685314 169.245231,53.0742987 169.245231,55.9108391 L169.245231,112.780241 C169.245231,115.218353 169.245231,123.168182 162.634618,127.47972 C131.824262,147.576123 124.524098,109.900479 94.9233687,112.780241 C76.604217,114.562453 73.1419609,134.017198 68,123.168182 L68,56.2961538 C68,52.6695303 69.9684185,49.3287123 73.1419609,47.5734266 L73.1419609,47.0685314 C80.2902126,42.3451048 89.6374153,40 101.176926,40 L101.170283,40 Z" id="路径" fill="#28C57C" fill-rule="nonzero"></path>
        </g>
    </g>
</svg>