<?xml version="1.0" encoding="UTF-8"?>
<svg width="200px" height="200px" viewBox="0 0 200 200" version="1.1" xmlns="http://www.w3.org/2000/svg" xmlns:xlink="http://www.w3.org/1999/xlink">
    <title>Stop-2</title>
    <g id="Stop-2" stroke="none" stroke-width="1" fill="none" fill-rule="evenodd">
        <g id="编组-11" stroke="#1890FF">
            <path d="M99.999875,5 C126.233471,5 149.983425,15.6331779 167.175003,32.8246491 C184.366654,50.0161923 194.999875,73.7660828 194.999875,99.999375 C194.999875,126.233031 184.36671,149.983035 167.175122,167.174622 C149.983535,184.36621 126.233531,194.999375 99.999875,194.999375 C73.7663625,194.999375 50.0163633,184.366176 32.8247578,167.174549 C15.6331981,149.982968 5,126.232995 5,99.999375 C5,73.7661189 15.6332539,50.0162592 32.824877,32.8247221 C50.0164739,15.6332111 73.7664227,5 99.999875,5 Z" id="路径备份-3" stroke-width="10" fill-rule="nonzero"></path>
            <line x1="78.5" y1="63.5" x2="78.873625" y2="136.624375" id="路径备份-6" stroke-width="18.75" stroke-linecap="round"></line>
            <line x1="121.5" y1="63.5" x2="121.873625" y2="136.624375" id="路径备份-7" stroke-width="18.75" stroke-linecap="round"></line>
        </g>
    </g>
</svg>