<?xml version="1.0" encoding="UTF-8"?>
<svg width="28px" height="28px" viewBox="0 0 28 28" version="1.1" xmlns="http://www.w3.org/2000/svg" xmlns:xlink="http://www.w3.org/1999/xlink">
    <title>Storage iCON</title>
    <g id="Storage-iCON" stroke="none" stroke-width="1" fill="none" fill-rule="evenodd">
        <g id="Storage" transform="translate(0.456984, 1.075629)" fill-rule="nonzero">
            <path d="M26.9302088,24.0162042 L26.9302088,18.6696133 M25.0342546,20.6793248 L25.0342546,22.9165508" id="形状" fill="#00A9AD"></path>
            <path d="M25.9745732,5.11354042 L21.6897165,0.904522012 C21.1019707,0.335735733 20.3246295,0.0134234958 19.4904096,0.0134234958 L19.2060165,0.0134234958 C19.2060165,0.0703021105 19.224976,0.127180752 19.224976,0.184059392 L19.224976,4.69643048 C19.224976,6.23215342 18.3907562,7.50244276 17.3859004,7.50244276 L9.46081168,7.50244276 C8.45595593,7.50244276 7.62173605,6.23215342 7.62173605,4.69643048 L7.62173605,0.184059392 C7.62173605,0.127180778 7.64069558,0.0703021368 7.64069561,0.0134234958 L3.22312222,0.0134234958 C1.44092524,0.0134234958 0,1.41642965 0,3.12278846 L0,22.7269553 C0,24.4333142 1.45988477,25.8363203 3.22312222,25.8363203 L23.6235899,25.8363203 C25.4057869,25.8363203 26.8467121,24.4333142 26.8467121,22.7269553 L26.8467121,7.18013055 C26.8467121,6.40278932 26.5433594,5.66336717 25.9745732,5.11354042 Z" id="形状" fill="#FBE5C3"></path>
            <path d="M6.69271848,15.2948147 L16.3241661,15.2948147 C16.7033569,15.2948147 17.0067096,15.7498437 17.0067096,16.2807109 C17.0067096,16.8305377 16.7033569,17.2666071 16.3241661,17.2666071 L6.69271848,17.2666071 C6.31352763,17.2666071 6.01017494,16.8115781 6.01017494,16.2807109 C6.02913447,15.7498437 6.33248716,15.2948147 6.69271848,15.2948147 Z" id="路径" fill="#65533D"></path>
            <path d="M20.1539936,21.0395561 L6.69271848,21.0395561 C6.31352763,21.0395561 6.01017494,20.584527 6.01017494,20.0536599 C6.01017494,19.5038332 6.31352763,19.0677637 6.69271848,19.0677637 L20.1539936,19.0677637 C20.5331845,19.0677637 20.8365371,19.5227927 20.8365371,20.0536599 C20.8365371,20.6034866 20.5331845,21.0395561 20.1539936,21.0395561 Z" id="路径" fill="#65533D"></path>
            <path d="M16.7033569,3.31238389 C16.7033569,4.24140146 16.2293684,4.99978317 15.660582,4.99978317 L11.18613,4.99978317 C10.6173438,4.99978317 10.1433552,4.24140146 10.1433552,3.31238389 L10.1433552,0.582209774 C10.1433552,0.259897563 10.2950316,0.0134234958 10.5035865,0.0134234958 L16.3620851,0.0134234958 C16.5516806,0.0134234958 16.7223164,0.278857092 16.7223164,0.582209774 L16.7223164,3.31238389 L16.7033569,3.31238389 Z" id="路径" fill="#E2B578"></path>
        </g>
    </g>
</svg>