<?xml version="1.0" encoding="UTF-8"?>
<svg width="20px" height="20px" viewBox="0 0 20 20" version="1.1" xmlns="http://www.w3.org/2000/svg" xmlns:xlink="http://www.w3.org/1999/xlink">
    <title>形状结合</title>
    <g id="页面-1" stroke="none" stroke-width="1" fill="none" fill-rule="evenodd">
        <g id="（W）Import-Project" transform="translate(-1209.000000, -391.000000)" fill="#DEB176" fill-rule="nonzero">
            <g id="Frame-625954" transform="translate(240.000000, 196.000000)">
                <g id="Frame-625953" transform="translate(740.000000, 32.000000)">
                    <g transform="translate(0.000000, 82.000000)" id="编组-2">
                        <g transform="translate(0.000000, 61.000000)">
                            <g id="Success" transform="translate(229.000000, 20.000000)">
                                <path d="M9.70965309,3.16191517e-13 C15.0721464,3.15206443e-13 19.4193062,4.34715976 19.4193062,9.70965309 C19.4193062,15.0721464 15.0721464,19.4193062 9.70965309,19.4193062 C4.34715976,19.4193062 3.16848233e-13,15.0721464 3.16191517e-13,9.70965309 C3.15534801e-13,4.34715976 4.34715976,3.17176591e-13 9.70965309,3.16191517e-13 Z M14.7256187,6.2726385 C14.359777,5.9091205 13.7654273,5.9091205 13.3995856,6.2726385 L13.3995856,6.2726385 L8.92320784,10.7420468 L6.60041441,8.42579453 C6.23457269,8.06227653 5.640223,8.06232839 5.27438129,8.42579453 C4.90853957,8.78926067 4.90853957,9.38580668 5.27438129,9.74932468 L5.27438129,9.74932468 L8.2601722,12.7273615 C8.62601391,13.0908795 9.2203636,13.0908795 9.58620532,12.7273615 L9.58628164,12.7273615 L14.7256187,7.59616865 C15.0914604,7.23270251 15.0914604,6.6361565 14.7256187,6.2726385 Z" id="形状结合"></path>
                            </g>
                        </g>
                    </g>
                </g>
            </g>
        </g>
    </g>
</svg>