<?xml version="1.0" encoding="UTF-8"?>
<svg width="16px" height="23px" viewBox="0 0 16 23" version="1.1" xmlns="http://www.w3.org/2000/svg" xmlns:xlink="http://www.w3.org/1999/xlink">
    <title>Sui logo</title>
    <g id="页面-1" stroke="none" stroke-width="1" fill="none" fill-rule="evenodd">
        <g id="Sui-logo" fill="#6CB6E9" fill-rule="nonzero">
            <path d="M1.08279961,19.0061324 C2.52653374,21.5071199 5.11251574,23 7.99998399,23 C10.8874653,23 13.472931,21.5071199 14.9171945,19.0061324 C16.3609352,16.5056024 16.3609352,13.5198423 14.9171945,11.0188548 L8.83335371,0.481163952 C8.46297443,-0.160388856 7.53699355,-0.160387548 7.16661427,0.48116526 L1.08279961,11.0188548 C-0.360933204,13.5193194 -0.360933204,16.5051449 1.08279961,19.0061324 Z M6.28617428,5.49440111 L7.58326645,3.24759732 C7.76848877,2.9268121 8.23147921,2.9268121 8.41670153,3.24759732 L13.4067895,11.8912102 C14.3236204,13.4791886 14.4957059,15.3170369 13.9230461,16.9988064 C13.8634403,16.7244266 13.7801098,16.4437068 13.6677608,16.1601112 C12.9785037,14.4205638 11.4199305,13.078207 9.03458854,12.1700345 C7.3945802,11.5479412 6.34776691,10.6329713 5.92239608,9.45041892 C5.37451317,7.92623157 5.94676778,6.26414187 6.28617428,5.49440111 Z M4.07434921,9.32558196 L2.59315234,11.8912102 C1.46452491,13.8461177 1.46452491,16.1797845 2.59315234,18.134692 C3.72178631,20.0895996 5.74272259,21.2562042 7.99998399,21.2562042 C9.49921292,21.2562042 10.8945892,20.7411047 11.9933092,19.8223439 C12.1366376,19.4615585 12.5803476,18.1409665 12.0321314,16.7798516 C11.5258091,15.5229852 10.3072894,14.519649 8.41023116,13.7969672 C6.26581551,12.9835009 4.87264172,11.7135626 4.27020515,10.0234924 C4.18722764,9.79081204 4.12275929,9.55760876 4.07434921,9.32558196 Z" id="形状"></path>
        </g>
    </g>
</svg>