<?xml version="1.0" encoding="UTF-8"?>
<svg width="26px" height="26px" viewBox="0 0 26 26" version="1.1" xmlns="http://www.w3.org/2000/svg" xmlns:xlink="http://www.w3.org/1999/xlink">
    <title>tips</title>
    <g id="页面-1" stroke="none" stroke-width="1" fill="none" fill-rule="evenodd">
        <g id="(B)Payment" transform="translate(-305.000000, -1063.000000)">
            <g id="tips" transform="translate(305.000000, 1063.000000)">
                <path d="M12.6225332,0.631127451 C15.9338818,0.631127451 18.9317313,1.97330555 21.1017467,4.14330743 C23.2717712,6.31331839 24.6139548,9.31115996 24.6139548,12.6224701 C24.6139548,15.9338262 23.2717783,18.9316821 21.1017618,21.1016987 C18.9317452,23.2717152 15.9338894,24.6138917 12.6225332,24.6138917 C9.31119527,24.6138917 6.31333998,23.271711 4.14332114,21.1016894 C1.97330809,18.9316737 0.631127451,15.9338217 0.631127451,12.6224701 C0.631127451,9.31116452 1.97331514,6.31332684 4.14333618,4.14331664 C6.31335393,1.97330974 9.31120286,0.631127451 12.6225332,0.631127451 Z" id="路径备份-11" stroke="#E2B578" stroke-width="1.2622549" fill-rule="nonzero"></path>
                <line x1="12.8590483" y1="10.6502757" x2="12.8590483" y2="17.7503807" id="路径备份-12" stroke="#E2B578" stroke-width="2.36672794" stroke-linecap="round"></line>
                <circle id="椭圆形备份-7" fill="#E2B578" fill-rule="nonzero" cx="12.8590483" cy="7.49463848" r="1.18336397"></circle>
            </g>
        </g>
    </g>
</svg>