<?xml version="1.0" encoding="UTF-8"?>
<svg width="13px" height="7px" viewBox="0 0 13 7" version="1.1" xmlns="http://www.w3.org/2000/svg" xmlns:xlink="http://www.w3.org/1999/xlink">
    <title>收起箭头@1x</title>
    <g id="页面-1" stroke="none" stroke-width="1" fill="none" fill-rule="evenodd">
        <g id="(B)Check-Detail-2-MetaTrust-(SA)(EVM)-展开备份" transform="translate(-1827.000000, -773.000000)" fill="#E2B578" fill-rule="nonzero">
            <path d="M1833.50198,778.57753 L1838.98216,773.177783 C1839.09254,773.064219 1839.2452,773 1839.40479,773 C1839.56437,773 1839.71704,773.064219 1839.82741,773.177783 C1840.05753,773.409101 1840.05753,773.779307 1839.82741,774.010625 L1833.92925,779.822217 C1833.81887,779.935781 1833.66621,780 1833.50662,780 C1833.34704,780 1833.19438,779.935781 1833.084,779.822217 L1827.17654,774.010625 C1827.06157,773.900106 1826.99775,773.747879 1827,773.589628 C1826.9981,773.434118 1827.06206,773.284852 1827.17654,773.177783 C1827.41131,772.951046 1827.78703,772.951046 1828.02179,773.177783 L1833.50198,778.57753 Z" id="收起箭头" transform="translate(1833.500000, 776.500000) scale(1, -1) translate(-1833.500000, -776.500000) "></path>
        </g>
    </g>
</svg>