<?xml version="1.0" encoding="UTF-8"?>
<svg width="20px" height="20px" viewBox="0 0 20 20" version="1.1" xmlns="http://www.w3.org/2000/svg" xmlns:xlink="http://www.w3.org/1999/xlink">
    <title>User</title>
    <g id="页面-1" stroke="none" stroke-width="1" fill="none" fill-rule="evenodd">
        <g id="(W)用户下拉框" transform="translate(-1652.000000, -88.000000)" fill="#7B7B7B" fill-rule="nonzero">
            <g id="编组-2" transform="translate(1631.000000, 68.000000)">
                <path d="M31,20 C25.4860908,20 21,24.4865091 21,30 C21,35.5134909 25.4865091,40 31,40 C36.5134909,40 41,35.5134909 41,30 C41,24.4865091 36.5139092,20 31,20 Z M31,39.1713031 C25.942899,39.1713031 21.8291153,35.057101 21.8291153,30 C21.8291153,24.942899 25.942899,20.8286969 31,20.8286969 C36.057101,20.8286969 40.1708847,24.942899 40.1708847,30 C40.1708847,35.057101 36.057101,39.1713031 31,39.1713031 Z M32.9477097,30.1698389 L32.9477097,30.1698389 C33.8868438,29.5411002 34.5059611,28.4706128 34.5059611,27.2553859 C34.5059611,25.3193892 32.936415,23.7498431 31.0004183,23.7498431 C29.0644217,23.7498431 27.4948755,25.3193892 27.4948755,27.2553859 C27.4948755,28.4710312 28.1139929,29.5411002 29.0535453,30.1698389 C27.0815729,30.9470822 25.6856306,32.8676009 25.6856306,35.1152479 C25.6856306,35.1198494 25.6856306,35.1240326 25.6860489,35.1282158 C25.6860489,35.1290525 25.6856306,35.1303075 25.6856306,35.1311441 C25.6856306,35.4381928 25.9345325,35.6866764 26.2415813,35.6866764 C26.5482117,35.6866764 26.6720351,35.4381929 26.6720351,35.1311441 C26.6720351,35.124451 26.6703619,35.1181761 26.6699435,35.1110646 C26.6720351,32.7902113 28.6791466,30.7843548 31.0008366,30.7843548 C33.3237816,30.7843548 35.3317298,32.7923029 35.3317298,35.1152479 C35.3317298,35.1181761 35.3028655,35.6866764 35.7638569,35.6866764 C36.0688141,35.6866764 36.3160427,35.4394478 36.3160427,35.134909 C36.3160427,35.1336541 36.3156243,35.1323991 36.3156243,35.1307258 C36.3156243,35.1257059 36.3160427,35.1206861 36.3160427,35.1152479 C36.315206,32.8676009 34.9188454,30.9470822 32.9477097,30.1698389 Z M31,29.9054591 C29.5367078,29.9054591 28.3503451,28.7190964 28.3503451,27.2558042 C28.3503451,25.7920937 29.5367078,24.6061493 31,24.6061493 C32.4637105,24.6061493 33.6496549,25.792512 33.6496549,27.2558042 C33.6496549,28.7190964 32.4632922,29.9054591 31,29.9054591 Z" id="User"></path>
            </g>
        </g>
    </g>
</svg>