<?xml version="1.0" encoding="UTF-8"?>
<svg width="19px" height="16px" viewBox="0 0 19 16" version="1.1" xmlns="http://www.w3.org/2000/svg" xmlns:xlink="http://www.w3.org/1999/xlink">
    <title>failed 2</title>
    <g id="页面-1" stroke="none" stroke-width="1" fill="none" fill-rule="evenodd">
        <g id="(W)Deployment-Details-2" transform="translate(-925.000000, -1322.000000)" fill="#D81E06" fill-rule="nonzero">
            <g id="Frame-625954" transform="translate(240.000000, 525.000000)">
                <g id="Frame-625779" transform="translate(28.000000, 183.000000)">
                    <g id="编组-4备份-2" transform="translate(20.000000, 461.000000)">
                        <g id="jinggao1-copy" transform="translate(637.000000, 153.000000)">
                            <path d="M9.11501645,13.1835505 C8.62056772,13.1835505 8.27702908,12.8263895 8.27702908,12.3044833 C8.27702908,11.8100345 8.62035487,11.425416 9.11501645,11.425416 C9.60946519,11.425416 9.98046138,11.8100345 9.98046138,12.3044833 C9.98046138,12.8263895 9.60946519,13.1835505 9.11501645,13.1835505 Z M9.09417161,4.47226944 C9.46495495,4.47226944 9.87703104,4.55464209 9.89086624,4.93926062 C9.89086624,5.07654837 9.87703104,5.26896406 9.84957349,5.47500211 C9.75336565,6.53264987 9.47879015,9.0051064 9.36874711,10.6397884 L8.83321847,10.6397884 C8.70955308,9.0051064 8.46243513,6.60140017 8.35239209,5.48883731 C8.33855689,5.31025681 8.31109934,5.06292602 8.31109934,4.92563827 C8.31109934,4.56847728 8.70955308,4.47226944 9.09417161,4.47226944 L9.09417161,4.47226944 Z" id="Shape"></path>
                            <path d="M16.1041641,14.3707469 L2.0511912,14.3707469 L9.00279031,2.15168762 C11.3130618,6.06795208 13.6801864,10.1409718 16.1041641,14.3707469 Z M9.09055318,0.017760987 C8.86237882,0.017760987 8.65165809,0.13951074 8.53757091,0.337034815 L0.0883083186,14.9714829 C-0.0257274121,15.1690512 -0.0257149083,15.4124456 0.0883411212,15.6100022 C0.202397151,15.8075588 0.413173514,15.9293043 0.641290589,15.9293043 L17.5398158,15.9293043 C17.7679328,15.9293043 17.9787092,15.8075588 18.0927652,15.6100022 C18.2068213,15.4124456 18.2068338,15.1690512 18.092798,14.9714829 L9.64353545,0.337034815 C9.52944827,0.13951074 9.31872754,0.017760987 9.09055318,0.017760987 Z" id="Shape"></path>
                        </g>
                    </g>
                </g>
            </g>
        </g>
    </g>
</svg>