<svg width="802" height="441" viewBox="0 0 802 441" fill="none" xmlns="http://www.w3.org/2000/svg">
<rect x="0.808594" y="0.257812" width="800" height="439" rx="20" fill="#0E0E13" stroke="white" stroke-width="0.5"/>
<line x1="1.29297" y1="44.2594" x2="800.32" y2="44.2594" stroke="white" stroke-opacity="0.2" stroke-width="0.2"/>
<line x1="1.29297" y1="263.064" x2="800.32" y2="263.064" stroke="white" stroke-opacity="0.2" stroke-width="0.2"/>
<line x1="1.29297" y1="219.306" x2="800.32" y2="219.306" stroke="white" stroke-opacity="0.2" stroke-width="0.2"/>
<line x1="1.29297" y1="88.0172" x2="800.32" y2="88.0172" stroke="white" stroke-opacity="0.2" stroke-width="0.2"/>
<line x1="1.29297" y1="306.83" x2="800.32" y2="306.83" stroke="white" stroke-opacity="0.2" stroke-width="0.2"/>
<line x1="1.29297" y1="131.783" x2="800.32" y2="131.783" stroke="white" stroke-opacity="0.2" stroke-width="0.2"/>
<line x1="1.29297" y1="350.587" x2="800.32" y2="350.587" stroke="white" stroke-opacity="0.2" stroke-width="0.2"/>
<line x1="1.29297" y1="175.548" x2="800.32" y2="175.548" stroke="white" stroke-opacity="0.2" stroke-width="0.2"/>
<line x1="1.29297" y1="394.353" x2="800.32" y2="394.353" stroke="white" stroke-opacity="0.2" stroke-width="0.2"/>
<line x1="59.8727" y1="440.359" x2="59.8727" y2="0.4375" stroke="white" stroke-opacity="0.2" stroke-width="0.2"/>
<line x1="369.873" y1="440.359" x2="369.873" y2="0.4375" stroke="white" stroke-opacity="0.2" stroke-width="0.2"/>
<line x1="307.873" y1="440.359" x2="307.873" y2="0.4375" stroke="white" stroke-opacity="0.2" stroke-width="0.2"/>
<line x1="121.873" y1="440.359" x2="121.873" y2="0.4375" stroke="white" stroke-opacity="0.2" stroke-width="0.2"/>
<line x1="431.873" y1="440.359" x2="431.873" y2="0.4375" stroke="white" stroke-opacity="0.2" stroke-width="0.2"/>
<line x1="183.873" y1="440.359" x2="183.873" y2="0.4375" stroke="white" stroke-opacity="0.2" stroke-width="0.2"/>
<line x1="493.873" y1="440.359" x2="493.873" y2="0.4375" stroke="white" stroke-opacity="0.2" stroke-width="0.2"/>
<line x1="245.873" y1="440.359" x2="245.873" y2="0.4375" stroke="white" stroke-opacity="0.2" stroke-width="0.2"/>
<line x1="555.873" y1="440.359" x2="555.873" y2="0.4375" stroke="white" stroke-opacity="0.2" stroke-width="0.2"/>
<line x1="617.873" y1="440.359" x2="617.873" y2="0.4375" stroke="white" stroke-opacity="0.2" stroke-width="0.2"/>
<line x1="679.873" y1="440.359" x2="679.873" y2="0.4375" stroke="white" stroke-opacity="0.2" stroke-width="0.2"/>
<line x1="741.873" y1="440.359" x2="741.873" y2="0.4375" stroke="white" stroke-opacity="0.2" stroke-width="0.2"/>
</svg>
