<svg width="156" height="29" viewBox="0 0 156 29" fill="none" xmlns="http://www.w3.org/2000/svg">
<path d="M50.4551 6.94728V11.9678C50.4551 12.116 50.5139 12.2581 50.6187 12.3629C50.7235 12.4677 50.8657 12.5266 51.0139 12.5266H55.846C55.9191 12.5264 55.9914 12.5117 56.0588 12.4834C56.1263 12.4552 56.1875 12.414 56.239 12.3621C56.2905 12.3102 56.3312 12.2487 56.3589 12.181C56.3866 12.1134 56.4008 12.0409 56.4005 11.9678V6.94945C56.4002 6.87599 56.4144 6.80316 56.4424 6.73524C56.4704 6.66731 56.5115 6.6056 56.5635 6.55365C56.6154 6.50171 56.6772 6.46054 56.7451 6.43256C56.813 6.40458 56.8858 6.39034 56.9593 6.39063H59.45C59.5233 6.39063 59.5959 6.40509 59.6636 6.4332C59.7312 6.46131 59.7927 6.50253 59.8444 6.55445C59.8961 6.60636 59.9371 6.66798 59.965 6.73577C59.9928 6.80355 60.007 6.87617 60.0067 6.94945V21.7837C60.007 21.857 59.9928 21.9296 59.965 21.9974C59.9371 22.0652 59.8961 22.1268 59.8444 22.1787C59.7927 22.2306 59.7312 22.2718 59.6636 22.2999C59.5959 22.328 59.5233 22.3425 59.45 22.3425H56.9593C56.8858 22.3428 56.813 22.3285 56.7451 22.3005C56.6772 22.2726 56.6154 22.2314 56.5635 22.1794C56.5115 22.1275 56.4704 22.0658 56.4424 21.9979C56.4144 21.9299 56.4002 21.8572 56.4005 21.7837V16.2238C56.4005 16.0762 56.3418 15.9346 56.2374 15.8302C56.1331 15.7258 55.9915 15.6672 55.8438 15.6672H51.0117C50.8639 15.6672 50.7221 15.7257 50.6173 15.8301C50.5126 15.9344 50.4535 16.076 50.4529 16.2238V21.7837C50.4532 21.857 50.439 21.9296 50.4112 21.9974C50.3833 22.0652 50.3423 22.1268 50.2906 22.1787C50.2389 22.2306 50.1775 22.2718 50.1098 22.2999C50.0421 22.328 49.9695 22.3425 49.8963 22.3425H47.4055C47.332 22.3428 47.2592 22.3285 47.1913 22.3005C47.1234 22.2726 47.0617 22.2314 47.0097 22.1794C46.9578 22.1275 46.9166 22.0658 46.8886 21.9979C46.8607 21.9299 46.8464 21.8572 46.8467 21.7837V6.94945C46.8464 6.87599 46.8607 6.80316 46.8886 6.73524C46.9166 6.66731 46.9578 6.6056 47.0097 6.55365C47.0617 6.50171 47.1234 6.46054 47.1913 6.43256C47.2592 6.40458 47.332 6.39034 47.4055 6.39063H49.9028C50.0496 6.39177 50.1901 6.45092 50.2936 6.55519C50.397 6.65945 50.4551 6.8004 50.4551 6.94728V6.94728Z" fill="white"/>
<path d="M67.7143 18.6561L66.8133 21.9331C66.7807 22.0506 66.7105 22.1542 66.6135 22.2281C66.5166 22.302 66.3981 22.3422 66.2761 22.3425H63.7247C63.6374 22.3426 63.5513 22.3223 63.4734 22.2831C63.3954 22.2438 63.3278 22.1868 63.2759 22.1166C63.2241 22.0464 63.1894 21.965 63.1748 21.8789C63.1602 21.7929 63.1661 21.7046 63.1919 21.6213L67.7186 6.78483C67.7534 6.6707 67.824 6.57074 67.92 6.49977C68.0159 6.42879 68.1321 6.39054 68.2514 6.39063H72.15C72.2691 6.3904 72.3851 6.42836 72.481 6.49892C72.5769 6.56948 72.6477 6.66893 72.6829 6.78267L77.3027 21.6191C77.3285 21.7026 77.3343 21.7909 77.3197 21.8771C77.3051 21.9632 77.2705 22.0447 77.2187 22.1151C77.1668 22.1854 77.0993 22.2426 77.0213 22.2821C76.9434 22.3216 76.8573 22.3423 76.7699 22.3425H74.0561C73.9362 22.3423 73.8196 22.3034 73.7236 22.2316C73.6276 22.1598 73.5573 22.0589 73.5232 21.944L72.5334 18.6431C72.4993 18.5284 72.429 18.4278 72.3329 18.3564C72.2369 18.2849 72.1203 18.2465 72.0006 18.2468H68.2536C68.1311 18.2458 68.0118 18.2855 67.9142 18.3596C67.8167 18.4336 67.7463 18.5379 67.7143 18.6561ZM71.1343 15.5589C71.2207 15.559 71.306 15.5389 71.3834 15.5003C71.4608 15.4617 71.5281 15.4056 71.58 15.3364C71.6319 15.2673 71.667 15.187 71.6825 15.1019C71.698 15.0168 71.6935 14.9293 71.6692 14.8463L70.8852 12.1692C70.6101 11.2271 70.3285 10.0315 70.0838 9.098H70.034C69.8001 10.0358 69.5597 11.2466 69.3041 12.1736L68.5482 14.8506C68.5247 14.9336 68.5208 15.0208 68.5368 15.1055C68.5528 15.1901 68.5882 15.2699 68.6402 15.3386C68.6923 15.4073 68.7596 15.4629 68.8368 15.5012C68.9141 15.5394 68.9991 15.5591 69.0853 15.5589H71.1343Z" fill="white"/>
<path d="M94.294 16.2411C94.2204 14.307 94.1468 12.0089 94.1554 9.66978H94.0905C93.5815 11.7122 92.9122 13.9799 92.3123 15.8621L90.4799 21.6905C90.4444 21.8035 90.3738 21.9023 90.2784 21.9724C90.183 22.0425 90.0677 22.0803 89.9493 22.0804H87.9783C87.8566 22.0802 87.7384 22.0404 87.6414 21.9669C87.5445 21.8934 87.4742 21.7903 87.4412 21.6732L85.8362 15.9163C85.3229 14.0384 84.7922 11.7729 84.3981 9.66978H84.3482C84.2681 11.8357 84.1793 14.3026 84.084 16.2888L83.8111 21.8118C83.8044 21.9549 83.7428 22.0899 83.6391 22.1887C83.5355 22.2876 83.3977 22.3426 83.2545 22.3425H81.0431C80.9669 22.3423 80.8915 22.3266 80.8216 22.2962C80.7517 22.2659 80.6887 22.2215 80.6366 22.166C80.5845 22.1104 80.5442 22.0447 80.5184 21.973C80.4926 21.9013 80.4817 21.8251 80.4864 21.749L81.4373 6.91259C81.4461 6.77105 81.5086 6.63823 81.6121 6.54122C81.7155 6.44422 81.8521 6.39035 81.9939 6.39063H85.86C85.9805 6.39084 86.0976 6.42994 86.194 6.50215C86.2904 6.57435 86.3609 6.67582 86.395 6.79134L87.8332 11.7231C88.3378 13.5511 88.8295 15.5545 89.1869 17.4259H89.2627C89.6958 15.5784 90.2395 13.4753 90.7788 11.6992L92.3491 6.77833C92.3852 6.66594 92.456 6.56788 92.5514 6.49823C92.6467 6.42858 92.7617 6.3909 92.8797 6.39063H96.6614C96.8043 6.39044 96.9417 6.44523 97.0454 6.5436C97.149 6.64198 97.2108 6.7764 97.218 6.91909L98.0151 21.7555C98.0189 21.831 98.0073 21.9066 97.9811 21.9775C97.9549 22.0484 97.9145 22.1133 97.8624 22.1682C97.8104 22.2231 97.7478 22.2668 97.6783 22.2968C97.6089 22.3267 97.5341 22.3423 97.4584 22.3425H95.076C94.932 22.3426 94.7936 22.2869 94.6898 22.1872C94.586 22.0874 94.5249 21.9513 94.5193 21.8075L94.294 16.2411Z" fill="white"/>
<path d="M101.654 19.2764C101.673 19.1978 101.709 19.1244 101.76 19.0613C101.811 18.9982 101.875 18.9469 101.947 18.911C102.02 18.8751 102.099 18.8555 102.18 18.8535C102.261 18.8515 102.342 18.8673 102.416 18.8996C103.492 19.3583 104.647 19.6019 105.816 19.6165C107.471 19.6165 108.351 18.9277 108.351 17.8838C108.351 16.9026 107.588 16.3265 105.68 15.6529C103.018 14.7086 101.279 13.2596 101.279 10.9291C101.279 8.20868 103.562 6.14244 107.313 6.14244C108.542 6.11898 109.765 6.32308 110.919 6.74451C111.049 6.79478 111.155 6.89128 111.217 7.01531C111.28 7.13933 111.294 7.28208 111.257 7.41597L110.759 9.22018C110.739 9.29494 110.704 9.36468 110.655 9.42492C110.607 9.48517 110.546 9.53454 110.477 9.56986C110.409 9.60519 110.333 9.62568 110.256 9.62999C110.179 9.63429 110.101 9.62233 110.029 9.59487C109.146 9.25217 108.206 9.07732 107.259 9.07936C105.689 9.07936 104.939 9.80713 104.939 10.6215C104.939 11.6352 105.823 12.0835 107.891 12.8632C110.707 13.9201 112.024 15.3865 112.024 17.6412C112.024 20.3031 109.984 22.5903 105.593 22.5903C104.193 22.5896 102.807 22.3227 101.506 21.804C101.385 21.7507 101.288 21.6559 101.23 21.5367C101.173 21.4176 101.16 21.282 101.194 21.1543L101.654 19.2764Z" fill="white"/>
<path d="M118.93 9.41855H115.741C115.668 9.41884 115.596 9.40468 115.528 9.37683C115.46 9.34899 115.398 9.30799 115.346 9.25627C115.295 9.20455 115.253 9.1431 115.225 9.07543C115.197 9.00775 115.183 8.93518 115.183 8.8619V6.94945C115.182 6.87599 115.197 6.80316 115.225 6.73524C115.253 6.66731 115.294 6.6056 115.346 6.55365C115.398 6.50171 115.459 6.46054 115.527 6.43256C115.595 6.40458 115.668 6.39034 115.741 6.39063H126.902C126.976 6.39063 127.048 6.40509 127.116 6.4332C127.184 6.46131 127.245 6.50253 127.297 6.55445C127.348 6.60636 127.389 6.66798 127.417 6.73577C127.445 6.80355 127.459 6.87617 127.459 6.94945V8.8619C127.459 9.00953 127.4 9.15114 127.296 9.25553C127.192 9.35992 127.05 9.41855 126.902 9.41855H123.653C123.58 9.41855 123.508 9.43301 123.44 9.46112C123.372 9.48923 123.311 9.53045 123.259 9.58237C123.207 9.63429 123.166 9.69591 123.139 9.76369C123.111 9.83148 123.097 9.90409 123.097 9.97737V21.7837C123.097 21.857 123.083 21.9296 123.055 21.9974C123.027 22.0652 122.986 22.1268 122.935 22.1787C122.883 22.2306 122.821 22.2718 122.754 22.2999C122.686 22.328 122.613 22.3425 122.54 22.3425H120.045C119.972 22.3425 119.899 22.328 119.832 22.2999C119.764 22.2718 119.702 22.2306 119.651 22.1787C119.599 22.1268 119.558 22.0652 119.53 21.9974C119.502 21.9296 119.488 21.857 119.488 21.7837V9.97737C119.488 9.90399 119.474 9.83133 119.446 9.76353C119.418 9.69574 119.377 9.6341 119.325 9.58221C119.273 9.53032 119.211 9.4892 119.143 9.46112C119.076 9.43304 119.003 9.41855 118.93 9.41855Z" fill="white"/>
<path d="M139.548 15.5935H134.783C134.635 15.5941 134.494 15.6533 134.389 15.758C134.285 15.8627 134.226 16.0045 134.226 16.1524V18.8294C134.226 18.9027 134.24 18.9753 134.268 19.0431C134.296 19.1108 134.337 19.1725 134.389 19.2244C134.44 19.2763 134.502 19.3175 134.569 19.3456C134.637 19.3737 134.71 19.3882 134.783 19.3882H140.23C140.378 19.3882 140.519 19.4468 140.624 19.5512C140.728 19.6556 140.787 19.7972 140.787 19.9448V21.7837C140.787 21.857 140.773 21.9296 140.745 21.9974C140.717 22.0652 140.676 22.1268 140.625 22.1787C140.573 22.2306 140.511 22.2718 140.444 22.2999C140.376 22.328 140.304 22.3425 140.23 22.3425H131.177C131.103 22.3425 131.031 22.328 130.963 22.2999C130.896 22.2718 130.834 22.2306 130.782 22.1787C130.731 22.1268 130.69 22.0652 130.662 21.9974C130.634 21.9296 130.62 21.857 130.62 21.7837V6.94944C130.62 6.87616 130.634 6.80355 130.662 6.73576C130.69 6.66798 130.731 6.60636 130.782 6.55444C130.834 6.50252 130.896 6.4613 130.963 6.43319C131.031 6.40508 131.103 6.39062 131.177 6.39063H139.888C140.036 6.39063 140.178 6.44949 140.283 6.55428C140.388 6.65908 140.447 6.80124 140.447 6.94944V8.78829C140.446 8.93612 140.387 9.0777 140.282 9.18202C140.178 9.28635 140.036 9.34489 139.888 9.34489H134.783C134.71 9.34489 134.637 9.3594 134.569 9.38751C134.502 9.41562 134.44 9.45679 134.389 9.50871C134.337 9.56063 134.296 9.62224 134.268 9.69003C134.24 9.75781 134.226 9.83043 134.226 9.90371V12.1107C134.226 12.2584 134.285 12.4 134.389 12.5044C134.494 12.6088 134.635 12.6674 134.783 12.6674H139.548C139.696 12.668 139.838 12.727 139.942 12.8317C140.047 12.9364 140.106 13.0782 140.107 13.2262V15.0369C140.106 15.1847 140.047 15.3263 139.942 15.4306C139.838 15.5349 139.696 15.5935 139.548 15.5935V15.5935Z" fill="white"/>
<path d="M143.945 7.08687C143.946 6.9517 143.995 6.82129 144.084 6.71973C144.173 6.61818 144.296 6.55237 144.43 6.53455C145.859 6.3489 147.298 6.25918 148.738 6.26598C151.104 6.26598 152.761 6.62771 153.9 7.52872C154.853 8.28679 155.377 9.40655 155.377 10.8729C155.377 12.8936 153.932 14.3015 152.561 14.7932V14.8689C153.668 15.3151 154.294 16.3721 154.693 17.8384C155.061 19.1878 155.422 20.6909 155.713 21.6201C155.738 21.7035 155.744 21.7917 155.73 21.8778C155.715 21.9638 155.68 22.0453 155.629 22.1155C155.577 22.1857 155.509 22.2427 155.431 22.2819C155.353 22.3212 155.267 22.3415 155.18 22.3413H152.65C152.539 22.343 152.431 22.3109 152.339 22.2494C152.247 22.1879 152.175 22.0999 152.135 21.997C151.747 20.8938 151.432 19.7666 151.19 18.6225C150.757 16.6298 150.075 16.097 148.591 16.0775H148.076C147.928 16.0781 147.786 16.1372 147.682 16.242C147.578 16.3467 147.519 16.4885 147.519 16.6363V21.7825C147.519 21.856 147.505 21.9288 147.477 21.9967C147.449 22.0646 147.408 22.1263 147.356 22.1783C147.304 22.2302 147.242 22.2714 147.174 22.2994C147.106 22.3273 147.034 22.3416 146.96 22.3413H144.502C144.429 22.3413 144.356 22.3268 144.288 22.2987C144.221 22.2706 144.159 22.2295 144.108 22.1775C144.056 22.1256 144.015 22.064 143.987 21.9962C143.959 21.9284 143.945 21.8558 143.945 21.7825V7.08687ZM147.519 12.911C147.519 13.0586 147.578 13.2002 147.682 13.3046C147.786 13.409 147.928 13.4676 148.076 13.4676H148.942C150.731 13.4676 151.801 12.5558 151.801 11.1696C151.801 9.7098 150.8 8.96257 149.152 8.9539C148.68 8.9539 148.314 8.97122 148.039 8.99721C147.9 9.00865 147.77 9.07206 147.676 9.17483C147.582 9.2776 147.529 9.41219 147.53 9.55169L147.519 12.911Z" fill="white"/>
<path d="M15.5566 2.33898C14.969 2.48811 14.3547 2.25885 13.9199 1.83627C12.9845 0.927065 11.7078 0.367188 10.3003 0.367188C7.43214 0.367188 5.10694 2.69239 5.10694 5.56066C5.10694 5.87271 5.13449 6.17835 5.18726 6.47526C5.25673 6.86612 5.12231 7.27453 4.81035 7.52003C2.0952 9.6567 0.351562 12.9726 0.351562 16.6957C0.351562 23.1405 5.5761 28.365 12.0209 28.365C15.3537 28.365 18.3603 26.9679 20.4867 24.7272C22.613 26.9679 25.6195 28.365 28.9524 28.365C35.3972 28.365 40.6218 23.1405 40.6218 16.6957C40.6218 13.2809 39.155 10.2087 36.8171 8.07467C36.5158 7.79965 36.4145 7.36762 36.5254 6.97502C36.6524 6.52536 36.7203 6.05096 36.7203 5.56066C36.7203 2.69239 34.3951 0.367188 31.5268 0.367188C30.1905 0.367188 28.972 0.871971 28.0517 1.70117C27.6385 2.07345 27.0803 2.27643 26.5369 2.15867C24.9265 1.8097 23.2107 1.62139 21.4302 1.62139C19.364 1.62139 17.3849 1.87503 15.5566 2.33898Z" fill="#A05E1C"/>
<path d="M5.13374 7.07297C5.0687 7.2457 4.95993 7.40087 4.81035 7.51859C2.0952 9.65526 0.351562 12.9711 0.351562 16.6943C0.351562 23.1391 5.5761 28.3636 12.0209 28.3636C15.3537 28.3636 18.3603 26.9664 20.4867 24.7258C22.613 26.9664 25.6195 28.3636 28.9524 28.3636C35.3972 28.3636 40.6218 23.1391 40.6218 16.6943C40.6218 13.2795 39.155 10.2072 36.8171 8.07323C36.5901 7.86603 36.4766 7.5697 36.4819 7.26826L36.4215 7.44121C36.4215 7.44121 29.5399 6.45919 25.6768 10.3301C20.2294 15.7887 20.2294 22.1665 20.2294 22.1665C20.2294 22.1665 20.2294 15.3162 14.9682 10.3301C10.6455 6.23347 5.15688 7.10002 5.15688 7.10002L5.13374 7.07297Z" fill="#E9C89C"/>
<path d="M19.4943 24.7777C19.9539 25.3137 20.7833 25.3137 21.2429 24.7777L22.2495 23.6038C22.8901 22.8567 22.3593 21.7023 21.3752 21.7023H19.362C18.3779 21.7023 17.8471 22.8567 18.4877 23.6038L19.4943 24.7777Z" fill="black"/>
<path d="M28.7193 16.4941C29.5666 16.0667 30.0034 14.7683 29.6951 13.5941C29.3867 12.4198 28.4498 11.8144 27.6025 12.2418C26.7552 12.6692 26.3184 13.9675 26.6267 15.1418C26.9351 16.316 27.872 16.9215 28.7193 16.4941Z" fill="black"/>
<path d="M27.8732 13.9299C28.1898 13.8147 28.353 13.4647 28.2378 13.1481C28.1226 12.8316 27.7725 12.6684 27.456 12.7836C27.1394 12.8988 26.9762 13.2488 27.0914 13.5654C27.2066 13.8819 27.5567 14.0451 27.8732 13.9299Z" fill="white"/>
<path d="M12.2611 16.4941C11.4138 16.0667 10.977 14.7683 11.2853 13.5941C11.5937 12.4198 12.5306 11.8144 13.3779 12.2418C14.2252 12.6692 14.6621 13.9676 14.3537 15.1418C14.0453 16.3161 13.1084 16.9215 12.2611 16.4941Z" fill="black"/>
<path d="M13.1063 13.9299C12.7897 13.8147 12.6265 13.4647 12.7417 13.1481C12.8569 12.8316 13.2069 12.6683 13.5235 12.7836C13.8401 12.8988 14.0033 13.2488 13.8881 13.5654C13.7728 13.8819 13.4228 14.0451 13.1063 13.9299Z" fill="white"/>
<path fill-rule="evenodd" clip-rule="evenodd" d="M22.969 22.1075C22.2736 22.5585 21.7355 23.1051 21.4532 23.47L21.4053 23.4329C21.6914 23.063 22.2346 22.5116 22.936 22.0566C23.6374 21.6017 24.4994 21.2416 25.4226 21.2584L25.4215 21.319C24.5146 21.3025 23.6644 21.6564 22.969 22.1075Z" fill="black"/>
<path fill-rule="evenodd" clip-rule="evenodd" d="M23.5954 22.8925C22.7781 23.0307 22.0672 23.3189 21.6634 23.5418L21.6341 23.4888C22.0436 23.2627 22.7609 22.9721 23.5853 22.8327C24.4096 22.6934 25.3437 22.7049 26.1844 23.0865L26.1594 23.1417C25.3335 22.7668 24.4127 22.7544 23.5954 22.8925Z" fill="black"/>
<path fill-rule="evenodd" clip-rule="evenodd" d="M23.5249 23.8745C22.7036 23.7634 21.9391 23.8273 21.4873 23.9201L21.4751 23.8607C21.9332 23.7666 22.7045 23.7024 23.533 23.8144C24.3615 23.9264 25.25 24.2151 25.9393 24.8294L25.8989 24.8747C25.2218 24.2711 24.3463 23.9855 23.5249 23.8745Z" fill="black"/>
<path fill-rule="evenodd" clip-rule="evenodd" d="M17.7976 22.1075C18.493 22.5585 19.0311 23.1051 19.3134 23.47L19.3613 23.4329C19.0752 23.063 18.532 22.5116 17.8306 22.0566C17.1292 21.6017 16.2672 21.2416 15.344 21.2584L15.3451 21.319C16.252 21.3025 17.1022 21.6564 17.7976 22.1075Z" fill="black"/>
<path fill-rule="evenodd" clip-rule="evenodd" d="M17.1712 22.8925C17.9885 23.0307 18.6994 23.3189 19.1032 23.5418L19.1325 23.4888C18.723 23.2627 18.0057 22.9721 17.1813 22.8327C16.357 22.6934 15.4229 22.7049 14.5822 23.0865L14.6072 23.1417C15.4331 22.7668 16.3539 22.7544 17.1712 22.8925Z" fill="black"/>
<path fill-rule="evenodd" clip-rule="evenodd" d="M17.2417 23.8745C18.063 23.7634 18.8275 23.8273 19.2793 23.9201L19.2915 23.8607C18.8334 23.7666 18.0621 23.7024 17.2336 23.8144C16.4051 23.9264 15.5166 24.2151 14.8273 24.8294L14.8677 24.8747C15.5448 24.2711 16.4203 23.9855 17.2417 23.8745Z" fill="black"/>
</svg>
