<?xml version="1.0" encoding="UTF-8"?>
<svg width="29px" height="28px" viewBox="0 0 29 28" version="1.1" xmlns="http://www.w3.org/2000/svg" xmlns:xlink="http://www.w3.org/1999/xlink">
    <title>(Y)Work@1x</title>
    <defs>
        <filter id="filter-1">
            <feColorMatrix in="SourceGraphic" type="matrix" values="0 0 0 0 0.886275 0 0 0 0 0.709804 0 0 0 0 0.470588 0 0 0 1.000000 0"></feColorMatrix>
        </filter>
        <filter id="filter-2">
            <feColorMatrix in="SourceGraphic" type="matrix" values="0 0 0 0 0.886275 0 0 0 0 0.709804 0 0 0 0 0.470588 0 0 0 1.000000 0"></feColorMatrix>
        </filter>
    </defs>
    <g id="Page-1" stroke="none" stroke-width="1" fill="none" fill-rule="evenodd">
        <g id="(W)Marketplace" transform="translate(-226.000000, -134.000000)">
            <g id="Group-4" transform="translate(226.000000, 82.000000)">
                <g id="(Y)Work" transform="translate(0.000000, 52.000000)" filter="url(#filter-1)">
                    <g filter="url(#filter-2)" id="Group-9">
                        <g>
                            <path d="M25.5348837,0.697674419 C26.0357931,0.697674419 26.4892815,0.900708079 26.8175425,1.22896909 C27.1458035,1.55723011 27.3488372,2.01071848 27.3488372,2.51162791 L27.3488372,2.51162791 L27.3488372,20.2067183 C27.3488372,20.7076278 27.1458035,21.1611161 26.8175425,21.4893772 C26.4892815,21.8176382 26.0357931,22.0206718 25.5348837,22.0206718 L25.5348837,22.0206718 L2.51162791,22.0206718 C2.01071848,22.0206718 1.55723011,21.8176382 1.22896909,21.4893772 C0.900708079,21.1611161 0.697674419,20.7076278 0.697674419,20.2067183 L0.697674419,20.2067183 L0.697674419,2.51162791 C0.697674419,2.01071848 0.900708079,1.55723011 1.22896909,1.22896909 C1.55723011,0.900708079 2.01071848,0.697674419 2.51162791,0.697674419 L2.51162791,0.697674419 Z" id="Rectangle" stroke="#979797" stroke-width="1.39534884"></path>
                            <path d="M6.48837209,25.4677003 L21.5581395,25.4677003 C22.1361119,25.4677003 22.6046512,25.9362395 22.6046512,26.5142119 L22.6046512,26.5917313 C22.6046512,27.1697037 22.1361119,27.6382429 21.5581395,27.6382429 L6.48837209,27.6382429 C5.91039968,27.6382429 5.44186047,27.1697037 5.44186047,26.5917313 L5.44186047,26.5142119 C5.44186047,25.9362395 5.91039968,25.4677003 6.48837209,25.4677003 Z" id="Rectangle" fill="#D8D8D8"></path>
                            <path d="M4.2118863,4.34108527 L10.5788114,4.34108527 C10.9783972,4.34108527 11.3023256,4.66501362 11.3023256,5.06459948 C11.3023256,5.46418535 10.9783972,5.7881137 10.5788114,5.7881137 L4.2118863,5.7881137 C3.81230044,5.7881137 3.48837209,5.46418535 3.48837209,5.06459948 C3.48837209,4.66501362 3.81230044,4.34108527 4.2118863,4.34108527 Z" id="Rectangle-Copy-6" fill="#D8D8D8"></path>
                            <path d="M4.2118863,7.95865633 L20.7648579,7.95865633 C21.1644437,7.95865633 21.4883721,8.28258468 21.4883721,8.68217054 C21.4883721,9.08175641 21.1644437,9.40568475 20.7648579,9.40568475 L4.2118863,9.40568475 C3.81230044,9.40568475 3.48837209,9.08175641 3.48837209,8.68217054 C3.48837209,8.28258468 3.81230044,7.95865633 4.2118863,7.95865633 Z" id="Rectangle-Copy-7" fill="#D8D8D8"></path>
                            <path d="M4.2118863,11.5762274 L14.625323,11.5762274 C15.0249089,11.5762274 15.3488372,11.9001557 15.3488372,12.2997416 C15.3488372,12.6993275 15.0249089,13.0232558 14.625323,13.0232558 L4.2118863,13.0232558 C3.81230044,13.0232558 3.48837209,12.6993275 3.48837209,12.2997416 C3.48837209,11.9001557 3.81230044,11.5762274 4.2118863,11.5762274 Z" id="Rectangle-Copy-8" fill="#D8D8D8"></path>
                        </g>
                    </g>
                </g>
            </g>
        </g>
    </g>
</svg>