<?xml version="1.0" encoding="UTF-8"?>
<svg width="28px" height="28px" viewBox="0 0 28 28" version="1.1" xmlns="http://www.w3.org/2000/svg" xmlns:xlink="http://www.w3.org/1999/xlink">
    <title>ZKP iCON</title>
    <g id="ZKP-iCON" stroke="none" stroke-width="1" fill="none" fill-rule="evenodd">
        <g id="ZKP" transform="translate(0.347283, 0.978396)" fill-rule="nonzero">
            <path d="M3.40324521,0 L23.8227165,0 C26.0915467,0 27.2259618,1.13441507 27.2259618,3.40324521 L27.2259618,22.4946001 C27.2259618,24.7634302 26.0915467,23.1753322 23.8227165,23.1753322 L3.40324521,23.1753322 C1.13441507,23.1753322 0,24.7634302 0,22.4946001 L0,3.40324521 C0,1.13441507 1.13441507,0 3.40324521,0 Z" id="路径" fill="#E2B578"></path>
            <path d="M1.70162261,4.64798216 L25.5243392,4.64798216 C26.4641194,4.64798216 27.2259618,5.40982456 27.2259618,6.34960477 L27.2259618,22.4954509 C27.2259618,23.3980476 26.8674066,24.2636764 26.2291743,24.9019087 C25.590942,25.5401409 24.7253133,25.8986961 23.8227165,25.8986961 L3.40324521,25.8986961 C1.52368478,25.8986961 0,24.3750113 0,22.4954509 L0,6.34960477 C0,5.40982456 0.761842391,4.64798216 1.70162261,4.64798216 Z" id="路径" fill="#FBE5C3"></path>
            <path d="M4.15025755,12.9493481 C4.79176928,12.9493481 5.31246579,13.4691938 5.31246579,14.1107055 L5.31246579,19.7558385 C5.3125276,20.1710967 5.09102548,20.5548376 4.73141161,20.7624845 C4.37179774,20.9701315 3.92871733,20.9701315 3.56910346,20.7624845 C3.20948959,20.5548376 2.98798748,20.1710967 2.98804928,19.7558385 L2.98804928,14.1107055 C2.98804928,13.4691938 3.50874582,12.9493481 4.15025755,12.9493481 Z M23.4075206,12.9493481 C22.7660089,12.9493481 22.2453124,13.4691938 22.2453124,14.1107055 L22.2453124,19.7558385 C22.2454079,20.3976408 22.7657183,20.9178737 23.4075206,20.9178737 C24.0493229,20.9178737 24.5696333,20.3976408 24.5697289,19.7558385 L24.5697289,14.1107055 C24.5697289,13.4691938 24.0498831,12.9493481 23.4075206,12.9493481 Z M8.79909052,11.2885644 C9.44060225,11.2885644 9.96044794,11.8092609 9.96044794,12.4507727 L9.96044794,21.4157714 C9.97188432,21.8383327 9.75298506,22.233783 9.38882339,22.4484342 C9.02466172,22.6630854 8.57266849,22.6630854 8.20850682,22.4484342 C7.84434515,22.233783 7.62544589,21.8383327 7.63688226,21.4157714 L7.63688226,12.4507727 C7.63688226,11.8092609 8.15672798,11.2885644 8.79823971,11.2885644 L8.79909052,11.2885644 Z M18.7595385,11.2885644 C18.1171759,11.2885644 17.5973302,11.8092609 17.5973302,12.4507727 L17.5973302,21.4157714 C17.5972684,21.8310296 17.8187705,22.2147705 18.1783844,22.4224174 C18.5379983,22.6300644 18.9810787,22.6300644 19.3406925,22.4224174 C19.7003064,22.2147705 19.9218085,21.8310296 19.9217467,21.4157714 L19.9217467,12.4507727 C19.9217467,11.8092609 19.4010502,11.2885644 18.7595385,11.2885644 Z M13.7788891,9.62948236 C14.4204008,9.62948236 14.9410973,10.1484772 14.9410973,10.7908398 L14.9410973,23.0757042 C14.9411591,23.4909624 14.719657,23.8747033 14.3600432,24.0823503 C14.0004293,24.2899972 13.5573489,24.2899972 13.197735,24.0823503 C12.8381211,23.8747033 12.616619,23.4909624 12.6166808,23.0757042 L12.6166808,10.789989 C12.6166808,10.1493281 13.1373774,9.62863155 13.7788891,9.62863155 L13.7788891,9.62948236 Z" id="形状" fill="#65533D"></path>
        </g>
    </g>
</svg>